SplineFontDB: 3.0
FontName: Bungee-Hairline
FullName: Bungee Hairline
FamilyName: Bungee
Weight: Medium
Copyright: Copyright 2008 The Bungee Project Authors david@djr.com
Version: 1.0
ItalicAngle: 0
UnderlinePosition: 0
UnderlineWidth: 0
Ascent: 860
Descent: 140
InvalidEm: 0
sfntRevision: 0x00010000
LayerCount: 2
Layer: 0 0 "Back" 1
Layer: 1 0 "Fore" 0
XUID: [1021 54 2135015912 7287270]
StyleMap: 0x0000
FSType: 1
OS2Version: 3
OS2_WeightWidthSlopeOnly: 0
OS2_UseTypoMetrics: 0
CreationTime: 1465333265
ModificationTime: 1620679748
PfmFamily: 81
TTFWeight: 500
TTFWidth: 5
LineGap: 200
VLineGap: 0
Panose: 0 0 0 0 0 0 0 0 0 0
OS2TypoAscent: 860
OS2TypoAOffset: 0
OS2TypoDescent: -140
OS2TypoDOffset: 0
OS2TypoLinegap: 200
OS2WinAscent: 1614
OS2WinAOffset: 0
OS2WinDescent: 894
OS2WinDOffset: 0
HheadAscent: 860
HheadAOffset: 0
HheadDescent: -140
HheadDOffset: 0
OS2SubXSize: 650
OS2SubYSize: 600
OS2SubXOff: 0
OS2SubYOff: 75
OS2SupXSize: 650
OS2SupYSize: 600
OS2SupXOff: 0
OS2SupYOff: 350
OS2StrikeYSize: 0
OS2StrikeYPos: 300
OS2CapHeight: 720
OS2XHeight: 500
OS2Vendor: 'djr '
OS2CodePages: 20000193.00000000
OS2UnicodeRanges: 20000007.00000001.00000000.00000000
Lookup: 1 0 0 "'locl' Localized Forms in Latin lookup 0" { "'locl' Localized Forms in Latin lookup 0 subtable"  } ['locl' ('latn' <'ROM ' > ) ]
Lookup: 6 0 0 "'locl' Localized Forms in Latin lookup 1" { "'locl' Localized Forms in Latin lookup 1 contextual 0"  "'locl' Localized Forms in Latin lookup 1 contextual 1"  } ['locl' ('latn' <'CAT ' > ) ]
Lookup: 6 0 0 "'ordn' Ordinals in Latin lookup 2" { "'ordn' Ordinals in Latin lookup 2 contextual 0"  "'ordn' Ordinals in Latin lookup 2 contextual 1"  } ['ordn' ('DFLT' <'dflt' > 'latn' <'CAT ' 'ROM ' 'dflt' > ) ]
Lookup: 1 0 0 "'sups' Superscript in Latin lookup 3" { "'sups' Superscript in Latin lookup 3 subtable" ("superior") } ['sups' ('DFLT' <'dflt' > 'latn' <'CAT ' 'ROM ' 'dflt' > ) ]

StartChar: .notdef
Encoding: 65536 -1 0
Width: 1000
Flags: HMW
HStem: -20 10<130 870 130 880> 730 10<130 870 130 130>
VStem: 120 10<-10 730 -10 740> 870 10<-10 730 730 730>
LayerCount: 2
Fore
SplineSet
845 15 m 1
 845 705 l 1
 155 705 l 1
 155 15 l 1
 845 15 l 1
95 -20 m 2
 95 740 l 2
 95 755.132537856 109.270095667 765 120 765 c 2
 880 765 l 2
 895.132537856 765 905 750.729904333 905 740 c 2
 905 -20 l 2
 905 -35.1325378555 890.729904333 -45 880 -45 c 2
 120 -45 l 2
 104.867462144 -45 95 -30.7299043327 95 -20 c 2
EndSplineSet
Position2: "'ss11' Style Set 11 in Latin lookup 1 per glyph data 19" dx=140 dy=0 dh=280 dv=0
EndChar

StartChar: A
Encoding: 65 65 2
Width: 730
Flags: HMW
HStem: 262 10<170 560 170 560> 620 10<294 412 314 412>
VStem: 160 10<90 262 272 303> 560 10<90 262 262 262 272 303 90 321>
LayerCount: 2
Fore
SplineSet
535 90 m 2
 535 237 l 1
 195 237 l 1
 195 90 l 2
 195 74.8674621445 180.729904333 65 170 65 c 2
 160 65 l 2
 144.867462144 65 135 79.2700956673 135 90 c 2
 135 303 l 2
 135 342.770520719 141.533985747 376.989882511 153.667281627 408.977662558 c 2
 217.770043854 573.240990766 l 2
 232.281407902 609.03568875 251.570398166 655 314 655 c 2
 412 655 l 2
 472.156859053 655 491.945370169 609.499531801 507.076437342 572.617555569 c 2
 576.206915945 409.309323506 l 2
 588.62335084 376.575086055 595 342.972598134 595 303 c 2
 595 90 l 2
 595 74.8674621445 580.729904333 65 570 65 c 2
 560 65 l 2
 544.867462144 65 535 79.2700956673 535 90 c 2
195 303 m 2
 195 297 l 1
 535 297 l 1
 535 303 l 2
 535 335.957307246 529.275633765 363.522790827 520.750405159 386.791497655 c 2
 451.999457483 549.203156657 l 2
 435.889691199 586.792611321 431.811096698 595 412 595 c 2
 314 595 l 2
 290.403380432 595 286.925644169 586.573705045 273.320643048 550.991394421 c 2
 209.368340763 387.113619815 l 2
 200.511853028 363.20110293 195 336.091226329 195 303 c 2
EndSplineSet
Substitution2: "'ss12' Style Set 12 in Latin lookup 25 subtable" A.v
Substitution2: "'ss01' Style Set 1 in Latin lookup 21 subtable" A.v
Substitution2: "'vert' Vertical Alternates (obs) in Latin lookup 20 subtable" A.v
Substitution2: "'ss02' Style Set 2 in Latin lookup 5 subtable" A.salt
Position2: "'ss11' Style Set 11 in Latin lookup 1 per glyph data 44" dx=275 dy=0 dh=550 dv=0
EndChar

StartChar: Agrave
Encoding: 192 192 3
Width: 730
Flags: HMW
HStem: 262 10<170 560 170 560> 620 10<294 412 314 412>
VStem: 160 10<90 262 272 303> 560 10<90 262 262 262 272 303 90 321>
LayerCount: 2
Fore
SplineSet
220 867 m 2
 220 877 l 2
 220 892.517205635 234.60445275 903.501061005 248.113641869 901.80534689 c 2
 487.113641869 871.80534689 l 2
 500.20470184 870.162117605 509 857.891975328 509 847 c 2
 509 837 l 2
 509 821.482794365 494.39554725 810.498938995 480.886358131 812.19465311 c 2
 241.886358131 842.19465311 l 2
 228.79529816 843.837882395 220 856.108024672 220 867 c 2
535 90 m 2
 535 237 l 1
 195 237 l 1
 195 90 l 2
 195 74.8674621445 180.729904333 65 170 65 c 2
 160 65 l 2
 144.867462144 65 135 79.2700956673 135 90 c 2
 135 303 l 2
 135 342.770520719 141.533985747 376.989882511 153.667281627 408.977662558 c 2
 217.770043854 573.240990766 l 2
 232.281407902 609.03568875 251.570398166 655 314 655 c 2
 412 655 l 2
 472.156859053 655 491.945370169 609.499531801 507.076437342 572.617555569 c 2
 576.206915945 409.309323506 l 2
 588.62335084 376.575086055 595 342.972598134 595 303 c 2
 595 90 l 2
 595 74.8674621445 580.729904333 65 570 65 c 2
 560 65 l 2
 544.867462144 65 535 79.2700956673 535 90 c 2
195 303 m 2
 195 297 l 1
 535 297 l 1
 535 303 l 2
 535 335.957307246 529.275633765 363.522790827 520.750405159 386.791497655 c 2
 451.999457483 549.203156657 l 2
 435.889691199 586.792611321 431.811096698 595 412 595 c 2
 314 595 l 2
 290.403380432 595 286.925644169 586.573705045 273.320643048 550.991394421 c 2
 209.368340763 387.113619815 l 2
 200.511853028 363.20110293 195 336.091226329 195 303 c 2
EndSplineSet
Substitution2: "'ss12' Style Set 12 in Latin lookup 25 subtable" Agrave.v
Substitution2: "'ss01' Style Set 1 in Latin lookup 21 subtable" Agrave.v
Substitution2: "'vert' Vertical Alternates (obs) in Latin lookup 20 subtable" Agrave.v
Substitution2: "'ss02' Style Set 2 in Latin lookup 5 subtable" Agrave.salt
Position2: "'ss11' Style Set 11 in Latin lookup 1 per glyph data 44" dx=275 dy=0 dh=550 dv=0
EndChar

StartChar: Aacute
Encoding: 193 193 4
Width: 730
Flags: HMW
HStem: 262 10<170 560 170 560> 620 10<294 412 314 412>
VStem: 160 10<90 262 272 303> 560 10<90 262 262 262 272 303 90 321>
LayerCount: 2
Fore
SplineSet
241.886358131 871.80534689 m 2
 480.886358131 901.80534689 l 2
 496.282744872 903.737947736 509 890.615198751 509 877 c 2
 509 867 l 2
 509 853.806211551 497.920810922 843.551201527 487.113641869 842.19465311 c 2
 248.113641869 812.19465311 l 2
 232.717255128 810.262052264 220 823.384801249 220 837 c 2
 220 847 l 2
 220 860.193788449 231.079189078 870.448798473 241.886358131 871.80534689 c 2
535 90 m 2
 535 237 l 1
 195 237 l 1
 195 90 l 2
 195 74.8674621445 180.729904333 65 170 65 c 2
 160 65 l 2
 144.867462144 65 135 79.2700956673 135 90 c 2
 135 303 l 2
 135 342.770520719 141.533985747 376.989882511 153.667281627 408.977662558 c 2
 217.770043854 573.240990766 l 2
 232.281407902 609.03568875 251.570398166 655 314 655 c 2
 412 655 l 2
 472.156859053 655 491.945370169 609.499531801 507.076437342 572.617555569 c 2
 576.206915945 409.309323506 l 2
 588.62335084 376.575086055 595 342.972598134 595 303 c 2
 595 90 l 2
 595 74.8674621445 580.729904333 65 570 65 c 2
 560 65 l 2
 544.867462144 65 535 79.2700956673 535 90 c 2
195 303 m 2
 195 297 l 1
 535 297 l 1
 535 303 l 2
 535 335.957307246 529.275633765 363.522790827 520.750405159 386.791497655 c 2
 451.999457483 549.203156657 l 2
 435.889691199 586.792611321 431.811096698 595 412 595 c 2
 314 595 l 2
 290.403380432 595 286.925644169 586.573705045 273.320643048 550.991394421 c 2
 209.368340763 387.113619815 l 2
 200.511853028 363.20110293 195 336.091226329 195 303 c 2
EndSplineSet
Substitution2: "'ss12' Style Set 12 in Latin lookup 25 subtable" Aacute.v
Substitution2: "'ss01' Style Set 1 in Latin lookup 21 subtable" Aacute.v
Substitution2: "'vert' Vertical Alternates (obs) in Latin lookup 20 subtable" Aacute.v
Substitution2: "'ss02' Style Set 2 in Latin lookup 5 subtable" Aacute.salt
Position2: "'ss11' Style Set 11 in Latin lookup 1 per glyph data 44" dx=275 dy=0 dh=550 dv=0
EndChar

StartChar: Acircumflex
Encoding: 194 194 5
Width: 730
Flags: HMW
HStem: 262 10<170 560 170 560> 620 10<294 412 314 412> 878 10<328 332>
VStem: 160 10<90 262 272 303> 560 10<90 262 262 262 272 303 90 321>
LayerCount: 2
Fore
SplineSet
475.340916587 826.202133682 m 2
 388.577873941 854.125871545 l 2
 378.473634122 857.157143491 372.85361019 859 364 859 c 0
 355.14638981 859 349.526365878 857.157143491 339.422126059 854.125871545 c 2
 252.659083413 826.202133682 l 2
 236.716712085 821.071255554 220 833.431547997 220 850 c 2
 220 861 l 2
 220 872.112439944 228.03433223 881.770552321 237.26637181 884.773745919 c 2
 320.26637181 911.773745919 l 2
 320.79182668 911.944677021 321.538462316 912.154025739 321.936609374 912.253562504 c 0
 332.604511609 914.920538062 345.458791853 919 364 919 c 0
 382.541208147 919 395.395488391 914.920538062 406.063390626 912.253562504 c 0
 406.599450554 912.119547521 407.343357813 911.900701343 407.73362819 911.773745919 c 2
 490.73362819 884.773745919 l 2
 501.301001141 881.336166766 508 870.708229838 508 861 c 2
 508 850 l 2
 508 833.252310191 491.112668822 821.126167446 475.340916587 826.202133682 c 2
535 90 m 2
 535 237 l 1
 195 237 l 1
 195 90 l 2
 195 74.8674621445 180.729904333 65 170 65 c 2
 160 65 l 2
 144.867462144 65 135 79.2700956673 135 90 c 2
 135 303 l 2
 135 342.770520719 141.533985747 376.989882511 153.667281627 408.977662558 c 2
 217.770043854 573.240990766 l 2
 232.281407902 609.03568875 251.570398166 655 314 655 c 2
 412 655 l 2
 472.156859053 655 491.945370169 609.499531801 507.076437342 572.617555569 c 2
 576.206915945 409.309323506 l 2
 588.62335084 376.575086055 595 342.972598134 595 303 c 2
 595 90 l 2
 595 74.8674621445 580.729904333 65 570 65 c 2
 560 65 l 2
 544.867462144 65 535 79.2700956673 535 90 c 2
195 303 m 2
 195 297 l 1
 535 297 l 1
 535 303 l 2
 535 335.957307246 529.275633765 363.522790827 520.750405159 386.791497655 c 2
 451.999457483 549.203156657 l 2
 435.889691199 586.792611321 431.811096698 595 412 595 c 2
 314 595 l 2
 290.403380432 595 286.925644169 586.573705045 273.320643048 550.991394421 c 2
 209.368340763 387.113619815 l 2
 200.511853028 363.20110293 195 336.091226329 195 303 c 2
EndSplineSet
Substitution2: "'ss12' Style Set 12 in Latin lookup 25 subtable" Acircumflex.v
Substitution2: "'ss01' Style Set 1 in Latin lookup 21 subtable" Acircumflex.v
Substitution2: "'vert' Vertical Alternates (obs) in Latin lookup 20 subtable" Acircumflex.v
Substitution2: "'ss02' Style Set 2 in Latin lookup 5 subtable" Acircumflex.salt
Position2: "'ss11' Style Set 11 in Latin lookup 1 per glyph data 44" dx=275 dy=0 dh=550 dv=0
EndChar

StartChar: Atilde
Encoding: 195 195 6
Width: 730
Flags: HMW
HStem: 262 10<170 560 170 560> 620 10<294 412 314 412> 831 10<483 483> 843 10
VStem: 160 10<90 262 272 303> 560 10<90 262 262 262 272 303 90 321>
LayerCount: 2
Fore
SplineSet
508 841 m 2
 508 831 l 2
 508 817.869109695 497.137675011 807.417005173 485.760788152 806.152906633 c 0
 454.956702721 802.730230474 425.685838165 806.391735507 375.506951231 814.242075633 c 2
 359.681543579 816.220251589 l 1
 331.268059914 820.279320684 l 2
 287.575939647 827.230339818 267.312106816 827.646883313 249.472135955 824.403252248 c 0
 233.127234888 821.431452054 220 835.762699252 220 849 c 2
 220 860 l 2
 220 873.212496489 231.150725173 883.405341337 241.766520398 884.79001028 c 0
 268.811710784 888.317643808 294.994574255 885.821966683 340.419888126 879.765258167 c 2
 368.318456421 875.779748411 l 1
 384.488382326 873.758507673 l 2
 436.531346491 865.594905451 456.976422735 863.262339021 480.239211848 865.847093367 c 0
 495.814846865 867.57771948 508 853.946593607 508 841 c 2
535 90 m 2
 535 237 l 1
 195 237 l 1
 195 90 l 2
 195 74.8674621445 180.729904333 65 170 65 c 2
 160 65 l 2
 144.867462144 65 135 79.2700956673 135 90 c 2
 135 303 l 2
 135 342.770520719 141.533985747 376.989882511 153.667281627 408.977662558 c 2
 217.770043854 573.240990766 l 2
 232.281407902 609.03568875 251.570398166 655 314 655 c 2
 412 655 l 2
 472.156859053 655 491.945370169 609.499531801 507.076437342 572.617555569 c 2
 576.206915945 409.309323506 l 2
 588.62335084 376.575086055 595 342.972598134 595 303 c 2
 595 90 l 2
 595 74.8674621445 580.729904333 65 570 65 c 2
 560 65 l 2
 544.867462144 65 535 79.2700956673 535 90 c 2
195 303 m 2
 195 297 l 1
 535 297 l 1
 535 303 l 2
 535 335.957307246 529.275633765 363.522790827 520.750405159 386.791497655 c 2
 451.999457483 549.203156657 l 2
 435.889691199 586.792611321 431.811096698 595 412 595 c 2
 314 595 l 2
 290.403380432 595 286.925644169 586.573705045 273.320643048 550.991394421 c 2
 209.368340763 387.113619815 l 2
 200.511853028 363.20110293 195 336.091226329 195 303 c 2
EndSplineSet
Substitution2: "'ss12' Style Set 12 in Latin lookup 25 subtable" Atilde.v
Substitution2: "'ss01' Style Set 1 in Latin lookup 21 subtable" Atilde.v
Substitution2: "'vert' Vertical Alternates (obs) in Latin lookup 20 subtable" Atilde.v
Substitution2: "'ss02' Style Set 2 in Latin lookup 5 subtable" Atilde.salt
Position2: "'ss11' Style Set 11 in Latin lookup 1 per glyph data 44" dx=275 dy=0 dh=550 dv=0
EndChar

StartChar: Adieresis
Encoding: 196 196 7
Width: 730
Flags: HMW
HStem: 262 10<170 560 170 560> 620 10<294 412 314 412> 830 47<229 239 229 239 487 497>
VStem: 160 10<90 262 272 303> 229 10<830 877> 487 10<830 877> 560 10<90 262 262 262 272 303 90 321>
LayerCount: 2
Fore
SplineSet
497 805 m 2
 487 805 l 2
 471.867462144 805 462 819.270095667 462 830 c 2
 462 877 l 2
 462 892.132537856 476.270095667 902 487 902 c 2
 497 902 l 2
 512.132537856 902 522 887.729904333 522 877 c 2
 522 830 l 2
 522 814.867462144 507.729904333 805 497 805 c 2
239 805 m 2
 229 805 l 2
 213.867462144 805 204 819.270095667 204 830 c 2
 204 877 l 2
 204 892.132537856 218.270095667 902 229 902 c 2
 239 902 l 2
 254.132537856 902 264 887.729904333 264 877 c 2
 264 830 l 2
 264 814.867462144 249.729904333 805 239 805 c 2
535 90 m 2
 535 237 l 1
 195 237 l 1
 195 90 l 2
 195 74.8674621445 180.729904333 65 170 65 c 2
 160 65 l 2
 144.867462144 65 135 79.2700956673 135 90 c 2
 135 303 l 2
 135 342.770520719 141.533985747 376.989882511 153.667281627 408.977662558 c 2
 217.770043854 573.240990766 l 2
 232.281407902 609.03568875 251.570398166 655 314 655 c 2
 412 655 l 2
 472.156859053 655 491.945370169 609.499531801 507.076437342 572.617555569 c 2
 576.206915945 409.309323506 l 2
 588.62335084 376.575086055 595 342.972598134 595 303 c 2
 595 90 l 2
 595 74.8674621445 580.729904333 65 570 65 c 2
 560 65 l 2
 544.867462144 65 535 79.2700956673 535 90 c 2
195 303 m 2
 195 297 l 1
 535 297 l 1
 535 303 l 2
 535 335.957307246 529.275633765 363.522790827 520.750405159 386.791497655 c 2
 451.999457483 549.203156657 l 2
 435.889691199 586.792611321 431.811096698 595 412 595 c 2
 314 595 l 2
 290.403380432 595 286.925644169 586.573705045 273.320643048 550.991394421 c 2
 209.368340763 387.113619815 l 2
 200.511853028 363.20110293 195 336.091226329 195 303 c 2
EndSplineSet
Substitution2: "'ss12' Style Set 12 in Latin lookup 25 subtable" Adieresis.v
Substitution2: "'ss01' Style Set 1 in Latin lookup 21 subtable" Adieresis.v
Substitution2: "'vert' Vertical Alternates (obs) in Latin lookup 20 subtable" Adieresis.v
Substitution2: "'ss02' Style Set 2 in Latin lookup 5 subtable" Adieresis.salt
Position2: "'ss11' Style Set 11 in Latin lookup 1 per glyph data 44" dx=275 dy=0 dh=550 dv=0
EndChar

StartChar: Aring
Encoding: 197 197 8
Width: 730
Flags: HMW
HStem: 262 10<170 560 170 560> 620 10<294 412 314 412> 660 10<312.5 419.5 312.5 425.5> 896 10<312.5 419.5>
VStem: 160 10<90 262 272 303> 225 10<760 805> 499 10<760 805> 560 10<90 262 262 262 272 303 90 321>
LayerCount: 2
Fore
SplineSet
535 90 m 2
 535 237 l 1
 195 237 l 1
 195 90 l 2
 195 74.8674621445 180.729904333 65 170 65 c 2
 160 65 l 2
 144.867462144 65 135 79.2700956673 135 90 c 2
 135 303 l 2
 135 342.770520719 141.533985747 376.989882511 153.667281627 408.977662558 c 2
 217.770043854 573.240990766 l 2
 228.758063304 600.344772076 242.485350812 633.279335352 275.606956433 647.674488495 c 1
 219.459469556 667.353032316 200 708.416213824 200 760 c 2
 200 805 l 2
 200 877.817612402 238.744321588 931 366 931 c 0
 493.075651678 931 534 877.415032252 534 805 c 2
 534 760 l 2
 534 706.733541872 512.346373769 665.130849681 452.463848407 646.183355597 c 1
 482.46167174 631.154615749 496.013835821 599.582646812 507.076437342 572.617555569 c 2
 576.206915945 409.309323506 l 2
 588.62335084 376.575086055 595 342.972598134 595 303 c 2
 595 90 l 2
 595 74.8674621445 580.729904333 65 570 65 c 2
 560 65 l 2
 544.867462144 65 535 79.2700956673 535 90 c 2
195 303 m 2
 195 297 l 1
 535 297 l 1
 535 303 l 2
 535 335.957307246 529.275633765 363.522790827 520.750405159 386.791497655 c 2
 451.999457483 549.203156657 l 2
 435.889691199 586.792611321 431.811096698 595 412 595 c 2
 314 595 l 2
 290.403380432 595 286.925644169 586.573705045 273.320643048 550.991394421 c 2
 209.368340763 387.113619815 l 2
 200.511853028 363.20110293 195 336.091226329 195 303 c 2
366 871 m 0
 266.066565691 871 260 846.665368629 260 805 c 2
 260 760 l 2
 260 718.55823825 265.740396915 695 366 695 c 0
 466.651070306 695 474 719.212079276 474 760 c 2
 474 805 l 2
 474 845.044446924 466.117409318 871 366 871 c 0
EndSplineSet
Substitution2: "'ss12' Style Set 12 in Latin lookup 25 subtable" Aring.v
Substitution2: "'ss01' Style Set 1 in Latin lookup 21 subtable" Aring.v
Substitution2: "'vert' Vertical Alternates (obs) in Latin lookup 20 subtable" Aring.v
Substitution2: "'ss02' Style Set 2 in Latin lookup 5 subtable" Aring.salt
Position2: "'ss11' Style Set 11 in Latin lookup 1 per glyph data 44" dx=275 dy=0 dh=550 dv=0
EndChar

StartChar: Amacron
Encoding: 256 256 9
Width: 730
Flags: HMW
HStem: 262 10<170 560 170 560> 620 10<294 412 314 412> 837 10<245 484 245 484>
VStem: 160 10<90 262 272 303> 560 10<90 262 262 262 272 303 90 321>
LayerCount: 2
Fore
SplineSet
245 872 m 2
 484 872 l 2
 499.132537856 872 509 857.729904333 509 847 c 2
 509 837 l 2
 509 821.867462144 494.729904333 812 484 812 c 2
 245 812 l 2
 229.867462144 812 220 826.270095667 220 837 c 2
 220 847 l 2
 220 862.132537856 234.270095667 872 245 872 c 2
535 90 m 2
 535 237 l 1
 195 237 l 1
 195 90 l 2
 195 74.8674621445 180.729904333 65 170 65 c 2
 160 65 l 2
 144.867462144 65 135 79.2700956673 135 90 c 2
 135 303 l 2
 135 342.770520719 141.533985747 376.989882511 153.667281627 408.977662558 c 2
 217.770043854 573.240990766 l 2
 232.281407902 609.03568875 251.570398166 655 314 655 c 2
 412 655 l 2
 472.156859053 655 491.945370169 609.499531801 507.076437342 572.617555569 c 2
 576.206915945 409.309323506 l 2
 588.62335084 376.575086055 595 342.972598134 595 303 c 2
 595 90 l 2
 595 74.8674621445 580.729904333 65 570 65 c 2
 560 65 l 2
 544.867462144 65 535 79.2700956673 535 90 c 2
195 303 m 2
 195 297 l 1
 535 297 l 1
 535 303 l 2
 535 335.957307246 529.275633765 363.522790827 520.750405159 386.791497655 c 2
 451.999457483 549.203156657 l 2
 435.889691199 586.792611321 431.811096698 595 412 595 c 2
 314 595 l 2
 290.403380432 595 286.925644169 586.573705045 273.320643048 550.991394421 c 2
 209.368340763 387.113619815 l 2
 200.511853028 363.20110293 195 336.091226329 195 303 c 2
EndSplineSet
Substitution2: "'ss12' Style Set 12 in Latin lookup 25 subtable" Amacron.v
Substitution2: "'ss01' Style Set 1 in Latin lookup 21 subtable" Amacron.v
Substitution2: "'vert' Vertical Alternates (obs) in Latin lookup 20 subtable" Amacron.v
Substitution2: "'ss02' Style Set 2 in Latin lookup 5 subtable" Amacron.salt
Position2: "'ss11' Style Set 11 in Latin lookup 1 per glyph data 44" dx=275 dy=0 dh=550 dv=0
EndChar

StartChar: Abreve
Encoding: 258 258 10
Width: 730
Flags: HMW
HStem: 262 10<170 560 170 560> 620 10<294 412 314 412> 818 10<310 418 310 426>
VStem: 160 10<90 262 272 303> 224 10<898 907 880 907> 499 10<898 907 879 907> 560 10<90 262 262 262 272 303 90 321>
LayerCount: 2
Fore
SplineSet
499 932 m 2
 509 932 l 2
 524.132537856 932 534 917.729904333 534 907 c 2
 534 898 l 2
 534 843.091100103 493.602341268 793 364 793 c 0
 233.418217009 793 199 844.869876646 199 898 c 2
 199 907 l 2
 199 922.132537856 213.270095667 932 224 932 c 2
 234 932 l 2
 249.132537856 932 259 917.729904333 259 907 c 2
 259 898 l 2
 259 880.279956546 260.266659849 853 364 853 c 0
 468.768066385 853 474 882.136424644 474 898 c 2
 474 907 l 2
 474 922.132537856 488.270095667 932 499 932 c 2
535 90 m 2
 535 237 l 1
 195 237 l 1
 195 90 l 2
 195 74.8674621445 180.729904333 65 170 65 c 2
 160 65 l 2
 144.867462144 65 135 79.2700956673 135 90 c 2
 135 303 l 2
 135 342.770520719 141.533985747 376.989882511 153.667281627 408.977662558 c 2
 217.770043854 573.240990766 l 2
 232.281407902 609.03568875 251.570398166 655 314 655 c 2
 412 655 l 2
 472.156859053 655 491.945370169 609.499531801 507.076437342 572.617555569 c 2
 576.206915945 409.309323506 l 2
 588.62335084 376.575086055 595 342.972598134 595 303 c 2
 595 90 l 2
 595 74.8674621445 580.729904333 65 570 65 c 2
 560 65 l 2
 544.867462144 65 535 79.2700956673 535 90 c 2
195 303 m 2
 195 297 l 1
 535 297 l 1
 535 303 l 2
 535 335.957307246 529.275633765 363.522790827 520.750405159 386.791497655 c 2
 451.999457483 549.203156657 l 2
 435.889691199 586.792611321 431.811096698 595 412 595 c 2
 314 595 l 2
 290.403380432 595 286.925644169 586.573705045 273.320643048 550.991394421 c 2
 209.368340763 387.113619815 l 2
 200.511853028 363.20110293 195 336.091226329 195 303 c 2
EndSplineSet
Substitution2: "'ss12' Style Set 12 in Latin lookup 25 subtable" Abreve.v
Substitution2: "'ss01' Style Set 1 in Latin lookup 21 subtable" Abreve.v
Substitution2: "'vert' Vertical Alternates (obs) in Latin lookup 20 subtable" Abreve.v
Substitution2: "'ss02' Style Set 2 in Latin lookup 5 subtable" Abreve.salt
Position2: "'ss11' Style Set 11 in Latin lookup 1 per glyph data 44" dx=275 dy=0 dh=550 dv=0
EndChar

StartChar: Aogonek
Encoding: 260 260 11
Width: 730
Flags: HMW
HStem: -116 10<537.5 586 562 586> 90 8<560 566 560 570> 262 10<170 560 170 560> 620 10<294 412 314 412>
VStem: 160 10<90 262 272 303> 511 10<-43 -41> 560 10<98 262 262 262 272 303 90 321>
LayerCount: 2
Fore
SplineSet
195 303 m 2
 195 297 l 1
 535 297 l 1
 535 303 l 2
 535 335.957307246 529.275633765 363.522790827 520.750405159 386.791497655 c 2
 451.999457483 549.203156657 l 2
 435.889691199 586.792611321 431.811096698 595 412 595 c 2
 314 595 l 2
 290.403380432 595 286.925644169 586.573705045 273.320643048 550.991394421 c 2
 209.368340763 387.113619815 l 2
 200.511853028 363.20110293 195 336.091226329 195 303 c 2
611 -106 m 2
 611 -116 l 2
 611 -131.132537856 596.729904333 -141 586 -141 c 2
 562 -141 l 2
 554.968484421 -141 548.312841724 -140.568504577 541.934260673 -139.587834386 c 0
 487.556505605 -131.227566949 478.973560784 -82.9278838355 486.284218488 -37.2362731865 c 2
 498.277674453 45.7184639086 l 2
 502.727544623 74.1976329966 511.223972391 95.8659829037 535 111.989991623 c 1
 535 237 l 1
 195 237 l 1
 195 90 l 2
 195 74.8674621445 180.729904333 65 170 65 c 2
 160 65 l 2
 144.867462144 65 135 79.2700956673 135 90 c 2
 135 303 l 2
 135 342.770520719 141.533985747 376.989882511 153.667281627 408.977662558 c 2
 217.770043854 573.240990766 l 2
 232.281407902 609.03568875 251.570398166 655 314 655 c 2
 412 655 l 2
 472.156859053 655 491.945370169 609.499531801 507.076437342 572.617555569 c 2
 576.206915945 409.309323506 l 2
 588.62335084 376.575086055 595 342.972598134 595 303 c 2
 595 90 l 2
 595 76.4932962404 583.952900581 66.8983119971 572.895484163 65.1469696948 c 1
 557.177829764 55.857071628 561.107635837 62.8143452168 557.760091023 38.5446453095 c 2
 545.782302844 -46.2980209518 l 2
 544.951601656 -52.9436304598 544.434139427 -59.5031173712 544.409059131 -64.3449156415 c 0
 544.319289906 -81.6750332497 541.445862776 -81 562 -81 c 2
 586 -81 l 2
 601.132537856 -81 611 -95.2700956673 611 -106 c 2
EndSplineSet
Substitution2: "'ss12' Style Set 12 in Latin lookup 25 subtable" Aogonek.v
Substitution2: "'ss01' Style Set 1 in Latin lookup 21 subtable" Aogonek.v
Substitution2: "'vert' Vertical Alternates (obs) in Latin lookup 20 subtable" Aogonek.v
Substitution2: "'ss02' Style Set 2 in Latin lookup 5 subtable" Aogonek.salt
Position2: "'ss11' Style Set 11 in Latin lookup 1 per glyph data 44" dx=275 dy=0 dh=550 dv=0
EndChar

StartChar: B
Encoding: 66 66 12
Width: 725
Flags: HMW
HStem: 90 10<190 449 190 449> 359 10<190 383 383 438 190 383> 620 10<190 383 190 190>
VStem: 180 10<100 359 369 620> 504 10<460 524> 570 10<190 254>
LayerCount: 2
Fore
SplineSet
450 334 m 2
 215 334 l 1
 215 125 l 1
 449 125 l 2
 540.520130001 125 545 147.780964831 545 190 c 2
 545 254 l 2
 545 304.826454413 538.629679372 334 450 334 c 2
383 595 m 2
 215 595 l 1
 215 394 l 1
 383 394 l 2
 482.07139008 394 479 421.549750635 479 460 c 2
 479 524 l 2
 479 566.86349674 473.324308083 595 383 595 c 2
449 65 m 2
 180 65 l 2
 164.867462144 65 155 79.2700956673 155 90 c 2
 155 630 l 2
 155 645.132537856 169.270095667 655 180 655 c 2
 383 655 l 2
 505.430708757 655 539 592.355281382 539 524 c 2
 539 460 l 2
 539 436.153200148 536.659780797 408.561888802 520.501048534 385.435860114 c 1
 591.274101031 364.256361864 605 307.582510268 605 254 c 2
 605 190 l 2
 605 119.662527884 570.613777099 65 449 65 c 2
EndSplineSet
Substitution2: "'ss12' Style Set 12 in Latin lookup 25 subtable" B.v
Substitution2: "'ss01' Style Set 1 in Latin lookup 21 subtable" B.v
Substitution2: "'vert' Vertical Alternates (obs) in Latin lookup 20 subtable" B.v
Position2: "'ss11' Style Set 11 in Latin lookup 1 per glyph data 46" dx=278 dy=0 dh=555 dv=0
EndChar

StartChar: C
Encoding: 67 67 13
Width: 628
Flags: HMW
HStem: 90 10<261 493 326 493> 620 10<267 493 326 493>
VStem: 166 10<219 499>
LayerCount: 2
Fore
SplineSet
518 100 m 2
 518 90 l 2
 518 74.8674621445 503.729904333 65 493 65 c 2
 326 65 l 2
 188.430407404 65 141 113.745595367 141 219 c 2
 141 499 l 2
 141 606.355899644 190.352933727 655 326 655 c 2
 493 655 l 2
 508.132537856 655 518 640.729904333 518 630 c 2
 518 620 l 2
 518 604.867462144 503.729904333 595 493 595 c 2
 326 595 l 2
 215.052267936 595 201 574.897319555 201 499 c 2
 201 219 l 2
 201 144.935422821 212.991226278 125 326 125 c 2
 493 125 l 2
 508.132537856 125 518 110.729904333 518 100 c 2
EndSplineSet
Substitution2: "'ss12' Style Set 12 in Latin lookup 25 subtable" C.v
Substitution2: "'ss01' Style Set 1 in Latin lookup 21 subtable" C.v
Substitution2: "'vert' Vertical Alternates (obs) in Latin lookup 20 subtable" C.v
Position2: "'ss11' Style Set 11 in Latin lookup 1 per glyph data 78" dx=326 dy=0 dh=652 dv=0
EndChar

StartChar: Ccedilla
Encoding: 199 199 14
Width: 628
Flags: HMW
HStem: 90 10<261 493 326 394 405 493 405 405> 620 10<267 493 326 493>
VStem: 166 10<219 499>
LayerCount: 2
Fore
SplineSet
493 65 m 2
 422.486956567 65 l 1
 382.483932996 -44.5734993476 l 2
 378.91796589 -54.3411483763 369.355406354 -61 359 -61 c 2
 349 -61 l 2
 334.629596131 -61 322.949602697 -48.3646798474 324.077062701 -34.0385728639 c 0
 324.24796958 -31.8669390899 325.383964734 -27.7945550088 325.45645221 -27.591590075 c 2
 358.524877237 65 l 1
 326 65 l 2
 188.430407404 65 141 113.745595367 141 219 c 2
 141 499 l 2
 141 606.355899644 190.352933727 655 326 655 c 2
 493 655 l 2
 508.132537856 655 518 640.729904333 518 630 c 2
 518 620 l 2
 518 604.867462144 503.729904333 595 493 595 c 2
 326 595 l 2
 215.052267936 595 201 574.897319555 201 499 c 2
 201 219 l 2
 201 144.935422821 212.991226278 125 326 125 c 2
 493 125 l 2
 508.132537856 125 518 110.729904333 518 100 c 2
 518 90 l 2
 518 74.8674621445 503.729904333 65 493 65 c 2
EndSplineSet
Substitution2: "'ss12' Style Set 12 in Latin lookup 25 subtable" Ccedilla.v
Substitution2: "'ss01' Style Set 1 in Latin lookup 21 subtable" Ccedilla.v
Substitution2: "'vert' Vertical Alternates (obs) in Latin lookup 20 subtable" Ccedilla.v
Position2: "'ss11' Style Set 11 in Latin lookup 1 per glyph data 78" dx=326 dy=0 dh=652 dv=0
EndChar

StartChar: Cacute
Encoding: 262 262 15
Width: 628
Flags: HMW
HStem: 90 10<261 493 326 493> 620 10<267 493 326 493>
VStem: 166 10<219 499>
LayerCount: 2
Fore
SplineSet
251.886358131 871.80534689 m 2
 490.886358131 901.80534689 l 2
 506.282744872 903.737947736 519 890.615198751 519 877 c 2
 519 867 l 2
 519 853.806211551 507.920810922 843.551201527 497.113641869 842.19465311 c 2
 258.113641869 812.19465311 l 2
 242.717255128 810.262052264 230 823.384801249 230 837 c 2
 230 847 l 2
 230 860.193788449 241.079189078 870.448798473 251.886358131 871.80534689 c 2
518 100 m 2
 518 90 l 2
 518 74.8674621445 503.729904333 65 493 65 c 2
 326 65 l 2
 188.430407404 65 141 113.745595367 141 219 c 2
 141 499 l 2
 141 606.355899644 190.352933727 655 326 655 c 2
 493 655 l 2
 508.132537856 655 518 640.729904333 518 630 c 2
 518 620 l 2
 518 604.867462144 503.729904333 595 493 595 c 2
 326 595 l 2
 215.052267936 595 201 574.897319555 201 499 c 2
 201 219 l 2
 201 144.935422821 212.991226278 125 326 125 c 2
 493 125 l 2
 508.132537856 125 518 110.729904333 518 100 c 2
EndSplineSet
Substitution2: "'ss12' Style Set 12 in Latin lookup 25 subtable" Cacute.v
Substitution2: "'ss01' Style Set 1 in Latin lookup 21 subtable" Cacute.v
Substitution2: "'vert' Vertical Alternates (obs) in Latin lookup 20 subtable" Cacute.v
Position2: "'ss11' Style Set 11 in Latin lookup 1 per glyph data 78" dx=326 dy=0 dh=652 dv=0
EndChar

StartChar: Ccircumflex
Encoding: 264 264 16
Width: 628
Flags: HMW
HStem: 90 10<261 493 326 493> 620 10<267 493 326 493> 878 10<308 312>
VStem: 166 10<219 499>
LayerCount: 2
Fore
SplineSet
455.340916587 826.202133682 m 2
 368.577873941 854.125871545 l 2
 358.473634122 857.157143491 352.85361019 859 344 859 c 0
 335.14638981 859 329.526365878 857.157143491 319.422126059 854.125871545 c 2
 232.659083413 826.202133682 l 2
 216.716712085 821.071255554 200 833.431547997 200 850 c 2
 200 861 l 2
 200 872.112439944 208.03433223 881.770552321 217.26637181 884.773745919 c 2
 300.26637181 911.773745919 l 2
 300.79182668 911.944677021 301.538462316 912.154025739 301.936609374 912.253562504 c 0
 312.604511609 914.920538062 325.458791853 919 344 919 c 0
 362.541208147 919 375.395488391 914.920538062 386.063390626 912.253562504 c 0
 386.599450554 912.119547521 387.343357813 911.900701343 387.73362819 911.773745919 c 2
 470.73362819 884.773745919 l 2
 481.301001141 881.336166766 488 870.708229838 488 861 c 2
 488 850 l 2
 488 833.252310191 471.112668822 821.126167446 455.340916587 826.202133682 c 2
518 100 m 2
 518 90 l 2
 518 74.8674621445 503.729904333 65 493 65 c 2
 326 65 l 2
 188.430407404 65 141 113.745595367 141 219 c 2
 141 499 l 2
 141 606.355899644 190.352933727 655 326 655 c 2
 493 655 l 2
 508.132537856 655 518 640.729904333 518 630 c 2
 518 620 l 2
 518 604.867462144 503.729904333 595 493 595 c 2
 326 595 l 2
 215.052267936 595 201 574.897319555 201 499 c 2
 201 219 l 2
 201 144.935422821 212.991226278 125 326 125 c 2
 493 125 l 2
 508.132537856 125 518 110.729904333 518 100 c 2
EndSplineSet
Substitution2: "'ss12' Style Set 12 in Latin lookup 25 subtable" Ccircumflex.v
Substitution2: "'ss01' Style Set 1 in Latin lookup 21 subtable" Ccircumflex.v
Substitution2: "'vert' Vertical Alternates (obs) in Latin lookup 20 subtable" Ccircumflex.v
Position2: "'ss11' Style Set 11 in Latin lookup 1 per glyph data 78" dx=326 dy=0 dh=652 dv=0
EndChar

StartChar: Cdotaccent
Encoding: 266 266 17
Width: 628
Flags: HMW
HStem: 90 10<261 493 326 493> 620 10<267 493 326 493> 830 59<351 361 351 361>
VStem: 166 10<219 499> 351 10<830 889>
LayerCount: 2
Fore
SplineSet
361 805 m 2
 351 805 l 2
 335.867462144 805 326 819.270095667 326 830 c 2
 326 889 l 2
 326 904.132537856 340.270095667 914 351 914 c 2
 361 914 l 2
 376.132537856 914 386 899.729904333 386 889 c 2
 386 830 l 2
 386 814.867462144 371.729904333 805 361 805 c 2
518 100 m 2
 518 90 l 2
 518 74.8674621445 503.729904333 65 493 65 c 2
 326 65 l 2
 188.430407404 65 141 113.745595367 141 219 c 2
 141 499 l 2
 141 606.355899644 190.352933727 655 326 655 c 2
 493 655 l 2
 508.132537856 655 518 640.729904333 518 630 c 2
 518 620 l 2
 518 604.867462144 503.729904333 595 493 595 c 2
 326 595 l 2
 215.052267936 595 201 574.897319555 201 499 c 2
 201 219 l 2
 201 144.935422821 212.991226278 125 326 125 c 2
 493 125 l 2
 508.132537856 125 518 110.729904333 518 100 c 2
EndSplineSet
Substitution2: "'ss12' Style Set 12 in Latin lookup 25 subtable" Cdotaccent.v
Substitution2: "'ss01' Style Set 1 in Latin lookup 21 subtable" Cdotaccent.v
Substitution2: "'vert' Vertical Alternates (obs) in Latin lookup 20 subtable" Cdotaccent.v
Position2: "'ss11' Style Set 11 in Latin lookup 1 per glyph data 78" dx=326 dy=0 dh=652 dv=0
EndChar

StartChar: Ccaron
Encoding: 268 268 18
Width: 628
Flags: HMW
HStem: 90 10<261 493 326 493> 620 10<267 493 326 493> 841 10<308 312>
VStem: 166 10<219 499>
LayerCount: 2
Fore
SplineSet
232.659083413 902.797866318 m 2
 319.422126059 874.874128455 l 2
 329.526365878 871.842856509 335.14638981 870 344 870 c 0
 352.85361019 870 358.473634122 871.842856509 368.577873941 874.874128455 c 2
 455.340916587 902.797866318 l 2
 471.283287915 907.928744446 488 895.568452003 488 879 c 2
 488 868 l 2
 488 856.887560056 479.96566777 847.229447679 470.73362819 844.226254081 c 2
 387.73362819 817.226254081 l 2
 387.20817332 817.055322979 386.461537684 816.845974261 386.063390626 816.746437496 c 0
 375.395488391 814.079461938 362.541208147 810 344 810 c 0
 325.458791853 810 312.604511609 814.079461938 301.936609374 816.746437496 c 0
 301.400549446 816.880452479 300.656642187 817.099298657 300.26637181 817.226254081 c 2
 217.26637181 844.226254081 l 2
 206.698998859 847.663833234 200 858.291770162 200 868 c 2
 200 879 l 2
 200 895.747689809 216.887331178 907.873832554 232.659083413 902.797866318 c 2
518 100 m 2
 518 90 l 2
 518 74.8674621445 503.729904333 65 493 65 c 2
 326 65 l 2
 188.430407404 65 141 113.745595367 141 219 c 2
 141 499 l 2
 141 606.355899644 190.352933727 655 326 655 c 2
 493 655 l 2
 508.132537856 655 518 640.729904333 518 630 c 2
 518 620 l 2
 518 604.867462144 503.729904333 595 493 595 c 2
 326 595 l 2
 215.052267936 595 201 574.897319555 201 499 c 2
 201 219 l 2
 201 144.935422821 212.991226278 125 326 125 c 2
 493 125 l 2
 508.132537856 125 518 110.729904333 518 100 c 2
EndSplineSet
Substitution2: "'ss12' Style Set 12 in Latin lookup 25 subtable" Ccaron.v
Substitution2: "'ss01' Style Set 1 in Latin lookup 21 subtable" Ccaron.v
Substitution2: "'vert' Vertical Alternates (obs) in Latin lookup 20 subtable" Ccaron.v
Position2: "'ss11' Style Set 11 in Latin lookup 1 per glyph data 78" dx=326 dy=0 dh=652 dv=0
EndChar

StartChar: D
Encoding: 68 68 19
Width: 746
Flags: HMW
HStem: 90 10<188 420 188 420> 620 10<188 420 188 188>
VStem: 178 10<100 620 100 630> 570 10<226 491>
LayerCount: 2
Fore
SplineSet
420 595 m 2
 213 595 l 1
 213 125 l 1
 420 125 l 2
 536.461363158 125 545 162.650195704 545 226 c 2
 545 491 l 2
 545 554.49073511 533.807528988 595 420 595 c 2
153 90 m 2
 153 630 l 2
 153 645.132537856 167.270095667 655 178 655 c 2
 420 655 l 2
 568.637719433 655 605 576.96532482 605 491 c 2
 605 226 l 2
 605 139.948502615 570.080614504 65 420 65 c 2
 178 65 l 2
 162.867462144 65 153 79.2700956673 153 90 c 2
EndSplineSet
Substitution2: "'ss12' Style Set 12 in Latin lookup 25 subtable" D.v
Substitution2: "'ss01' Style Set 1 in Latin lookup 21 subtable" D.v
Substitution2: "'vert' Vertical Alternates (obs) in Latin lookup 20 subtable" D.v
Position2: "'ss11' Style Set 11 in Latin lookup 1 per glyph data 36" dx=267 dy=0 dh=534 dv=0
EndChar

StartChar: Dcaron
Encoding: 270 270 20
Width: 746
Flags: HMW
HStem: 90 10<188 420 188 420> 620 10<188 420 188 188> 841 10<336 340>
VStem: 178 10<100 620 100 630> 570 10<226 491>
LayerCount: 2
Fore
SplineSet
260.659083413 902.797866318 m 2
 347.422126059 874.874128455 l 2
 357.526365878 871.842856509 363.14638981 870 372 870 c 0
 380.85361019 870 386.473634122 871.842856509 396.577873941 874.874128455 c 2
 483.340916587 902.797866318 l 2
 499.283287915 907.928744446 516 895.568452003 516 879 c 2
 516 868 l 2
 516 856.887560056 507.96566777 847.229447679 498.73362819 844.226254081 c 2
 415.73362819 817.226254081 l 2
 415.20817332 817.055322979 414.461537684 816.845974261 414.063390626 816.746437496 c 0
 403.395488391 814.079461938 390.541208147 810 372 810 c 0
 353.458791853 810 340.604511609 814.079461938 329.936609374 816.746437496 c 0
 329.400549446 816.880452479 328.656642187 817.099298657 328.26637181 817.226254081 c 2
 245.26637181 844.226254081 l 2
 234.698998859 847.663833234 228 858.291770162 228 868 c 2
 228 879 l 2
 228 895.747689809 244.887331178 907.873832554 260.659083413 902.797866318 c 2
420 595 m 2
 213 595 l 1
 213 125 l 1
 420 125 l 2
 536.461363158 125 545 162.650195704 545 226 c 2
 545 491 l 2
 545 554.49073511 533.807528988 595 420 595 c 2
153 90 m 2
 153 630 l 2
 153 645.132537856 167.270095667 655 178 655 c 2
 420 655 l 2
 568.637719433 655 605 576.96532482 605 491 c 2
 605 226 l 2
 605 139.948502615 570.080614504 65 420 65 c 2
 178 65 l 2
 162.867462144 65 153 79.2700956673 153 90 c 2
EndSplineSet
Substitution2: "'ss12' Style Set 12 in Latin lookup 25 subtable" Dcaron.v
Substitution2: "'ss01' Style Set 1 in Latin lookup 21 subtable" Dcaron.v
Substitution2: "'vert' Vertical Alternates (obs) in Latin lookup 20 subtable" Dcaron.v
Position2: "'ss11' Style Set 11 in Latin lookup 1 per glyph data 36" dx=267 dy=0 dh=534 dv=0
EndChar

StartChar: E
Encoding: 69 69 21
Width: 654
Flags: HMW
HStem: 90 10<188 515 188 515> 359 10<188 434 188 434> 620 10<188 515 188 188>
VStem: 178 10<100 359 369 620>
LayerCount: 2
Fore
SplineSet
540 100 m 2
 540 90 l 2
 540 74.8674621445 525.729904333 65 515 65 c 2
 178 65 l 2
 162.867462144 65 153 79.2700956673 153 90 c 2
 153 630 l 2
 153 645.132537856 167.270095667 655 178 655 c 2
 515 655 l 2
 530.132537856 655 540 640.729904333 540 630 c 2
 540 620 l 2
 540 604.867462144 525.729904333 595 515 595 c 2
 213 595 l 1
 213 394 l 1
 434 394 l 2
 449.132537856 394 459 379.729904333 459 369 c 2
 459 359 l 2
 459 343.867462144 444.729904333 334 434 334 c 2
 213 334 l 1
 213 125 l 1
 515 125 l 2
 530.132537856 125 540 110.729904333 540 100 c 2
EndSplineSet
Substitution2: "'ss12' Style Set 12 in Latin lookup 25 subtable" E.v
Substitution2: "'ss01' Style Set 1 in Latin lookup 21 subtable" E.v
Substitution2: "'vert' Vertical Alternates (obs) in Latin lookup 20 subtable" E.v
Substitution2: "'ss03' Style Set 3 in Latin lookup 11 subtable" E.salt
Position2: "'ss11' Style Set 11 in Latin lookup 1 per glyph data 68" dx=313 dy=0 dh=626 dv=0
EndChar

StartChar: Egrave
Encoding: 200 200 22
Width: 654
Flags: HMW
HStem: 90 10<188 515 188 515> 359 10<188 434 188 434> 620 10<188 515 188 188>
VStem: 178 10<100 359 369 620>
LayerCount: 2
Fore
SplineSet
182 867 m 2
 182 877 l 2
 182 892.517205635 196.60445275 903.501061005 210.113641869 901.80534689 c 2
 449.113641869 871.80534689 l 2
 462.20470184 870.162117605 471 857.891975328 471 847 c 2
 471 837 l 2
 471 821.482794365 456.39554725 810.498938995 442.886358131 812.19465311 c 2
 203.886358131 842.19465311 l 2
 190.79529816 843.837882395 182 856.108024672 182 867 c 2
540 100 m 2
 540 90 l 2
 540 74.8674621445 525.729904333 65 515 65 c 2
 178 65 l 2
 162.867462144 65 153 79.2700956673 153 90 c 2
 153 630 l 2
 153 645.132537856 167.270095667 655 178 655 c 2
 515 655 l 2
 530.132537856 655 540 640.729904333 540 630 c 2
 540 620 l 2
 540 604.867462144 525.729904333 595 515 595 c 2
 213 595 l 1
 213 394 l 1
 434 394 l 2
 449.132537856 394 459 379.729904333 459 369 c 2
 459 359 l 2
 459 343.867462144 444.729904333 334 434 334 c 2
 213 334 l 1
 213 125 l 1
 515 125 l 2
 530.132537856 125 540 110.729904333 540 100 c 2
EndSplineSet
Substitution2: "'ss12' Style Set 12 in Latin lookup 25 subtable" Egrave.v
Substitution2: "'ss01' Style Set 1 in Latin lookup 21 subtable" Egrave.v
Substitution2: "'vert' Vertical Alternates (obs) in Latin lookup 20 subtable" Egrave.v
Substitution2: "'ss03' Style Set 3 in Latin lookup 11 subtable" Egrave.salt
Position2: "'ss11' Style Set 11 in Latin lookup 1 per glyph data 68" dx=313 dy=0 dh=626 dv=0
EndChar

StartChar: Eacute
Encoding: 201 201 23
Width: 654
Flags: HMW
HStem: 90 10<188 515 188 515> 359 10<188 434 188 434> 620 10<188 515 188 188>
VStem: 178 10<100 359 369 620>
LayerCount: 2
Fore
SplineSet
233.886358131 871.80534689 m 2
 472.886358131 901.80534689 l 2
 488.282744872 903.737947736 501 890.615198751 501 877 c 2
 501 867 l 2
 501 853.806211551 489.920810922 843.551201527 479.113641869 842.19465311 c 2
 240.113641869 812.19465311 l 2
 224.717255128 810.262052264 212 823.384801249 212 837 c 2
 212 847 l 2
 212 860.193788449 223.079189078 870.448798473 233.886358131 871.80534689 c 2
540 100 m 2
 540 90 l 2
 540 74.8674621445 525.729904333 65 515 65 c 2
 178 65 l 2
 162.867462144 65 153 79.2700956673 153 90 c 2
 153 630 l 2
 153 645.132537856 167.270095667 655 178 655 c 2
 515 655 l 2
 530.132537856 655 540 640.729904333 540 630 c 2
 540 620 l 2
 540 604.867462144 525.729904333 595 515 595 c 2
 213 595 l 1
 213 394 l 1
 434 394 l 2
 449.132537856 394 459 379.729904333 459 369 c 2
 459 359 l 2
 459 343.867462144 444.729904333 334 434 334 c 2
 213 334 l 1
 213 125 l 1
 515 125 l 2
 530.132537856 125 540 110.729904333 540 100 c 2
EndSplineSet
Substitution2: "'ss12' Style Set 12 in Latin lookup 25 subtable" Eacute.v
Substitution2: "'ss01' Style Set 1 in Latin lookup 21 subtable" Eacute.v
Substitution2: "'vert' Vertical Alternates (obs) in Latin lookup 20 subtable" Eacute.v
Substitution2: "'ss03' Style Set 3 in Latin lookup 11 subtable" Eacute.salt
Position2: "'ss11' Style Set 11 in Latin lookup 1 per glyph data 68" dx=313 dy=0 dh=626 dv=0
EndChar

StartChar: Ecircumflex
Encoding: 202 202 24
Width: 654
Flags: HMW
HStem: 90 10<188 515 188 515> 359 10<188 434 188 434> 620 10<188 515 188 188> 878 10<300 304>
VStem: 178 10<100 359 369 620>
LayerCount: 2
Fore
SplineSet
447.340916587 826.202133682 m 2
 360.577873941 854.125871545 l 2
 350.473634122 857.157143491 344.85361019 859 336 859 c 0
 327.14638981 859 321.526365878 857.157143491 311.422126059 854.125871545 c 2
 224.659083413 826.202133682 l 2
 208.716712085 821.071255554 192 833.431547997 192 850 c 2
 192 861 l 2
 192 872.112439944 200.03433223 881.770552321 209.26637181 884.773745919 c 2
 292.26637181 911.773745919 l 2
 292.79182668 911.944677021 293.538462316 912.154025739 293.936609374 912.253562504 c 0
 304.604511609 914.920538062 317.458791853 919 336 919 c 0
 354.541208147 919 367.395488391 914.920538062 378.063390626 912.253562504 c 0
 378.599450554 912.119547521 379.343357813 911.900701343 379.73362819 911.773745919 c 2
 462.73362819 884.773745919 l 2
 473.301001141 881.336166766 480 870.708229838 480 861 c 2
 480 850 l 2
 480 833.252310191 463.112668822 821.126167446 447.340916587 826.202133682 c 2
540 100 m 2
 540 90 l 2
 540 74.8674621445 525.729904333 65 515 65 c 2
 178 65 l 2
 162.867462144 65 153 79.2700956673 153 90 c 2
 153 630 l 2
 153 645.132537856 167.270095667 655 178 655 c 2
 515 655 l 2
 530.132537856 655 540 640.729904333 540 630 c 2
 540 620 l 2
 540 604.867462144 525.729904333 595 515 595 c 2
 213 595 l 1
 213 394 l 1
 434 394 l 2
 449.132537856 394 459 379.729904333 459 369 c 2
 459 359 l 2
 459 343.867462144 444.729904333 334 434 334 c 2
 213 334 l 1
 213 125 l 1
 515 125 l 2
 530.132537856 125 540 110.729904333 540 100 c 2
EndSplineSet
Substitution2: "'ss12' Style Set 12 in Latin lookup 25 subtable" Ecircumflex.v
Substitution2: "'ss01' Style Set 1 in Latin lookup 21 subtable" Ecircumflex.v
Substitution2: "'vert' Vertical Alternates (obs) in Latin lookup 20 subtable" Ecircumflex.v
Substitution2: "'ss03' Style Set 3 in Latin lookup 11 subtable" Ecircumflex.salt
Position2: "'ss11' Style Set 11 in Latin lookup 1 per glyph data 68" dx=313 dy=0 dh=626 dv=0
EndChar

StartChar: Edieresis
Encoding: 203 203 25
Width: 654
Flags: HMW
HStem: 90 10<188 515 188 515> 359 10<188 434 188 434> 620 10<188 515 188 188> 830 47<211 221 211 221 469 479>
VStem: 178 10<100 359 369 620> 211 10<830 877> 469 10<830 877>
LayerCount: 2
Fore
SplineSet
479 805 m 2
 469 805 l 2
 453.867462144 805 444 819.270095667 444 830 c 2
 444 877 l 2
 444 892.132537856 458.270095667 902 469 902 c 2
 479 902 l 2
 494.132537856 902 504 887.729904333 504 877 c 2
 504 830 l 2
 504 814.867462144 489.729904333 805 479 805 c 2
221 805 m 2
 211 805 l 2
 195.867462144 805 186 819.270095667 186 830 c 2
 186 877 l 2
 186 892.132537856 200.270095667 902 211 902 c 2
 221 902 l 2
 236.132537856 902 246 887.729904333 246 877 c 2
 246 830 l 2
 246 814.867462144 231.729904333 805 221 805 c 2
540 100 m 2
 540 90 l 2
 540 74.8674621445 525.729904333 65 515 65 c 2
 178 65 l 2
 162.867462144 65 153 79.2700956673 153 90 c 2
 153 630 l 2
 153 645.132537856 167.270095667 655 178 655 c 2
 515 655 l 2
 530.132537856 655 540 640.729904333 540 630 c 2
 540 620 l 2
 540 604.867462144 525.729904333 595 515 595 c 2
 213 595 l 1
 213 394 l 1
 434 394 l 2
 449.132537856 394 459 379.729904333 459 369 c 2
 459 359 l 2
 459 343.867462144 444.729904333 334 434 334 c 2
 213 334 l 1
 213 125 l 1
 515 125 l 2
 530.132537856 125 540 110.729904333 540 100 c 2
EndSplineSet
Substitution2: "'ss12' Style Set 12 in Latin lookup 25 subtable" Edieresis.v
Substitution2: "'ss01' Style Set 1 in Latin lookup 21 subtable" Edieresis.v
Substitution2: "'vert' Vertical Alternates (obs) in Latin lookup 20 subtable" Edieresis.v
Substitution2: "'ss03' Style Set 3 in Latin lookup 11 subtable" Edieresis.salt
Position2: "'ss11' Style Set 11 in Latin lookup 1 per glyph data 68" dx=313 dy=0 dh=626 dv=0
EndChar

StartChar: Emacron
Encoding: 274 274 26
Width: 654
Flags: HMW
HStem: 90 10<188 515 188 515> 359 10<188 434 188 434> 620 10<188 515 188 188> 837 10<217 456 217 456>
VStem: 178 10<100 359 369 620>
LayerCount: 2
Fore
SplineSet
217 872 m 2
 456 872 l 2
 471.132537856 872 481 857.729904333 481 847 c 2
 481 837 l 2
 481 821.867462144 466.729904333 812 456 812 c 2
 217 812 l 2
 201.867462144 812 192 826.270095667 192 837 c 2
 192 847 l 2
 192 862.132537856 206.270095667 872 217 872 c 2
540 100 m 2
 540 90 l 2
 540 74.8674621445 525.729904333 65 515 65 c 2
 178 65 l 2
 162.867462144 65 153 79.2700956673 153 90 c 2
 153 630 l 2
 153 645.132537856 167.270095667 655 178 655 c 2
 515 655 l 2
 530.132537856 655 540 640.729904333 540 630 c 2
 540 620 l 2
 540 604.867462144 525.729904333 595 515 595 c 2
 213 595 l 1
 213 394 l 1
 434 394 l 2
 449.132537856 394 459 379.729904333 459 369 c 2
 459 359 l 2
 459 343.867462144 444.729904333 334 434 334 c 2
 213 334 l 1
 213 125 l 1
 515 125 l 2
 530.132537856 125 540 110.729904333 540 100 c 2
EndSplineSet
Substitution2: "'ss12' Style Set 12 in Latin lookup 25 subtable" Emacron.v
Substitution2: "'ss01' Style Set 1 in Latin lookup 21 subtable" Emacron.v
Substitution2: "'vert' Vertical Alternates (obs) in Latin lookup 20 subtable" Emacron.v
Substitution2: "'ss03' Style Set 3 in Latin lookup 11 subtable" Emacron.salt
Position2: "'ss11' Style Set 11 in Latin lookup 1 per glyph data 68" dx=313 dy=0 dh=626 dv=0
EndChar

StartChar: Ebreve
Encoding: 276 276 27
Width: 654
Flags: HMW
HStem: 90 10<188 515 188 515> 359 10<188 434 188 434> 620 10<188 515 188 188> 818 10<292 400 292 408>
VStem: 178 10<100 359 369 620> 206 10<898 907 880 907> 481 10<898 907 879 907>
LayerCount: 2
Fore
SplineSet
481 932 m 2
 491 932 l 2
 506.132537856 932 516 917.729904333 516 907 c 2
 516 898 l 2
 516 843.091100103 475.602341268 793 346 793 c 0
 215.418217009 793 181 844.869876646 181 898 c 2
 181 907 l 2
 181 922.132537856 195.270095667 932 206 932 c 2
 216 932 l 2
 231.132537856 932 241 917.729904333 241 907 c 2
 241 898 l 2
 241 880.279956546 242.266659849 853 346 853 c 0
 450.768066385 853 456 882.136424644 456 898 c 2
 456 907 l 2
 456 922.132537856 470.270095667 932 481 932 c 2
540 100 m 2
 540 90 l 2
 540 74.8674621445 525.729904333 65 515 65 c 2
 178 65 l 2
 162.867462144 65 153 79.2700956673 153 90 c 2
 153 630 l 2
 153 645.132537856 167.270095667 655 178 655 c 2
 515 655 l 2
 530.132537856 655 540 640.729904333 540 630 c 2
 540 620 l 2
 540 604.867462144 525.729904333 595 515 595 c 2
 213 595 l 1
 213 394 l 1
 434 394 l 2
 449.132537856 394 459 379.729904333 459 369 c 2
 459 359 l 2
 459 343.867462144 444.729904333 334 434 334 c 2
 213 334 l 1
 213 125 l 1
 515 125 l 2
 530.132537856 125 540 110.729904333 540 100 c 2
EndSplineSet
Substitution2: "'ss12' Style Set 12 in Latin lookup 25 subtable" Ebreve.v
Substitution2: "'ss01' Style Set 1 in Latin lookup 21 subtable" Ebreve.v
Substitution2: "'vert' Vertical Alternates (obs) in Latin lookup 20 subtable" Ebreve.v
Substitution2: "'ss03' Style Set 3 in Latin lookup 11 subtable" Ebreve.salt
Position2: "'ss11' Style Set 11 in Latin lookup 1 per glyph data 68" dx=313 dy=0 dh=626 dv=0
EndChar

StartChar: Edotaccent
Encoding: 278 278 28
Width: 654
Flags: HMW
HStem: 90 10<188 515 188 515> 359 10<188 434 188 434> 620 10<188 515 188 188> 830 59<321 331 321 331>
VStem: 178 10<100 359 369 620> 321 10<830 889>
LayerCount: 2
Fore
SplineSet
331 805 m 2
 321 805 l 2
 305.867462144 805 296 819.270095667 296 830 c 2
 296 889 l 2
 296 904.132537856 310.270095667 914 321 914 c 2
 331 914 l 2
 346.132537856 914 356 899.729904333 356 889 c 2
 356 830 l 2
 356 814.867462144 341.729904333 805 331 805 c 2
540 100 m 2
 540 90 l 2
 540 74.8674621445 525.729904333 65 515 65 c 2
 178 65 l 2
 162.867462144 65 153 79.2700956673 153 90 c 2
 153 630 l 2
 153 645.132537856 167.270095667 655 178 655 c 2
 515 655 l 2
 530.132537856 655 540 640.729904333 540 630 c 2
 540 620 l 2
 540 604.867462144 525.729904333 595 515 595 c 2
 213 595 l 1
 213 394 l 1
 434 394 l 2
 449.132537856 394 459 379.729904333 459 369 c 2
 459 359 l 2
 459 343.867462144 444.729904333 334 434 334 c 2
 213 334 l 1
 213 125 l 1
 515 125 l 2
 530.132537856 125 540 110.729904333 540 100 c 2
EndSplineSet
Substitution2: "'ss12' Style Set 12 in Latin lookup 25 subtable" Edotaccent.v
Substitution2: "'ss01' Style Set 1 in Latin lookup 21 subtable" Edotaccent.v
Substitution2: "'vert' Vertical Alternates (obs) in Latin lookup 20 subtable" Edotaccent.v
Substitution2: "'ss03' Style Set 3 in Latin lookup 11 subtable" Edotaccent.salt
Position2: "'ss11' Style Set 11 in Latin lookup 1 per glyph data 68" dx=313 dy=0 dh=626 dv=0
EndChar

StartChar: Eogonek
Encoding: 280 280 29
Width: 654
Flags: HMW
HStem: -116 10<466.5 515 491 515> 90 10<188 476 495 495 495 515> 359 10<188 434 188 434> 620 10<188 515 188 188>
VStem: 178 10<100 359 369 620> 440 10<-43 -41>
LayerCount: 2
Fore
SplineSet
540 -106 m 2
 540 -116 l 2
 540 -131.132537856 525.729904333 -141 515 -141 c 2
 491 -141 l 2
 483.968484421 -141 477.312841724 -140.568504577 470.934260673 -139.587834386 c 0
 416.556505605 -131.227566949 407.973560784 -82.9278838355 415.284218488 -37.2362731865 c 2
 427.273475684 45.6894224227 l 2
 428.366880309 52.7965524848 429.691871895 59.744301659 430.969900436 65 c 1
 178 65 l 2
 162.867462144 65 153 79.2700956673 153 90 c 2
 153 630 l 2
 153 645.132537856 167.270095667 655 178 655 c 2
 515 655 l 2
 530.132537856 655 540 640.729904333 540 630 c 2
 540 620 l 2
 540 604.867462144 525.729904333 595 515 595 c 2
 213 595 l 1
 213 394 l 1
 434 394 l 2
 449.132537856 394 459 379.729904333 459 369 c 2
 459 359 l 2
 459 343.867462144 444.729904333 334 434 334 c 2
 213 334 l 1
 213 125 l 1
 515 125 l 2
 530.132537856 125 540 110.729904333 540 100 c 2
 540 90 l 2
 540 74.8674621445 525.729904333 65 515 65 c 2
 501.646824936 65 l 1
 486.412646269 55.995859601 490.098437832 62.7476596778 486.760091023 38.5446453096 c 2
 474.782302844 -46.2980209519 l 2
 473.951601656 -52.9436304598 473.434139427 -59.5031173712 473.409059131 -64.3449156415 c 0
 473.319289906 -81.6750332497 470.445862776 -81 491 -81 c 2
 515 -81 l 2
 530.132537856 -81 540 -95.2700956673 540 -106 c 2
EndSplineSet
Substitution2: "'ss12' Style Set 12 in Latin lookup 25 subtable" Eogonek.v
Substitution2: "'ss01' Style Set 1 in Latin lookup 21 subtable" Eogonek.v
Substitution2: "'vert' Vertical Alternates (obs) in Latin lookup 20 subtable" Eogonek.v
Substitution2: "'ss03' Style Set 3 in Latin lookup 11 subtable" Eogonek.salt
Position2: "'ss11' Style Set 11 in Latin lookup 1 per glyph data 68" dx=313 dy=0 dh=626 dv=0
EndChar

StartChar: Ecaron
Encoding: 282 282 30
Width: 654
Flags: HMW
HStem: 90 10<188 515 188 515> 359 10<188 434 188 434> 620 10<188 515 188 188> 841 10<307 311>
VStem: 178 10<100 359 369 620>
LayerCount: 2
Fore
SplineSet
231.659083413 902.797866318 m 2
 318.422126059 874.874128455 l 2
 328.526365878 871.842856509 334.14638981 870 343 870 c 0
 351.85361019 870 357.473634122 871.842856509 367.577873941 874.874128455 c 2
 454.340916587 902.797866318 l 2
 470.283287915 907.928744446 487 895.568452003 487 879 c 2
 487 868 l 2
 487 856.887560056 478.96566777 847.229447679 469.73362819 844.226254081 c 2
 386.73362819 817.226254081 l 2
 386.20817332 817.055322979 385.461537684 816.845974261 385.063390626 816.746437496 c 0
 374.395488391 814.079461938 361.541208147 810 343 810 c 0
 324.458791853 810 311.604511609 814.079461938 300.936609374 816.746437496 c 0
 300.400549446 816.880452479 299.656642187 817.099298657 299.26637181 817.226254081 c 2
 216.26637181 844.226254081 l 2
 205.698998859 847.663833234 199 858.291770162 199 868 c 2
 199 879 l 2
 199 895.747689809 215.887331178 907.873832554 231.659083413 902.797866318 c 2
540 100 m 2
 540 90 l 2
 540 74.8674621445 525.729904333 65 515 65 c 2
 178 65 l 2
 162.867462144 65 153 79.2700956673 153 90 c 2
 153 630 l 2
 153 645.132537856 167.270095667 655 178 655 c 2
 515 655 l 2
 530.132537856 655 540 640.729904333 540 630 c 2
 540 620 l 2
 540 604.867462144 525.729904333 595 515 595 c 2
 213 595 l 1
 213 394 l 1
 434 394 l 2
 449.132537856 394 459 379.729904333 459 369 c 2
 459 359 l 2
 459 343.867462144 444.729904333 334 434 334 c 2
 213 334 l 1
 213 125 l 1
 515 125 l 2
 530.132537856 125 540 110.729904333 540 100 c 2
EndSplineSet
Substitution2: "'ss12' Style Set 12 in Latin lookup 25 subtable" Ecaron.v
Substitution2: "'ss01' Style Set 1 in Latin lookup 21 subtable" Ecaron.v
Substitution2: "'vert' Vertical Alternates (obs) in Latin lookup 20 subtable" Ecaron.v
Substitution2: "'ss03' Style Set 3 in Latin lookup 11 subtable" Ecaron.salt
Position2: "'ss11' Style Set 11 in Latin lookup 1 per glyph data 68" dx=313 dy=0 dh=626 dv=0
EndChar

StartChar: F
Encoding: 70 70 31
Width: 618
Flags: HMW
HStem: 324 10<188 416 188 416> 620 10<188 497 188 188>
VStem: 178 10<90 324 334 620>
LayerCount: 2
Fore
SplineSet
153 90 m 2
 153 630 l 2
 153 645.132537856 167.270095667 655 178 655 c 2
 497 655 l 2
 512.132537856 655 522 640.729904333 522 630 c 2
 522 620 l 2
 522 604.867462144 507.729904333 595 497 595 c 2
 213 595 l 1
 213 359 l 1
 416 359 l 2
 431.132537856 359 441 344.729904333 441 334 c 2
 441 324 l 2
 441 308.867462144 426.729904333 299 416 299 c 2
 213 299 l 1
 213 90 l 2
 213 74.8674621445 198.729904333 65 188 65 c 2
 178 65 l 2
 162.867462144 65 153 79.2700956673 153 90 c 2
EndSplineSet
Substitution2: "'ss12' Style Set 12 in Latin lookup 25 subtable" F.v
Substitution2: "'ss01' Style Set 1 in Latin lookup 21 subtable" F.v
Substitution2: "'vert' Vertical Alternates (obs) in Latin lookup 20 subtable" F.v
Position2: "'ss11' Style Set 11 in Latin lookup 1 per glyph data 81" dx=331 dy=0 dh=662 dv=0
EndChar

StartChar: G
Encoding: 71 71 32
Width: 708
Flags: HMW
HStem: 90 10<273.5 536 347 536 347 546> 620 10<268 500 327 500>
VStem: 167 10<219 499> 536 10<100 291 90 291>
LayerCount: 2
Fore
SplineSet
347 65 m 2
 194.435677765 65 142 111.767904485 142 219 c 2
 142 499 l 2
 142 606.355899644 191.352933727 655 327 655 c 2
 500 655 l 2
 515.132537856 655 525 640.729904333 525 630 c 2
 525 620 l 2
 525 604.867462144 510.729904333 595 500 595 c 2
 327 595 l 2
 216.052267936 595 202 574.897319555 202 499 c 2
 202 219 l 2
 202 147.28353834 216.747783795 125 347 125 c 2
 511 125 l 1
 511 291 l 2
 511 306.132537856 525.270095667 316 536 316 c 2
 546 316 l 2
 561.132537856 316 571 301.729904333 571 291 c 2
 571 90 l 2
 571 74.8674621445 556.729904333 65 546 65 c 2
 347 65 l 2
EndSplineSet
Substitution2: "'ss12' Style Set 12 in Latin lookup 25 subtable" G.v
Substitution2: "'ss01' Style Set 1 in Latin lookup 21 subtable" G.v
Substitution2: "'vert' Vertical Alternates (obs) in Latin lookup 20 subtable" G.v
Position2: "'ss11' Style Set 11 in Latin lookup 1 per glyph data 55" dx=286 dy=0 dh=572 dv=0
EndChar

StartChar: Gcircumflex
Encoding: 284 284 33
Width: 708
Flags: HMW
HStem: 90 10<273.5 536 347 536 347 546> 620 10<268 500 327 500> 878 10<344 348>
VStem: 167 10<219 499> 536 10<100 291 90 291>
LayerCount: 2
Fore
SplineSet
491.340916587 826.202133682 m 2
 404.577873941 854.125871545 l 2
 394.473634122 857.157143491 388.85361019 859 380 859 c 0
 371.14638981 859 365.526365878 857.157143491 355.422126059 854.125871545 c 2
 268.659083413 826.202133682 l 2
 252.716712085 821.071255554 236 833.431547997 236 850 c 2
 236 861 l 2
 236 872.112439944 244.03433223 881.770552321 253.26637181 884.773745919 c 2
 336.26637181 911.773745919 l 2
 336.79182668 911.944677021 337.538462316 912.154025739 337.936609374 912.253562504 c 0
 348.604511609 914.920538062 361.458791853 919 380 919 c 0
 398.541208147 919 411.395488391 914.920538062 422.063390626 912.253562504 c 0
 422.599450554 912.119547521 423.343357813 911.900701343 423.73362819 911.773745919 c 2
 506.73362819 884.773745919 l 2
 517.301001141 881.336166766 524 870.708229838 524 861 c 2
 524 850 l 2
 524 833.252310191 507.112668822 821.126167446 491.340916587 826.202133682 c 2
347 65 m 2
 194.435677765 65 142 111.767904485 142 219 c 2
 142 499 l 2
 142 606.355899644 191.352933727 655 327 655 c 2
 500 655 l 2
 515.132537856 655 525 640.729904333 525 630 c 2
 525 620 l 2
 525 604.867462144 510.729904333 595 500 595 c 2
 327 595 l 2
 216.052267936 595 202 574.897319555 202 499 c 2
 202 219 l 2
 202 147.28353834 216.747783795 125 347 125 c 2
 511 125 l 1
 511 291 l 2
 511 306.132537856 525.270095667 316 536 316 c 2
 546 316 l 2
 561.132537856 316 571 301.729904333 571 291 c 2
 571 90 l 2
 571 74.8674621445 556.729904333 65 546 65 c 2
 347 65 l 2
EndSplineSet
Substitution2: "'ss12' Style Set 12 in Latin lookup 25 subtable" Gcircumflex.v
Substitution2: "'ss01' Style Set 1 in Latin lookup 21 subtable" Gcircumflex.v
Substitution2: "'vert' Vertical Alternates (obs) in Latin lookup 20 subtable" Gcircumflex.v
Position2: "'ss11' Style Set 11 in Latin lookup 1 per glyph data 55" dx=286 dy=0 dh=572 dv=0
EndChar

StartChar: Gbreve
Encoding: 286 286 34
Width: 708
Flags: HMW
HStem: 90 10<273.5 536 347 536 347 546> 620 10<268 500 327 500> 818 10<319 427 319 435>
VStem: 167 10<219 499> 233 10<898 907 880 907> 508 10<898 907 879 907> 536 10<100 291 90 291>
LayerCount: 2
Fore
SplineSet
508 932 m 2
 518 932 l 2
 533.132537856 932 543 917.729904333 543 907 c 2
 543 898 l 2
 543 843.091100103 502.602341268 793 373 793 c 0
 242.418217009 793 208 844.869876646 208 898 c 2
 208 907 l 2
 208 922.132537856 222.270095667 932 233 932 c 2
 243 932 l 2
 258.132537856 932 268 917.729904333 268 907 c 2
 268 898 l 2
 268 880.279956546 269.266659849 853 373 853 c 0
 477.768066385 853 483 882.136424644 483 898 c 2
 483 907 l 2
 483 922.132537856 497.270095667 932 508 932 c 2
347 65 m 2
 194.435677765 65 142 111.767904485 142 219 c 2
 142 499 l 2
 142 606.355899644 191.352933727 655 327 655 c 2
 500 655 l 2
 515.132537856 655 525 640.729904333 525 630 c 2
 525 620 l 2
 525 604.867462144 510.729904333 595 500 595 c 2
 327 595 l 2
 216.052267936 595 202 574.897319555 202 499 c 2
 202 219 l 2
 202 147.28353834 216.747783795 125 347 125 c 2
 511 125 l 1
 511 291 l 2
 511 306.132537856 525.270095667 316 536 316 c 2
 546 316 l 2
 561.132537856 316 571 301.729904333 571 291 c 2
 571 90 l 2
 571 74.8674621445 556.729904333 65 546 65 c 2
 347 65 l 2
EndSplineSet
Substitution2: "'ss12' Style Set 12 in Latin lookup 25 subtable" Gbreve.v
Substitution2: "'ss01' Style Set 1 in Latin lookup 21 subtable" Gbreve.v
Substitution2: "'vert' Vertical Alternates (obs) in Latin lookup 20 subtable" Gbreve.v
Position2: "'ss11' Style Set 11 in Latin lookup 1 per glyph data 55" dx=286 dy=0 dh=572 dv=0
EndChar

StartChar: Gdotaccent
Encoding: 288 288 35
Width: 708
Flags: HMW
HStem: 90 10<273.5 536 347 536 347 546> 620 10<268 500 327 500> 830 59<370 380 370 380>
VStem: 167 10<219 499> 370 10<830 889> 536 10<100 291 90 291>
LayerCount: 2
Fore
SplineSet
380 805 m 2
 370 805 l 2
 354.867462144 805 345 819.270095667 345 830 c 2
 345 889 l 2
 345 904.132537856 359.270095667 914 370 914 c 2
 380 914 l 2
 395.132537856 914 405 899.729904333 405 889 c 2
 405 830 l 2
 405 814.867462144 390.729904333 805 380 805 c 2
347 65 m 2
 194.435677765 65 142 111.767904485 142 219 c 2
 142 499 l 2
 142 606.355899644 191.352933727 655 327 655 c 2
 500 655 l 2
 515.132537856 655 525 640.729904333 525 630 c 2
 525 620 l 2
 525 604.867462144 510.729904333 595 500 595 c 2
 327 595 l 2
 216.052267936 595 202 574.897319555 202 499 c 2
 202 219 l 2
 202 147.28353834 216.747783795 125 347 125 c 2
 511 125 l 1
 511 291 l 2
 511 306.132537856 525.270095667 316 536 316 c 2
 546 316 l 2
 561.132537856 316 571 301.729904333 571 291 c 2
 571 90 l 2
 571 74.8674621445 556.729904333 65 546 65 c 2
 347 65 l 2
EndSplineSet
Substitution2: "'ss12' Style Set 12 in Latin lookup 25 subtable" Gdotaccent.v
Substitution2: "'ss01' Style Set 1 in Latin lookup 21 subtable" Gdotaccent.v
Substitution2: "'vert' Vertical Alternates (obs) in Latin lookup 20 subtable" Gdotaccent.v
Position2: "'ss11' Style Set 11 in Latin lookup 1 per glyph data 55" dx=286 dy=0 dh=572 dv=0
EndChar

StartChar: Gcommaaccent
Encoding: 290 290 36
Width: 708
Flags: HMW
HStem: -315 10<315 350 315 350> -142 10<315 423 315 433> 90 10<273.5 536 347 536 347 546> 620 10<268 500 327 500>
VStem: 167 10<219 499> 423 10<-229 -142 -142 -142> 536 10<100 291 90 291>
LayerCount: 2
Fore
SplineSet
458 -132 m 2
 458 -229 l 2
 458 -301.694361765 415.329866624 -340 350 -340 c 2
 315 -340 l 2
 299.867462144 -340 290 -325.729904333 290 -315 c 2
 290 -305 l 2
 290 -289.867462144 304.270095667 -280 315 -280 c 2
 350 -280 l 2
 386.571730604 -280 398 -271.539980137 398 -229 c 2
 398 -167 l 1
 315 -167 l 2
 299.867462144 -167 290 -152.729904333 290 -142 c 2
 290 -132 l 2
 290 -116.867462144 304.270095667 -107 315 -107 c 2
 433 -107 l 2
 448.132537856 -107 458 -121.270095667 458 -132 c 2
347 65 m 2
 194.435677765 65 142 111.767904485 142 219 c 2
 142 499 l 2
 142 606.355899644 191.352933727 655 327 655 c 2
 500 655 l 2
 515.132537856 655 525 640.729904333 525 630 c 2
 525 620 l 2
 525 604.867462144 510.729904333 595 500 595 c 2
 327 595 l 2
 216.052267936 595 202 574.897319555 202 499 c 2
 202 219 l 2
 202 147.28353834 216.747783795 125 347 125 c 2
 511 125 l 1
 511 291 l 2
 511 306.132537856 525.270095667 316 536 316 c 2
 546 316 l 2
 561.132537856 316 571 301.729904333 571 291 c 2
 571 90 l 2
 571 74.8674621445 556.729904333 65 546 65 c 2
 347 65 l 2
EndSplineSet
Substitution2: "'ss12' Style Set 12 in Latin lookup 25 subtable" Gcommaaccent.v
Substitution2: "'ss01' Style Set 1 in Latin lookup 21 subtable" Gcommaaccent.v
Substitution2: "'vert' Vertical Alternates (obs) in Latin lookup 20 subtable" Gcommaaccent.v
Position2: "'ss11' Style Set 11 in Latin lookup 1 per glyph data 55" dx=286 dy=0 dh=572 dv=0
EndChar

StartChar: H
Encoding: 72 72 37
Width: 759
Flags: HMW
HStem: 355 10<187 571 187 571>
VStem: 177 10<90 355 365 630> 571 10<90 355 355 355 365 630 90 630>
LayerCount: 2
Fore
SplineSet
152 90 m 2
 152 630 l 2
 152 645.132537856 166.270095667 655 177 655 c 2
 187 655 l 2
 202.132537856 655 212 640.729904333 212 630 c 2
 212 390 l 1
 546 390 l 1
 546 630 l 2
 546 645.132537856 560.270095667 655 571 655 c 2
 581 655 l 2
 596.132537856 655 606 640.729904333 606 630 c 2
 606 90 l 2
 606 74.8674621445 591.729904333 65 581 65 c 2
 571 65 l 2
 555.867462144 65 546 79.2700956673 546 90 c 2
 546 330 l 1
 212 330 l 1
 212 90 l 2
 212 74.8674621445 197.729904333 65 187 65 c 2
 177 65 l 2
 161.867462144 65 152 79.2700956673 152 90 c 2
EndSplineSet
Substitution2: "'ss12' Style Set 12 in Latin lookup 25 subtable" H.v
Substitution2: "'ss01' Style Set 1 in Latin lookup 21 subtable" H.v
Substitution2: "'vert' Vertical Alternates (obs) in Latin lookup 20 subtable" H.v
Position2: "'ss11' Style Set 11 in Latin lookup 1 per glyph data 31" dx=261 dy=0 dh=521 dv=0
EndChar

StartChar: Hcircumflex
Encoding: 292 292 38
Width: 759
Flags: HMW
HStem: 355 10<187 571 187 571> 878 10<342 346>
VStem: 177 10<90 355 365 630> 571 10<90 355 355 355 365 630 90 630>
LayerCount: 2
Fore
SplineSet
489.340916587 826.202133682 m 2
 402.577873941 854.125871545 l 2
 392.473634122 857.157143491 386.85361019 859 378 859 c 0
 369.14638981 859 363.526365878 857.157143491 353.422126059 854.125871545 c 2
 266.659083413 826.202133682 l 2
 250.716712085 821.071255554 234 833.431547997 234 850 c 2
 234 861 l 2
 234 872.112439944 242.03433223 881.770552321 251.26637181 884.773745919 c 2
 334.26637181 911.773745919 l 2
 334.79182668 911.944677021 335.538462316 912.154025739 335.936609374 912.253562504 c 0
 346.604511609 914.920538062 359.458791853 919 378 919 c 0
 396.541208147 919 409.395488391 914.920538062 420.063390626 912.253562504 c 0
 420.599450554 912.119547521 421.343357813 911.900701343 421.73362819 911.773745919 c 2
 504.73362819 884.773745919 l 2
 515.301001141 881.336166766 522 870.708229838 522 861 c 2
 522 850 l 2
 522 833.252310191 505.112668822 821.126167446 489.340916587 826.202133682 c 2
152 90 m 2
 152 630 l 2
 152 645.132537856 166.270095667 655 177 655 c 2
 187 655 l 2
 202.132537856 655 212 640.729904333 212 630 c 2
 212 390 l 1
 546 390 l 1
 546 630 l 2
 546 645.132537856 560.270095667 655 571 655 c 2
 581 655 l 2
 596.132537856 655 606 640.729904333 606 630 c 2
 606 90 l 2
 606 74.8674621445 591.729904333 65 581 65 c 2
 571 65 l 2
 555.867462144 65 546 79.2700956673 546 90 c 2
 546 330 l 1
 212 330 l 1
 212 90 l 2
 212 74.8674621445 197.729904333 65 187 65 c 2
 177 65 l 2
 161.867462144 65 152 79.2700956673 152 90 c 2
EndSplineSet
Substitution2: "'ss12' Style Set 12 in Latin lookup 25 subtable" Hcircumflex.v
Substitution2: "'ss01' Style Set 1 in Latin lookup 21 subtable" Hcircumflex.v
Substitution2: "'vert' Vertical Alternates (obs) in Latin lookup 20 subtable" Hcircumflex.v
Position2: "'ss11' Style Set 11 in Latin lookup 1 per glyph data 31" dx=261 dy=0 dh=521 dv=0
EndChar

StartChar: I
Encoding: 73 73 39
Width: 605
Flags: HMW
HStem: 90 10<143 298 308 461 143 298> 620 10<143 298 143 461 308 308 308 461>
VStem: 298 10<100 620 100 620>
LayerCount: 2
Fore
SplineSet
461 65 m 2
 143 65 l 2
 127.867462144 65 118 79.2700956673 118 90 c 2
 118 100 l 2
 118 115.132537856 132.270095667 125 143 125 c 2
 273 125 l 1
 273 595 l 1
 143 595 l 2
 127.867462144 595 118 609.270095667 118 620 c 2
 118 630 l 2
 118 645.132537856 132.270095667 655 143 655 c 2
 461 655 l 2
 476.132537856 655 486 640.729904333 486 630 c 2
 486 620 l 2
 486 604.867462144 471.729904333 595 461 595 c 2
 333 595 l 1
 333 125 l 1
 461 125 l 2
 476.132537856 125 486 110.729904333 486 100 c 2
 486 90 l 2
 486 74.8674621445 471.729904333 65 461 65 c 2
EndSplineSet
Substitution2: "'ss12' Style Set 12 in Latin lookup 25 subtable" I.v
Substitution2: "'ss01' Style Set 1 in Latin lookup 21 subtable" I.v
Substitution2: "'vert' Vertical Alternates (obs) in Latin lookup 20 subtable" I.v
Substitution2: "'ss04' Style Set 4 in Latin lookup 12 subtable" I.salt
Position2: "'ss11' Style Set 11 in Latin lookup 1 per glyph data 84" dx=338 dy=0 dh=675 dv=0
EndChar

StartChar: Igrave
Encoding: 204 204 40
Width: 605
Flags: HMW
HStem: 90 10<143 298 308 461 143 298> 620 10<143 298 143 461 308 308 308 461>
VStem: 298 10<100 620 100 620>
LayerCount: 2
Fore
SplineSet
157 867 m 2
 157 877 l 2
 157 892.517205635 171.60445275 903.501061005 185.113641869 901.80534689 c 2
 424.113641869 871.80534689 l 2
 437.20470184 870.162117605 446 857.891975328 446 847 c 2
 446 837 l 2
 446 821.482794365 431.39554725 810.498938995 417.886358131 812.19465311 c 2
 178.886358131 842.19465311 l 2
 165.79529816 843.837882395 157 856.108024672 157 867 c 2
461 65 m 2
 143 65 l 2
 127.867462144 65 118 79.2700956673 118 90 c 2
 118 100 l 2
 118 115.132537856 132.270095667 125 143 125 c 2
 273 125 l 1
 273 595 l 1
 143 595 l 2
 127.867462144 595 118 609.270095667 118 620 c 2
 118 630 l 2
 118 645.132537856 132.270095667 655 143 655 c 2
 461 655 l 2
 476.132537856 655 486 640.729904333 486 630 c 2
 486 620 l 2
 486 604.867462144 471.729904333 595 461 595 c 2
 333 595 l 1
 333 125 l 1
 461 125 l 2
 476.132537856 125 486 110.729904333 486 100 c 2
 486 90 l 2
 486 74.8674621445 471.729904333 65 461 65 c 2
EndSplineSet
Substitution2: "'ss12' Style Set 12 in Latin lookup 25 subtable" Igrave.v
Substitution2: "'ss01' Style Set 1 in Latin lookup 21 subtable" Igrave.v
Substitution2: "'vert' Vertical Alternates (obs) in Latin lookup 20 subtable" Igrave.v
Substitution2: "'ss04' Style Set 4 in Latin lookup 12 subtable" Igrave.salt
Position2: "'ss11' Style Set 11 in Latin lookup 1 per glyph data 84" dx=338 dy=0 dh=675 dv=0
EndChar

StartChar: Iacute
Encoding: 205 205 41
Width: 605
Flags: HMW
HStem: 90 10<143 298 308 461 143 298> 620 10<143 298 143 461 308 308 308 461>
VStem: 298 10<100 620 100 620>
LayerCount: 2
Fore
SplineSet
178.886358131 871.80534689 m 2
 417.886358131 901.80534689 l 2
 433.282744872 903.737947736 446 890.615198751 446 877 c 2
 446 867 l 2
 446 853.806211551 434.920810922 843.551201527 424.113641869 842.19465311 c 2
 185.113641869 812.19465311 l 2
 169.717255128 810.262052264 157 823.384801249 157 837 c 2
 157 847 l 2
 157 860.193788449 168.079189078 870.448798473 178.886358131 871.80534689 c 2
461 65 m 2
 143 65 l 2
 127.867462144 65 118 79.2700956673 118 90 c 2
 118 100 l 2
 118 115.132537856 132.270095667 125 143 125 c 2
 273 125 l 1
 273 595 l 1
 143 595 l 2
 127.867462144 595 118 609.270095667 118 620 c 2
 118 630 l 2
 118 645.132537856 132.270095667 655 143 655 c 2
 461 655 l 2
 476.132537856 655 486 640.729904333 486 630 c 2
 486 620 l 2
 486 604.867462144 471.729904333 595 461 595 c 2
 333 595 l 1
 333 125 l 1
 461 125 l 2
 476.132537856 125 486 110.729904333 486 100 c 2
 486 90 l 2
 486 74.8674621445 471.729904333 65 461 65 c 2
EndSplineSet
Substitution2: "'ss12' Style Set 12 in Latin lookup 25 subtable" Iacute.v
Substitution2: "'ss01' Style Set 1 in Latin lookup 21 subtable" Iacute.v
Substitution2: "'vert' Vertical Alternates (obs) in Latin lookup 20 subtable" Iacute.v
Substitution2: "'ss04' Style Set 4 in Latin lookup 12 subtable" Iacute.salt
Position2: "'ss11' Style Set 11 in Latin lookup 1 per glyph data 84" dx=338 dy=0 dh=675 dv=0
EndChar

StartChar: Icircumflex
Encoding: 206 206 42
Width: 605
Flags: HMW
HStem: 90 10<143 298 308 461 143 298> 620 10<143 298 143 461 308 308 308 461> 878 10<265 269>
VStem: 298 10<100 620 100 620>
LayerCount: 2
Fore
SplineSet
412.340916587 826.202133682 m 2
 325.577873941 854.125871545 l 2
 315.473634122 857.157143491 309.85361019 859 301 859 c 0
 292.14638981 859 286.526365878 857.157143491 276.422126059 854.125871545 c 2
 189.659083413 826.202133682 l 2
 173.716712085 821.071255554 157 833.431547997 157 850 c 2
 157 861 l 2
 157 872.112439944 165.03433223 881.770552321 174.26637181 884.773745919 c 2
 257.26637181 911.773745919 l 2
 257.79182668 911.944677021 258.538462316 912.154025739 258.936609374 912.253562504 c 0
 269.604511609 914.920538062 282.458791853 919 301 919 c 0
 319.541208147 919 332.395488391 914.920538062 343.063390626 912.253562504 c 0
 343.599450554 912.119547521 344.343357813 911.900701343 344.73362819 911.773745919 c 2
 427.73362819 884.773745919 l 2
 438.301001141 881.336166766 445 870.708229838 445 861 c 2
 445 850 l 2
 445 833.252310191 428.112668822 821.126167446 412.340916587 826.202133682 c 2
461 65 m 2
 143 65 l 2
 127.867462144 65 118 79.2700956673 118 90 c 2
 118 100 l 2
 118 115.132537856 132.270095667 125 143 125 c 2
 273 125 l 1
 273 595 l 1
 143 595 l 2
 127.867462144 595 118 609.270095667 118 620 c 2
 118 630 l 2
 118 645.132537856 132.270095667 655 143 655 c 2
 461 655 l 2
 476.132537856 655 486 640.729904333 486 630 c 2
 486 620 l 2
 486 604.867462144 471.729904333 595 461 595 c 2
 333 595 l 1
 333 125 l 1
 461 125 l 2
 476.132537856 125 486 110.729904333 486 100 c 2
 486 90 l 2
 486 74.8674621445 471.729904333 65 461 65 c 2
EndSplineSet
Substitution2: "'ss12' Style Set 12 in Latin lookup 25 subtable" Icircumflex.v
Substitution2: "'ss01' Style Set 1 in Latin lookup 21 subtable" Icircumflex.v
Substitution2: "'vert' Vertical Alternates (obs) in Latin lookup 20 subtable" Icircumflex.v
Substitution2: "'ss04' Style Set 4 in Latin lookup 12 subtable" Icircumflex.salt
Position2: "'ss11' Style Set 11 in Latin lookup 1 per glyph data 84" dx=338 dy=0 dh=675 dv=0
EndChar

StartChar: Idieresis
Encoding: 207 207 43
Width: 605
Flags: HMW
HStem: 90 10<143 298 308 461 143 298> 620 10<143 298 143 461 308 308 308 461> 830 47<166 176 166 176 424 434>
VStem: 166 10<830 877> 298 10<100 620 100 620> 424 10<830 877>
LayerCount: 2
Fore
SplineSet
434 805 m 2
 424 805 l 2
 408.867462144 805 399 819.270095667 399 830 c 2
 399 877 l 2
 399 892.132537856 413.270095667 902 424 902 c 2
 434 902 l 2
 449.132537856 902 459 887.729904333 459 877 c 2
 459 830 l 2
 459 814.867462144 444.729904333 805 434 805 c 2
176 805 m 2
 166 805 l 2
 150.867462144 805 141 819.270095667 141 830 c 2
 141 877 l 2
 141 892.132537856 155.270095667 902 166 902 c 2
 176 902 l 2
 191.132537856 902 201 887.729904333 201 877 c 2
 201 830 l 2
 201 814.867462144 186.729904333 805 176 805 c 2
461 65 m 2
 143 65 l 2
 127.867462144 65 118 79.2700956673 118 90 c 2
 118 100 l 2
 118 115.132537856 132.270095667 125 143 125 c 2
 273 125 l 1
 273 595 l 1
 143 595 l 2
 127.867462144 595 118 609.270095667 118 620 c 2
 118 630 l 2
 118 645.132537856 132.270095667 655 143 655 c 2
 461 655 l 2
 476.132537856 655 486 640.729904333 486 630 c 2
 486 620 l 2
 486 604.867462144 471.729904333 595 461 595 c 2
 333 595 l 1
 333 125 l 1
 461 125 l 2
 476.132537856 125 486 110.729904333 486 100 c 2
 486 90 l 2
 486 74.8674621445 471.729904333 65 461 65 c 2
EndSplineSet
Substitution2: "'ss12' Style Set 12 in Latin lookup 25 subtable" Idieresis.v
Substitution2: "'ss01' Style Set 1 in Latin lookup 21 subtable" Idieresis.v
Substitution2: "'vert' Vertical Alternates (obs) in Latin lookup 20 subtable" Idieresis.v
Substitution2: "'ss04' Style Set 4 in Latin lookup 12 subtable" Idieresis.salt
Position2: "'ss11' Style Set 11 in Latin lookup 1 per glyph data 84" dx=338 dy=0 dh=675 dv=0
EndChar

StartChar: Itilde
Encoding: 296 296 44
Width: 605
Flags: HMW
HStem: 90 10<143 298 308 461 143 298> 620 10<143 298 143 461 308 308 308 461> 831 10<420 420> 843 10
VStem: 298 10<100 620 100 620>
LayerCount: 2
Fore
SplineSet
445 841 m 2
 445 831 l 2
 445 817.869109695 434.137675011 807.417005173 422.760788152 806.152906633 c 0
 391.956702721 802.730230474 362.685838165 806.391735507 312.506951231 814.242075633 c 2
 296.681543579 816.220251589 l 1
 268.268059914 820.279320684 l 2
 224.575939647 827.230339818 204.312106816 827.646883313 186.472135955 824.403252248 c 0
 170.127234888 821.431452054 157 835.762699252 157 849 c 2
 157 860 l 2
 157 873.212496489 168.150725173 883.405341337 178.766520398 884.79001028 c 0
 205.811710784 888.317643808 231.994574255 885.821966683 277.419888126 879.765258167 c 2
 305.318456421 875.779748411 l 1
 321.488382326 873.758507673 l 2
 373.531346491 865.594905451 393.976422735 863.262339021 417.239211848 865.847093367 c 0
 432.814846865 867.57771948 445 853.946593607 445 841 c 2
461 65 m 2
 143 65 l 2
 127.867462144 65 118 79.2700956673 118 90 c 2
 118 100 l 2
 118 115.132537856 132.270095667 125 143 125 c 2
 273 125 l 1
 273 595 l 1
 143 595 l 2
 127.867462144 595 118 609.270095667 118 620 c 2
 118 630 l 2
 118 645.132537856 132.270095667 655 143 655 c 2
 461 655 l 2
 476.132537856 655 486 640.729904333 486 630 c 2
 486 620 l 2
 486 604.867462144 471.729904333 595 461 595 c 2
 333 595 l 1
 333 125 l 1
 461 125 l 2
 476.132537856 125 486 110.729904333 486 100 c 2
 486 90 l 2
 486 74.8674621445 471.729904333 65 461 65 c 2
EndSplineSet
Substitution2: "'ss12' Style Set 12 in Latin lookup 25 subtable" Itilde.v
Substitution2: "'ss01' Style Set 1 in Latin lookup 21 subtable" Itilde.v
Substitution2: "'vert' Vertical Alternates (obs) in Latin lookup 20 subtable" Itilde.v
Substitution2: "'ss04' Style Set 4 in Latin lookup 12 subtable" Itilde.salt
Position2: "'ss11' Style Set 11 in Latin lookup 1 per glyph data 84" dx=338 dy=0 dh=675 dv=0
EndChar

StartChar: Imacron
Encoding: 298 298 45
Width: 605
Flags: HMW
HStem: 90 10<143 298 308 461 143 298> 620 10<143 298 143 461 308 308 308 461> 837 10<182 421 182 421>
VStem: 298 10<100 620 100 620>
LayerCount: 2
Fore
SplineSet
182 872 m 2
 421 872 l 2
 436.132537856 872 446 857.729904333 446 847 c 2
 446 837 l 2
 446 821.867462144 431.729904333 812 421 812 c 2
 182 812 l 2
 166.867462144 812 157 826.270095667 157 837 c 2
 157 847 l 2
 157 862.132537856 171.270095667 872 182 872 c 2
461 65 m 2
 143 65 l 2
 127.867462144 65 118 79.2700956673 118 90 c 2
 118 100 l 2
 118 115.132537856 132.270095667 125 143 125 c 2
 273 125 l 1
 273 595 l 1
 143 595 l 2
 127.867462144 595 118 609.270095667 118 620 c 2
 118 630 l 2
 118 645.132537856 132.270095667 655 143 655 c 2
 461 655 l 2
 476.132537856 655 486 640.729904333 486 630 c 2
 486 620 l 2
 486 604.867462144 471.729904333 595 461 595 c 2
 333 595 l 1
 333 125 l 1
 461 125 l 2
 476.132537856 125 486 110.729904333 486 100 c 2
 486 90 l 2
 486 74.8674621445 471.729904333 65 461 65 c 2
EndSplineSet
Substitution2: "'ss12' Style Set 12 in Latin lookup 25 subtable" Imacron.v
Substitution2: "'ss01' Style Set 1 in Latin lookup 21 subtable" Imacron.v
Substitution2: "'vert' Vertical Alternates (obs) in Latin lookup 20 subtable" Imacron.v
Substitution2: "'ss04' Style Set 4 in Latin lookup 12 subtable" Imacron.salt
Position2: "'ss11' Style Set 11 in Latin lookup 1 per glyph data 84" dx=338 dy=0 dh=675 dv=0
EndChar

StartChar: Ibreve
Encoding: 300 300 46
Width: 605
Flags: HMW
HStem: 90 10<143 298 308 461 143 298> 620 10<143 298 143 461 308 308 308 461> 818 10<247 355 247 363>
VStem: 161 10<898 907 880 907> 298 10<100 620 100 620> 436 10<898 907 879 907>
LayerCount: 2
Fore
SplineSet
436 932 m 2
 446 932 l 2
 461.132537856 932 471 917.729904333 471 907 c 2
 471 898 l 2
 471 843.091100103 430.602341268 793 301 793 c 0
 170.418217009 793 136 844.869876646 136 898 c 2
 136 907 l 2
 136 922.132537856 150.270095667 932 161 932 c 2
 171 932 l 2
 186.132537856 932 196 917.729904333 196 907 c 2
 196 898 l 2
 196 880.279956546 197.266659849 853 301 853 c 0
 405.768066385 853 411 882.136424644 411 898 c 2
 411 907 l 2
 411 922.132537856 425.270095667 932 436 932 c 2
461 65 m 2
 143 65 l 2
 127.867462144 65 118 79.2700956673 118 90 c 2
 118 100 l 2
 118 115.132537856 132.270095667 125 143 125 c 2
 273 125 l 1
 273 595 l 1
 143 595 l 2
 127.867462144 595 118 609.270095667 118 620 c 2
 118 630 l 2
 118 645.132537856 132.270095667 655 143 655 c 2
 461 655 l 2
 476.132537856 655 486 640.729904333 486 630 c 2
 486 620 l 2
 486 604.867462144 471.729904333 595 461 595 c 2
 333 595 l 1
 333 125 l 1
 461 125 l 2
 476.132537856 125 486 110.729904333 486 100 c 2
 486 90 l 2
 486 74.8674621445 471.729904333 65 461 65 c 2
EndSplineSet
Substitution2: "'ss12' Style Set 12 in Latin lookup 25 subtable" Ibreve.v
Substitution2: "'ss01' Style Set 1 in Latin lookup 21 subtable" Ibreve.v
Substitution2: "'vert' Vertical Alternates (obs) in Latin lookup 20 subtable" Ibreve.v
Substitution2: "'ss04' Style Set 4 in Latin lookup 12 subtable" Ibreve.salt
Position2: "'ss11' Style Set 11 in Latin lookup 1 per glyph data 84" dx=338 dy=0 dh=675 dv=0
EndChar

StartChar: Iogonek
Encoding: 302 302 47
Width: 605
Flags: HMW
HStem: -116 10<412.5 461 437 461> 90 10<143 298 308 422 143 298 441 441 441 461> 620 10<143 298 143 461 308 308 308 461>
VStem: 298 10<100 620 100 620> 386 10<-43 -41>
LayerCount: 2
Fore
SplineSet
486 -106 m 2
 486 -116 l 2
 486 -131.132537856 471.729904333 -141 461 -141 c 2
 437 -141 l 2
 429.968484421 -141 423.312841724 -140.568504577 416.934260673 -139.587834386 c 0
 362.556505605 -131.227566949 353.973560784 -82.9278838355 361.284218488 -37.2362731865 c 2
 373.273475684 45.6894224227 l 2
 374.366880309 52.7965524848 375.691871895 59.744301659 376.969900436 65 c 1
 143 65 l 2
 127.867462144 65 118 79.2700956673 118 90 c 2
 118 100 l 2
 118 115.132537856 132.270095667 125 143 125 c 2
 273 125 l 1
 273 595 l 1
 143 595 l 2
 127.867462144 595 118 609.270095667 118 620 c 2
 118 630 l 2
 118 645.132537856 132.270095667 655 143 655 c 2
 461 655 l 2
 476.132537856 655 486 640.729904333 486 630 c 2
 486 620 l 2
 486 604.867462144 471.729904333 595 461 595 c 2
 333 595 l 1
 333 125 l 1
 461 125 l 2
 476.132537856 125 486 110.729904333 486 100 c 2
 486 90 l 2
 486 74.8674621445 471.729904333 65 461 65 c 2
 447.646824936 65 l 1
 432.412646269 55.995859601 436.098437832 62.7476596778 432.760091023 38.5446453096 c 2
 420.782302844 -46.2980209519 l 2
 419.951601656 -52.9436304598 419.434139427 -59.5031173712 419.409059131 -64.3449156415 c 0
 419.319289906 -81.6750332497 416.445862776 -81 437 -81 c 2
 461 -81 l 2
 476.132537856 -81 486 -95.2700956673 486 -106 c 2
EndSplineSet
Substitution2: "'ss12' Style Set 12 in Latin lookup 25 subtable" Iogonek.v
Substitution2: "'ss01' Style Set 1 in Latin lookup 21 subtable" Iogonek.v
Substitution2: "'vert' Vertical Alternates (obs) in Latin lookup 20 subtable" Iogonek.v
Substitution2: "'ss04' Style Set 4 in Latin lookup 12 subtable" Iogonek.salt
Position2: "'ss11' Style Set 11 in Latin lookup 1 per glyph data 84" dx=338 dy=0 dh=675 dv=0
EndChar

StartChar: Idotaccent
Encoding: 304 304 48
Width: 605
Flags: HMW
HStem: 90 10<143 298 308 461 143 298> 620 10<143 298 143 461 308 308 308 461> 830 59<298 308 298 308>
VStem: 298 10<100 620 100 620 830 889>
LayerCount: 2
Fore
SplineSet
308 805 m 2
 298 805 l 2
 282.867462144 805 273 819.270095667 273 830 c 2
 273 889 l 2
 273 904.132537856 287.270095667 914 298 914 c 2
 308 914 l 2
 323.132537856 914 333 899.729904333 333 889 c 2
 333 830 l 2
 333 814.867462144 318.729904333 805 308 805 c 2
461 65 m 2
 143 65 l 2
 127.867462144 65 118 79.2700956673 118 90 c 2
 118 100 l 2
 118 115.132537856 132.270095667 125 143 125 c 2
 273 125 l 1
 273 595 l 1
 143 595 l 2
 127.867462144 595 118 609.270095667 118 620 c 2
 118 630 l 2
 118 645.132537856 132.270095667 655 143 655 c 2
 461 655 l 2
 476.132537856 655 486 640.729904333 486 630 c 2
 486 620 l 2
 486 604.867462144 471.729904333 595 461 595 c 2
 333 595 l 1
 333 125 l 1
 461 125 l 2
 476.132537856 125 486 110.729904333 486 100 c 2
 486 90 l 2
 486 74.8674621445 471.729904333 65 461 65 c 2
EndSplineSet
Substitution2: "'ss12' Style Set 12 in Latin lookup 25 subtable" Idotaccent.v
Substitution2: "'ss01' Style Set 1 in Latin lookup 21 subtable" Idotaccent.v
Substitution2: "'vert' Vertical Alternates (obs) in Latin lookup 20 subtable" Idotaccent.v
Substitution2: "'ss04' Style Set 4 in Latin lookup 12 subtable" Idotaccent.salt
Position2: "'ss11' Style Set 11 in Latin lookup 1 per glyph data 84" dx=338 dy=0 dh=675 dv=0
EndChar

StartChar: J
Encoding: 74 74 49
Width: 688
Flags: HMW
HStem: 78 10<264 399 264 404>
VStem: 145 10<213 292> 504 10<213 630>
LayerCount: 2
Fore
SplineSet
504 655 m 2
 514 655 l 2
 529.132537856 655 539 640.729904333 539 630 c 2
 539 213 l 2
 539 120.106385475 483.684936272 53 333 53 c 0
 175.059981985 53 120 118.728515582 120 213 c 2
 120 292 l 2
 120 307.132537856 134.270095667 317 145 317 c 2
 155 317 l 2
 170.132537856 317 180 302.729904333 180 292 c 2
 180 213 l 2
 180 152.372034311 202.035347391 113 333 113 c 0
 457.088251148 113 479 152.694469595 479 213 c 2
 479 630 l 2
 479 645.132537856 493.270095667 655 504 655 c 2
EndSplineSet
Substitution2: "'ss12' Style Set 12 in Latin lookup 25 subtable" J.v
Substitution2: "'ss01' Style Set 1 in Latin lookup 21 subtable" J.v
Substitution2: "'vert' Vertical Alternates (obs) in Latin lookup 20 subtable" J.v
Position2: "'ss11' Style Set 11 in Latin lookup 1 per glyph data 62" dx=296 dy=0 dh=592 dv=0
EndChar

StartChar: Jcircumflex
Encoding: 308 308 50
Width: 688
Flags: HMW
HStem: 78 10<264 399 264 404> 878 10<465 469>
VStem: 145 10<213 292> 504 10<213 630>
LayerCount: 2
Fore
SplineSet
612.340916587 826.202133682 m 2
 525.577873941 854.125871545 l 2
 515.473634122 857.157143491 509.85361019 859 501 859 c 0
 492.14638981 859 486.526365878 857.157143491 476.422126059 854.125871545 c 2
 389.659083413 826.202133682 l 2
 373.716712085 821.071255554 357 833.431547997 357 850 c 2
 357 861 l 2
 357 872.112439944 365.03433223 881.770552321 374.26637181 884.773745919 c 2
 457.26637181 911.773745919 l 2
 457.79182668 911.944677021 458.538462316 912.154025739 458.936609374 912.253562504 c 0
 469.604511609 914.920538062 482.458791853 919 501 919 c 0
 519.541208147 919 532.395488391 914.920538062 543.063390626 912.253562504 c 0
 543.599450554 912.119547521 544.343357813 911.900701343 544.73362819 911.773745919 c 2
 627.73362819 884.773745919 l 2
 638.301001141 881.336166766 645 870.708229838 645 861 c 2
 645 850 l 2
 645 833.252310191 628.112668822 821.126167446 612.340916587 826.202133682 c 2
504 655 m 2
 514 655 l 2
 529.132537856 655 539 640.729904333 539 630 c 2
 539 213 l 2
 539 120.106385475 483.684936272 53 333 53 c 0
 175.059981985 53 120 118.728515582 120 213 c 2
 120 292 l 2
 120 307.132537856 134.270095667 317 145 317 c 2
 155 317 l 2
 170.132537856 317 180 302.729904333 180 292 c 2
 180 213 l 2
 180 152.372034311 202.035347391 113 333 113 c 0
 457.088251148 113 479 152.694469595 479 213 c 2
 479 630 l 2
 479 645.132537856 493.270095667 655 504 655 c 2
EndSplineSet
Substitution2: "'ss12' Style Set 12 in Latin lookup 25 subtable" Jcircumflex.v
Substitution2: "'ss01' Style Set 1 in Latin lookup 21 subtable" Jcircumflex.v
Substitution2: "'vert' Vertical Alternates (obs) in Latin lookup 20 subtable" Jcircumflex.v
Position2: "'ss11' Style Set 11 in Latin lookup 1 per glyph data 62" dx=296 dy=0 dh=592 dv=0
EndChar

StartChar: K
Encoding: 75 75 51
Width: 746
Flags: HMW
HStem: 354 10<188 405 416 457 188 405>
VStem: 178 10<90 354 364 630> 568 10<90 266 90 298>
LayerCount: 2
Fore
SplineSet
188 65 m 2
 178 65 l 2
 162.867462144 65 153 79.2700956673 153 90 c 2
 153 630 l 2
 153 645.132537856 167.270095667 655 178 655 c 2
 188 655 l 2
 203.132537856 655 213 640.729904333 213 630 c 2
 213 389 l 1
 388.571921527 389 l 1
 497.052724778 639.920814476 l 2
 501.128044204 649.347205497 511.240950735 655 520 655 c 2
 531 655 l 2
 545.370403869 655 557.050397303 642.364679847 555.922937299 628.038572864 c 0
 555.712544135 625.365205332 553.995057776 620.189708647 553.947275222 620.079185524 c 2
 454.044619827 389 l 1
 457 389 l 2
 545.725964243 389 603 351.736891358 603 266 c 2
 603 90 l 2
 603 74.8674621445 588.729904333 65 578 65 c 2
 568 65 l 2
 552.867462144 65 543 79.2700956673 543 90 c 2
 543 266 l 2
 543 313.545342826 525.026442871 329 457 329 c 2
 213 329 l 1
 213 90 l 2
 213 74.8674621445 198.729904333 65 188 65 c 2
EndSplineSet
Substitution2: "'ss12' Style Set 12 in Latin lookup 25 subtable" K.v
Substitution2: "'ss01' Style Set 1 in Latin lookup 21 subtable" K.v
Substitution2: "'vert' Vertical Alternates (obs) in Latin lookup 20 subtable" K.v
Position2: "'ss11' Style Set 11 in Latin lookup 1 per glyph data 36" dx=267 dy=0 dh=534 dv=0
EndChar

StartChar: Kcommaaccent
Encoding: 310 310 52
Width: 746
Flags: HMW
HStem: -315 10<314 349 314 349> -142 10<314 422 314 432> 354 10<188 405 416 457 188 405>
VStem: 178 10<90 354 364 630> 422 10<-229 -142 -142 -142> 568 10<90 266 90 298>
LayerCount: 2
Fore
SplineSet
457 -132 m 2
 457 -229 l 2
 457 -301.694361765 414.329866624 -340 349 -340 c 2
 314 -340 l 2
 298.867462144 -340 289 -325.729904333 289 -315 c 2
 289 -305 l 2
 289 -289.867462144 303.270095667 -280 314 -280 c 2
 349 -280 l 2
 385.571730604 -280 397 -271.539980137 397 -229 c 2
 397 -167 l 1
 314 -167 l 2
 298.867462144 -167 289 -152.729904333 289 -142 c 2
 289 -132 l 2
 289 -116.867462144 303.270095667 -107 314 -107 c 2
 432 -107 l 2
 447.132537856 -107 457 -121.270095667 457 -132 c 2
188 65 m 2
 178 65 l 2
 162.867462144 65 153 79.2700956673 153 90 c 2
 153 630 l 2
 153 645.132537856 167.270095667 655 178 655 c 2
 188 655 l 2
 203.132537856 655 213 640.729904333 213 630 c 2
 213 389 l 1
 388.571921527 389 l 1
 497.052724778 639.920814476 l 2
 501.128044204 649.347205497 511.240950735 655 520 655 c 2
 531 655 l 2
 545.370403869 655 557.050397303 642.364679847 555.922937299 628.038572864 c 0
 555.712544135 625.365205332 553.995057776 620.189708647 553.947275222 620.079185524 c 2
 454.044619827 389 l 1
 457 389 l 2
 545.725964243 389 603 351.736891358 603 266 c 2
 603 90 l 2
 603 74.8674621445 588.729904333 65 578 65 c 2
 568 65 l 2
 552.867462144 65 543 79.2700956673 543 90 c 2
 543 266 l 2
 543 313.545342826 525.026442871 329 457 329 c 2
 213 329 l 1
 213 90 l 2
 213 74.8674621445 198.729904333 65 188 65 c 2
EndSplineSet
Substitution2: "'ss12' Style Set 12 in Latin lookup 25 subtable" Kcommaaccent.v
Substitution2: "'ss01' Style Set 1 in Latin lookup 21 subtable" Kcommaaccent.v
Substitution2: "'vert' Vertical Alternates (obs) in Latin lookup 20 subtable" Kcommaaccent.v
Position2: "'ss11' Style Set 11 in Latin lookup 1 per glyph data 36" dx=267 dy=0 dh=534 dv=0
EndChar

StartChar: L
Encoding: 76 76 53
Width: 695
Flags: HMW
HStem: 90 10<188 536 188 546>
VStem: 178 10<100 630 100 630 100 630> 536 10<100 297 90 297>
LayerCount: 2
Fore
SplineSet
153 90 m 2
 153 630 l 2
 153 645.132537856 167.270095667 655 178 655 c 2
 188 655 l 2
 203.132537856 655 213 640.729904333 213 630 c 2
 213 125 l 1
 511 125 l 1
 511 297 l 2
 511 312.132537856 525.270095667 322 536 322 c 2
 546 322 l 2
 561.132537856 322 571 307.729904333 571 297 c 2
 571 90 l 2
 571 74.8674621445 556.729904333 65 546 65 c 2
 178 65 l 2
 162.867462144 65 153 79.2700956673 153 90 c 2
EndSplineSet
Substitution2: "Single Substitution lookup 26 subtable" Ldot
Substitution2: "'ss12' Style Set 12 in Latin lookup 25 subtable" L.v
Substitution2: "'ss01' Style Set 1 in Latin lookup 21 subtable" L.v
Substitution2: "'vert' Vertical Alternates (obs) in Latin lookup 20 subtable" L.v
Substitution2: "'ss05' Style Set 5 in Latin lookup 13 subtable" L.salt
Position2: "'ss11' Style Set 11 in Latin lookup 1 per glyph data 59" dx=293 dy=0 dh=585 dv=0
EndChar

StartChar: Lacute
Encoding: 313 313 54
Width: 695
Flags: HMW
HStem: 90 10<188 536 188 546>
VStem: 178 10<100 630 100 630 100 630> 536 10<100 297 90 297>
LayerCount: 2
Fore
SplineSet
155.886358131 871.80534689 m 2
 394.886358131 901.80534689 l 2
 410.282744872 903.737947736 423 890.615198751 423 877 c 2
 423 867 l 2
 423 853.806211551 411.920810922 843.551201527 401.113641869 842.19465311 c 2
 162.113641869 812.19465311 l 2
 146.717255128 810.262052264 134 823.384801249 134 837 c 2
 134 847 l 2
 134 860.193788449 145.079189078 870.448798473 155.886358131 871.80534689 c 2
153 90 m 2
 153 630 l 2
 153 645.132537856 167.270095667 655 178 655 c 2
 188 655 l 2
 203.132537856 655 213 640.729904333 213 630 c 2
 213 125 l 1
 511 125 l 1
 511 297 l 2
 511 312.132537856 525.270095667 322 536 322 c 2
 546 322 l 2
 561.132537856 322 571 307.729904333 571 297 c 2
 571 90 l 2
 571 74.8674621445 556.729904333 65 546 65 c 2
 178 65 l 2
 162.867462144 65 153 79.2700956673 153 90 c 2
EndSplineSet
Substitution2: "'ss12' Style Set 12 in Latin lookup 25 subtable" Lacute.v
Substitution2: "'ss01' Style Set 1 in Latin lookup 21 subtable" Lacute.v
Substitution2: "'vert' Vertical Alternates (obs) in Latin lookup 20 subtable" Lacute.v
Substitution2: "'ss05' Style Set 5 in Latin lookup 13 subtable" Lacute.salt
Position2: "'ss11' Style Set 11 in Latin lookup 1 per glyph data 59" dx=293 dy=0 dh=585 dv=0
EndChar

StartChar: Lcommaaccent
Encoding: 315 315 55
Width: 695
Flags: HMW
HStem: -315 10<305 340 305 340> -142 10<305 413 305 423> 90 10<188 536 188 546>
VStem: 178 10<100 630 100 630 100 630> 413 10<-229 -142 -142 -142> 536 10<100 297 90 297>
LayerCount: 2
Fore
SplineSet
448 -132 m 2
 448 -229 l 2
 448 -301.694361765 405.329866624 -340 340 -340 c 2
 305 -340 l 2
 289.867462144 -340 280 -325.729904333 280 -315 c 2
 280 -305 l 2
 280 -289.867462144 294.270095667 -280 305 -280 c 2
 340 -280 l 2
 376.571730604 -280 388 -271.539980137 388 -229 c 2
 388 -167 l 1
 305 -167 l 2
 289.867462144 -167 280 -152.729904333 280 -142 c 2
 280 -132 l 2
 280 -116.867462144 294.270095667 -107 305 -107 c 2
 423 -107 l 2
 438.132537856 -107 448 -121.270095667 448 -132 c 2
153 90 m 2
 153 630 l 2
 153 645.132537856 167.270095667 655 178 655 c 2
 188 655 l 2
 203.132537856 655 213 640.729904333 213 630 c 2
 213 125 l 1
 511 125 l 1
 511 297 l 2
 511 312.132537856 525.270095667 322 536 322 c 2
 546 322 l 2
 561.132537856 322 571 307.729904333 571 297 c 2
 571 90 l 2
 571 74.8674621445 556.729904333 65 546 65 c 2
 178 65 l 2
 162.867462144 65 153 79.2700956673 153 90 c 2
EndSplineSet
Substitution2: "'ss12' Style Set 12 in Latin lookup 25 subtable" Lcommaaccent.v
Substitution2: "'ss01' Style Set 1 in Latin lookup 21 subtable" Lcommaaccent.v
Substitution2: "'vert' Vertical Alternates (obs) in Latin lookup 20 subtable" Lcommaaccent.v
Substitution2: "'ss05' Style Set 5 in Latin lookup 13 subtable" Lcommaaccent.salt
Position2: "'ss11' Style Set 11 in Latin lookup 1 per glyph data 59" dx=293 dy=0 dh=585 dv=0
EndChar

StartChar: Lcaron
Encoding: 317 317 56
Width: 695
Flags: HMW
HStem: 90 10<188 536 188 546> 537 93
VStem: 178 10<100 630 100 630 100 630> 536 10<100 297 90 297>
LayerCount: 2
Fore
SplineSet
514 512 m 2
 503 512 l 2
 486.518237038 512 475.837266259 528.222987368 478.455503735 541.750547664 c 2
 496.455503735 634.750547664 l 2
 498.842119269 647.08139459 510.768748627 655 521 655 c 2
 532 655 l 2
 548.481762962 655 559.162733741 638.777012632 556.544496265 625.249452336 c 2
 538.544496265 532.249452336 l 2
 536.157880731 519.91860541 524.231251373 512 514 512 c 2
153 90 m 2
 153 630 l 2
 153 645.132537856 167.270095667 655 178 655 c 2
 188 655 l 2
 203.132537856 655 213 640.729904333 213 630 c 2
 213 125 l 1
 511 125 l 1
 511 297 l 2
 511 312.132537856 525.270095667 322 536 322 c 2
 546 322 l 2
 561.132537856 322 571 307.729904333 571 297 c 2
 571 90 l 2
 571 74.8674621445 556.729904333 65 546 65 c 2
 178 65 l 2
 162.867462144 65 153 79.2700956673 153 90 c 2
EndSplineSet
Substitution2: "'ss12' Style Set 12 in Latin lookup 25 subtable" Lcaron.v
Substitution2: "'ss01' Style Set 1 in Latin lookup 21 subtable" Lcaron.v
Substitution2: "'vert' Vertical Alternates (obs) in Latin lookup 20 subtable" Lcaron.v
Substitution2: "'ss05' Style Set 5 in Latin lookup 13 subtable" Lcaron.salt
Position2: "'ss11' Style Set 11 in Latin lookup 1 per glyph data 59" dx=293 dy=0 dh=585 dv=0
EndChar

StartChar: M
Encoding: 77 77 57
Width: 849
Flags: HMW
HStem: 375 10<409 433 409 435.5> 620 10<194 218 201 216 623 625 625 640>
VStem: 175 10<90 599 90 610> 657 10<90 599 90 604.5>
LayerCount: 2
Fore
SplineSet
421 410 m 0
 433.787570128 410 426.309157048 402.993030008 451.095580722 440.711500817 c 2
 572.897665707 626.409761532 l 2
 584.821998912 645.786802991 605.038564626 655 623 655 c 2
 640 655 l 2
 672.531295241 655 692 629.574437745 692 599 c 2
 692 90 l 2
 692 74.8674621445 677.729904333 65 667 65 c 2
 657 65 l 2
 641.867462144 65 632 79.2700956673 632 90 c 2
 632 595 l 1
 625 595 l 2
 624.50218138 595 624.171563829 594.327736464 623.069775898 592.537331076 c 2
 500.81867882 408.158627286 l 2
 478.504562343 374.687452571 462.049362049 350 421 350 c 0
 379.954784721 350 363.493465043 374.690411492 341.18132118 408.158627286 c 2
 218.930224102 592.537331076 l 2
 217.914218483 594.188340207 217.580396153 594.609964689 217.30729531 594.98785569 c 0
 216.686931699 594.999748528 216.523055607 595 216 595 c 2
 210 595 l 1
 210 90 l 2
 210 74.8674621445 195.729904333 65 185 65 c 2
 175 65 l 2
 159.867462144 65 150 79.2700956673 150 90 c 2
 150 599 l 2
 150 629.102735808 168.796191457 655 201 655 c 2
 218 655 l 2
 235.476587663 655 256.671499376 646.609868271 269.102334293 626.409761532 c 2
 390.892636993 440.729447167 l 2
 415.378456941 403.46841681 409.471939739 410 421 410 c 0
EndSplineSet
Substitution2: "'ss12' Style Set 12 in Latin lookup 25 subtable" M.v
Substitution2: "'ss01' Style Set 1 in Latin lookup 21 subtable" M.v
Substitution2: "'vert' Vertical Alternates (obs) in Latin lookup 20 subtable" M.v
Substitution2: "'ss02' Style Set 2 in Latin lookup 6 subtable" M.salt
Position2: "'ss11' Style Set 11 in Latin lookup 1 per glyph data 24" dx=216 dy=0 dh=431 dv=0
EndChar

StartChar: N
Encoding: 78 78 58
Width: 753
Flags: HMW
HStem: 617 14<184 184 183 191>
VStem: 174 10<90 617 90 619 90 623> 569 10<90 193 193 193 208 630 90 630>
LayerCount: 2
Fore
SplineSet
219.685232967 638.609095971 m 2
 544 273.754983059 l 1
 544 630 l 2
 544 645.132537856 558.270095667 655 569 655 c 2
 579 655 l 2
 594.132537856 655 604 640.729904333 604 630 c 2
 604 90 l 2
 604 74.8674621445 589.729904333 65 579 65 c 2
 569 65 l 2
 553.867462144 65 544 79.2700956673 544 90 c 2
 544 183.474094626 l 1
 209 559.241290393 l 1
 209 90 l 2
 209 74.8674621445 194.729904333 65 184 65 c 2
 174 65 l 2
 158.867462144 65 149 79.2700956673 149 90 c 2
 149 619 l 2
 149 642.438847583 169.113483786 656 186 656 c 0
 201.336726281 656 213.145493298 645.209845761 218.67766953 639.67766953 c 0
 219.00766473 639.347674329 219.455378385 638.867682376 219.685232967 638.609095971 c 2
EndSplineSet
Substitution2: "'ss12' Style Set 12 in Latin lookup 25 subtable" N.v
Substitution2: "'ss01' Style Set 1 in Latin lookup 21 subtable" N.v
Substitution2: "'vert' Vertical Alternates (obs) in Latin lookup 20 subtable" N.v
Substitution2: "'ss02' Style Set 2 in Latin lookup 7 subtable" N.salt
Position2: "'ss11' Style Set 11 in Latin lookup 1 per glyph data 33" dx=264 dy=0 dh=527 dv=0
EndChar

StartChar: Ntilde
Encoding: 209 209 59
Width: 753
Flags: HMW
HStem: 617 14<184 184 183 191> 831 10<494 494> 843 10
VStem: 174 10<90 617 90 619 90 623> 569 10<90 193 193 193 208 630 90 630>
LayerCount: 2
Fore
SplineSet
519 841 m 2
 519 831 l 2
 519 817.869109695 508.137675011 807.417005173 496.760788152 806.152906633 c 0
 465.956702721 802.730230474 436.685838165 806.391735507 386.506951231 814.242075633 c 2
 370.681543579 816.220251589 l 1
 342.268059914 820.279320684 l 2
 298.575939647 827.230339818 278.312106816 827.646883313 260.472135955 824.403252248 c 0
 244.127234888 821.431452054 231 835.762699252 231 849 c 2
 231 860 l 2
 231 873.212496489 242.150725173 883.405341337 252.766520398 884.79001028 c 0
 279.811710784 888.317643808 305.994574255 885.821966683 351.419888126 879.765258167 c 2
 379.318456421 875.779748411 l 1
 395.488382326 873.758507673 l 2
 447.531346491 865.594905451 467.976422735 863.262339021 491.239211848 865.847093367 c 0
 506.814846865 867.57771948 519 853.946593607 519 841 c 2
219.685232967 638.609095971 m 2
 544 273.754983059 l 1
 544 630 l 2
 544 645.132537856 558.270095667 655 569 655 c 2
 579 655 l 2
 594.132537856 655 604 640.729904333 604 630 c 2
 604 90 l 2
 604 74.8674621445 589.729904333 65 579 65 c 2
 569 65 l 2
 553.867462144 65 544 79.2700956673 544 90 c 2
 544 183.474094626 l 1
 209 559.241290393 l 1
 209 90 l 2
 209 74.8674621445 194.729904333 65 184 65 c 2
 174 65 l 2
 158.867462144 65 149 79.2700956673 149 90 c 2
 149 619 l 2
 149 642.438847583 169.113483786 656 186 656 c 0
 201.336726281 656 213.145493298 645.209845761 218.67766953 639.67766953 c 0
 219.00766473 639.347674329 219.455378385 638.867682376 219.685232967 638.609095971 c 2
EndSplineSet
Substitution2: "'ss12' Style Set 12 in Latin lookup 25 subtable" Ntilde.v
Substitution2: "'ss01' Style Set 1 in Latin lookup 21 subtable" Ntilde.v
Substitution2: "'vert' Vertical Alternates (obs) in Latin lookup 20 subtable" Ntilde.v
Substitution2: "'ss02' Style Set 2 in Latin lookup 7 subtable" Ntilde.salt
Position2: "'ss11' Style Set 11 in Latin lookup 1 per glyph data 33" dx=264 dy=0 dh=527 dv=0
EndChar

StartChar: Nacute
Encoding: 323 323 60
Width: 753
Flags: HMW
HStem: 617 14<184 184 183 191>
VStem: 174 10<90 617 90 619 90 623> 569 10<90 193 193 193 208 630 90 630>
LayerCount: 2
Fore
SplineSet
262.886358131 871.80534689 m 2
 501.886358131 901.80534689 l 2
 517.282744872 903.737947736 530 890.615198751 530 877 c 2
 530 867 l 2
 530 853.806211551 518.920810922 843.551201527 508.113641869 842.19465311 c 2
 269.113641869 812.19465311 l 2
 253.717255128 810.262052264 241 823.384801249 241 837 c 2
 241 847 l 2
 241 860.193788449 252.079189078 870.448798473 262.886358131 871.80534689 c 2
219.685232967 638.609095971 m 2
 544 273.754983059 l 1
 544 630 l 2
 544 645.132537856 558.270095667 655 569 655 c 2
 579 655 l 2
 594.132537856 655 604 640.729904333 604 630 c 2
 604 90 l 2
 604 74.8674621445 589.729904333 65 579 65 c 2
 569 65 l 2
 553.867462144 65 544 79.2700956673 544 90 c 2
 544 183.474094626 l 1
 209 559.241290393 l 1
 209 90 l 2
 209 74.8674621445 194.729904333 65 184 65 c 2
 174 65 l 2
 158.867462144 65 149 79.2700956673 149 90 c 2
 149 619 l 2
 149 642.438847583 169.113483786 656 186 656 c 0
 201.336726281 656 213.145493298 645.209845761 218.67766953 639.67766953 c 0
 219.00766473 639.347674329 219.455378385 638.867682376 219.685232967 638.609095971 c 2
EndSplineSet
Substitution2: "'ss12' Style Set 12 in Latin lookup 25 subtable" Nacute.v
Substitution2: "'ss01' Style Set 1 in Latin lookup 21 subtable" Nacute.v
Substitution2: "'vert' Vertical Alternates (obs) in Latin lookup 20 subtable" Nacute.v
Substitution2: "'ss02' Style Set 2 in Latin lookup 7 subtable" Nacute.salt
Position2: "'ss11' Style Set 11 in Latin lookup 1 per glyph data 33" dx=264 dy=0 dh=527 dv=0
EndChar

StartChar: Ncommaaccent
Encoding: 325 325 61
Width: 753
Flags: HMW
HStem: -315 10<317 352 317 352> -142 10<317 425 317 435> 617 14<184 184 183 191>
VStem: 174 10<90 617 90 619 90 623> 425 10<-229 -142 -142 -142> 569 10<90 193 193 193 208 630 90 630>
LayerCount: 2
Fore
SplineSet
460 -132 m 2
 460 -229 l 2
 460 -301.694361765 417.329866624 -340 352 -340 c 2
 317 -340 l 2
 301.867462144 -340 292 -325.729904333 292 -315 c 2
 292 -305 l 2
 292 -289.867462144 306.270095667 -280 317 -280 c 2
 352 -280 l 2
 388.571730604 -280 400 -271.539980137 400 -229 c 2
 400 -167 l 1
 317 -167 l 2
 301.867462144 -167 292 -152.729904333 292 -142 c 2
 292 -132 l 2
 292 -116.867462144 306.270095667 -107 317 -107 c 2
 435 -107 l 2
 450.132537856 -107 460 -121.270095667 460 -132 c 2
219.685232967 638.609095971 m 2
 544 273.754983059 l 1
 544 630 l 2
 544 645.132537856 558.270095667 655 569 655 c 2
 579 655 l 2
 594.132537856 655 604 640.729904333 604 630 c 2
 604 90 l 2
 604 74.8674621445 589.729904333 65 579 65 c 2
 569 65 l 2
 553.867462144 65 544 79.2700956673 544 90 c 2
 544 183.474094626 l 1
 209 559.241290393 l 1
 209 90 l 2
 209 74.8674621445 194.729904333 65 184 65 c 2
 174 65 l 2
 158.867462144 65 149 79.2700956673 149 90 c 2
 149 619 l 2
 149 642.438847583 169.113483786 656 186 656 c 0
 201.336726281 656 213.145493298 645.209845761 218.67766953 639.67766953 c 0
 219.00766473 639.347674329 219.455378385 638.867682376 219.685232967 638.609095971 c 2
EndSplineSet
Substitution2: "'ss12' Style Set 12 in Latin lookup 25 subtable" Ncommaaccent.v
Substitution2: "'ss01' Style Set 1 in Latin lookup 21 subtable" Ncommaaccent.v
Substitution2: "'vert' Vertical Alternates (obs) in Latin lookup 20 subtable" Ncommaaccent.v
Substitution2: "'ss02' Style Set 2 in Latin lookup 7 subtable" Ncommaaccent.salt
Position2: "'ss11' Style Set 11 in Latin lookup 1 per glyph data 33" dx=264 dy=0 dh=527 dv=0
EndChar

StartChar: Ncaron
Encoding: 327 327 62
Width: 753
Flags: HMW
HStem: 617 14<184 184 183 191> 841 10<329 333>
VStem: 174 10<90 617 90 619 90 623> 569 10<90 193 193 193 208 630 90 630>
LayerCount: 2
Fore
SplineSet
253.659083413 902.797866318 m 2
 340.422126059 874.874128455 l 2
 350.526365878 871.842856509 356.14638981 870 365 870 c 0
 373.85361019 870 379.473634122 871.842856509 389.577873941 874.874128455 c 2
 476.340916587 902.797866318 l 2
 492.283287915 907.928744446 509 895.568452003 509 879 c 2
 509 868 l 2
 509 856.887560056 500.96566777 847.229447679 491.73362819 844.226254081 c 2
 408.73362819 817.226254081 l 2
 408.20817332 817.055322979 407.461537684 816.845974261 407.063390626 816.746437496 c 0
 396.395488391 814.079461938 383.541208147 810 365 810 c 0
 346.458791853 810 333.604511609 814.079461938 322.936609374 816.746437496 c 0
 322.400549446 816.880452479 321.656642187 817.099298657 321.26637181 817.226254081 c 2
 238.26637181 844.226254081 l 2
 227.698998859 847.663833234 221 858.291770162 221 868 c 2
 221 879 l 2
 221 895.747689809 237.887331178 907.873832554 253.659083413 902.797866318 c 2
219.685232967 638.609095971 m 2
 544 273.754983059 l 1
 544 630 l 2
 544 645.132537856 558.270095667 655 569 655 c 2
 579 655 l 2
 594.132537856 655 604 640.729904333 604 630 c 2
 604 90 l 2
 604 74.8674621445 589.729904333 65 579 65 c 2
 569 65 l 2
 553.867462144 65 544 79.2700956673 544 90 c 2
 544 183.474094626 l 1
 209 559.241290393 l 1
 209 90 l 2
 209 74.8674621445 194.729904333 65 184 65 c 2
 174 65 l 2
 158.867462144 65 149 79.2700956673 149 90 c 2
 149 619 l 2
 149 642.438847583 169.113483786 656 186 656 c 0
 201.336726281 656 213.145493298 645.209845761 218.67766953 639.67766953 c 0
 219.00766473 639.347674329 219.455378385 638.867682376 219.685232967 638.609095971 c 2
EndSplineSet
Substitution2: "'ss12' Style Set 12 in Latin lookup 25 subtable" Ncaron.v
Substitution2: "'ss01' Style Set 1 in Latin lookup 21 subtable" Ncaron.v
Substitution2: "'vert' Vertical Alternates (obs) in Latin lookup 20 subtable" Ncaron.v
Substitution2: "'ss02' Style Set 2 in Latin lookup 7 subtable" Ncaron.salt
Position2: "'ss11' Style Set 11 in Latin lookup 1 per glyph data 33" dx=264 dy=0 dh=527 dv=0
EndChar

StartChar: O
Encoding: 79 79 63
Width: 737
Flags: HMW
HStem: 77 10<292.5 441.5 292.5 445.5> 632 10<292.5 441.5>
VStem: 166 10<212 507> 560 10<212 507>
LayerCount: 2
Fore
SplineSet
201 212 m 2
 201 153.510594645 223.916143036 112 367 112 c 0
 510.354444904 112 535 153.962658991 535 212 c 2
 535 507 l 2
 535 565.051262992 510.353906974 607 367 607 c 0
 223.915339031 607 201 565.478465452 201 507 c 2
 201 212 l 2
595 212 m 2
 595 114.582589792 530.150831885 52 367 52 c 0
 203.59367417 52 141 114.999776066 141 212 c 2
 141 507 l 2
 141 604.001240708 203.593786775 667 367 667 c 0
 530.150893579 667 595 604.416686185 595 507 c 2
 595 212 l 2
EndSplineSet
Substitution2: "'ss12' Style Set 12 in Latin lookup 25 subtable" O.v
Substitution2: "'ss01' Style Set 1 in Latin lookup 21 subtable" O.v
Substitution2: "'vert' Vertical Alternates (obs) in Latin lookup 20 subtable" O.v
Position2: "'ss11' Style Set 11 in Latin lookup 1 per glyph data 40" dx=272 dy=0 dh=543 dv=0
EndChar

StartChar: Ograve
Encoding: 210 210 64
Width: 737
Flags: HMW
HStem: 77 10<292.5 441.5 292.5 445.5> 632 10<292.5 441.5>
VStem: 166 10<212 507> 560 10<212 507>
LayerCount: 2
Fore
SplineSet
223 867 m 2
 223 877 l 2
 223 892.517205635 237.60445275 903.501061005 251.113641869 901.80534689 c 2
 490.113641869 871.80534689 l 2
 503.20470184 870.162117605 512 857.891975328 512 847 c 2
 512 837 l 2
 512 821.482794365 497.39554725 810.498938995 483.886358131 812.19465311 c 2
 244.886358131 842.19465311 l 2
 231.79529816 843.837882395 223 856.108024672 223 867 c 2
201 212 m 2
 201 153.510594645 223.916143036 112 367 112 c 0
 510.354444904 112 535 153.962658991 535 212 c 2
 535 507 l 2
 535 565.051262992 510.353906974 607 367 607 c 0
 223.915339031 607 201 565.478465452 201 507 c 2
 201 212 l 2
595 212 m 2
 595 114.582589792 530.150831885 52 367 52 c 0
 203.59367417 52 141 114.999776066 141 212 c 2
 141 507 l 2
 141 604.001240708 203.593786775 667 367 667 c 0
 530.150893579 667 595 604.416686185 595 507 c 2
 595 212 l 2
EndSplineSet
Substitution2: "'ss12' Style Set 12 in Latin lookup 25 subtable" Ograve.v
Substitution2: "'ss01' Style Set 1 in Latin lookup 21 subtable" Ograve.v
Substitution2: "'vert' Vertical Alternates (obs) in Latin lookup 20 subtable" Ograve.v
Position2: "'ss11' Style Set 11 in Latin lookup 1 per glyph data 40" dx=272 dy=0 dh=543 dv=0
EndChar

StartChar: Oacute
Encoding: 211 211 65
Width: 737
Flags: HMW
HStem: 77 10<292.5 441.5 292.5 445.5> 632 10<292.5 441.5>
VStem: 166 10<212 507> 560 10<212 507>
LayerCount: 2
Fore
SplineSet
244.886358131 871.80534689 m 2
 483.886358131 901.80534689 l 2
 499.282744872 903.737947736 512 890.615198751 512 877 c 2
 512 867 l 2
 512 853.806211551 500.920810922 843.551201527 490.113641869 842.19465311 c 2
 251.113641869 812.19465311 l 2
 235.717255128 810.262052264 223 823.384801249 223 837 c 2
 223 847 l 2
 223 860.193788449 234.079189078 870.448798473 244.886358131 871.80534689 c 2
201 212 m 2
 201 153.510594645 223.916143036 112 367 112 c 0
 510.354444904 112 535 153.962658991 535 212 c 2
 535 507 l 2
 535 565.051262992 510.353906974 607 367 607 c 0
 223.915339031 607 201 565.478465452 201 507 c 2
 201 212 l 2
595 212 m 2
 595 114.582589792 530.150831885 52 367 52 c 0
 203.59367417 52 141 114.999776066 141 212 c 2
 141 507 l 2
 141 604.001240708 203.593786775 667 367 667 c 0
 530.150893579 667 595 604.416686185 595 507 c 2
 595 212 l 2
EndSplineSet
Substitution2: "'ss12' Style Set 12 in Latin lookup 25 subtable" Oacute.v
Substitution2: "'ss01' Style Set 1 in Latin lookup 21 subtable" Oacute.v
Substitution2: "'vert' Vertical Alternates (obs) in Latin lookup 20 subtable" Oacute.v
Position2: "'ss11' Style Set 11 in Latin lookup 1 per glyph data 40" dx=272 dy=0 dh=543 dv=0
EndChar

StartChar: Ocircumflex
Encoding: 212 212 66
Width: 737
Flags: HMW
HStem: 77 10<292.5 441.5 292.5 445.5> 632 10<292.5 441.5> 878 10<331 335>
VStem: 166 10<212 507> 560 10<212 507>
LayerCount: 2
Fore
SplineSet
478.340916587 826.202133682 m 2
 391.577873941 854.125871545 l 2
 381.473634122 857.157143491 375.85361019 859 367 859 c 0
 358.14638981 859 352.526365878 857.157143491 342.422126059 854.125871545 c 2
 255.659083413 826.202133682 l 2
 239.716712085 821.071255554 223 833.431547997 223 850 c 2
 223 861 l 2
 223 872.112439944 231.03433223 881.770552321 240.26637181 884.773745919 c 2
 323.26637181 911.773745919 l 2
 323.79182668 911.944677021 324.538462316 912.154025739 324.936609374 912.253562504 c 0
 335.604511609 914.920538062 348.458791853 919 367 919 c 0
 385.541208147 919 398.395488391 914.920538062 409.063390626 912.253562504 c 0
 409.599450554 912.119547521 410.343357813 911.900701343 410.73362819 911.773745919 c 2
 493.73362819 884.773745919 l 2
 504.301001141 881.336166766 511 870.708229838 511 861 c 2
 511 850 l 2
 511 833.252310191 494.112668822 821.126167446 478.340916587 826.202133682 c 2
201 212 m 2
 201 153.510594645 223.916143036 112 367 112 c 0
 510.354444904 112 535 153.962658991 535 212 c 2
 535 507 l 2
 535 565.051262992 510.353906974 607 367 607 c 0
 223.915339031 607 201 565.478465452 201 507 c 2
 201 212 l 2
595 212 m 2
 595 114.582589792 530.150831885 52 367 52 c 0
 203.59367417 52 141 114.999776066 141 212 c 2
 141 507 l 2
 141 604.001240708 203.593786775 667 367 667 c 0
 530.150893579 667 595 604.416686185 595 507 c 2
 595 212 l 2
EndSplineSet
Substitution2: "'ss12' Style Set 12 in Latin lookup 25 subtable" Ocircumflex.v
Substitution2: "'ss01' Style Set 1 in Latin lookup 21 subtable" Ocircumflex.v
Substitution2: "'vert' Vertical Alternates (obs) in Latin lookup 20 subtable" Ocircumflex.v
Position2: "'ss11' Style Set 11 in Latin lookup 1 per glyph data 40" dx=272 dy=0 dh=543 dv=0
EndChar

StartChar: Otilde
Encoding: 213 213 67
Width: 737
Flags: HMW
HStem: 77 10<292.5 441.5 292.5 445.5> 632 10<292.5 441.5> 831 10<486 486> 843 10
VStem: 166 10<212 507> 560 10<212 507>
LayerCount: 2
Fore
SplineSet
511 841 m 2
 511 831 l 2
 511 817.869109695 500.137675011 807.417005173 488.760788152 806.152906633 c 0
 457.956702721 802.730230474 428.685838165 806.391735507 378.506951231 814.242075633 c 2
 362.681543579 816.220251589 l 1
 334.268059914 820.279320684 l 2
 290.575939647 827.230339818 270.312106816 827.646883313 252.472135955 824.403252248 c 0
 236.127234888 821.431452054 223 835.762699252 223 849 c 2
 223 860 l 2
 223 873.212496489 234.150725173 883.405341337 244.766520398 884.79001028 c 0
 271.811710784 888.317643808 297.994574255 885.821966683 343.419888126 879.765258167 c 2
 371.318456421 875.779748411 l 1
 387.488382326 873.758507673 l 2
 439.531346491 865.594905451 459.976422735 863.262339021 483.239211848 865.847093367 c 0
 498.814846865 867.57771948 511 853.946593607 511 841 c 2
201 212 m 2
 201 153.510594645 223.916143036 112 367 112 c 0
 510.354444904 112 535 153.962658991 535 212 c 2
 535 507 l 2
 535 565.051262992 510.353906974 607 367 607 c 0
 223.915339031 607 201 565.478465452 201 507 c 2
 201 212 l 2
595 212 m 2
 595 114.582589792 530.150831885 52 367 52 c 0
 203.59367417 52 141 114.999776066 141 212 c 2
 141 507 l 2
 141 604.001240708 203.593786775 667 367 667 c 0
 530.150893579 667 595 604.416686185 595 507 c 2
 595 212 l 2
EndSplineSet
Substitution2: "'ss12' Style Set 12 in Latin lookup 25 subtable" Otilde.v
Substitution2: "'ss01' Style Set 1 in Latin lookup 21 subtable" Otilde.v
Substitution2: "'vert' Vertical Alternates (obs) in Latin lookup 20 subtable" Otilde.v
Position2: "'ss11' Style Set 11 in Latin lookup 1 per glyph data 40" dx=272 dy=0 dh=543 dv=0
EndChar

StartChar: Odieresis
Encoding: 214 214 68
Width: 737
Flags: HMW
HStem: 77 10<292.5 441.5 292.5 445.5> 632 10<292.5 441.5> 830 47<232 242 232 242 490 500>
VStem: 166 10<212 507> 232 10<830 877> 490 10<830 877> 560 10<212 507>
LayerCount: 2
Fore
SplineSet
500 805 m 2
 490 805 l 2
 474.867462144 805 465 819.270095667 465 830 c 2
 465 877 l 2
 465 892.132537856 479.270095667 902 490 902 c 2
 500 902 l 2
 515.132537856 902 525 887.729904333 525 877 c 2
 525 830 l 2
 525 814.867462144 510.729904333 805 500 805 c 2
242 805 m 2
 232 805 l 2
 216.867462144 805 207 819.270095667 207 830 c 2
 207 877 l 2
 207 892.132537856 221.270095667 902 232 902 c 2
 242 902 l 2
 257.132537856 902 267 887.729904333 267 877 c 2
 267 830 l 2
 267 814.867462144 252.729904333 805 242 805 c 2
201 212 m 2
 201 153.510594645 223.916143036 112 367 112 c 0
 510.354444904 112 535 153.962658991 535 212 c 2
 535 507 l 2
 535 565.051262992 510.353906974 607 367 607 c 0
 223.915339031 607 201 565.478465452 201 507 c 2
 201 212 l 2
595 212 m 2
 595 114.582589792 530.150831885 52 367 52 c 0
 203.59367417 52 141 114.999776066 141 212 c 2
 141 507 l 2
 141 604.001240708 203.593786775 667 367 667 c 0
 530.150893579 667 595 604.416686185 595 507 c 2
 595 212 l 2
EndSplineSet
Substitution2: "'ss12' Style Set 12 in Latin lookup 25 subtable" Odieresis.v
Substitution2: "'ss01' Style Set 1 in Latin lookup 21 subtable" Odieresis.v
Substitution2: "'vert' Vertical Alternates (obs) in Latin lookup 20 subtable" Odieresis.v
Position2: "'ss11' Style Set 11 in Latin lookup 1 per glyph data 40" dx=272 dy=0 dh=543 dv=0
EndChar

StartChar: Omacron
Encoding: 332 332 69
Width: 737
Flags: HMW
HStem: 77 10<292.5 441.5 292.5 445.5> 632 10<292.5 441.5> 837 10<248 487 248 487>
VStem: 166 10<212 507> 560 10<212 507>
LayerCount: 2
Fore
SplineSet
248 872 m 2
 487 872 l 2
 502.132537856 872 512 857.729904333 512 847 c 2
 512 837 l 2
 512 821.867462144 497.729904333 812 487 812 c 2
 248 812 l 2
 232.867462144 812 223 826.270095667 223 837 c 2
 223 847 l 2
 223 862.132537856 237.270095667 872 248 872 c 2
201 212 m 2
 201 153.510594645 223.916143036 112 367 112 c 0
 510.354444904 112 535 153.962658991 535 212 c 2
 535 507 l 2
 535 565.051262992 510.353906974 607 367 607 c 0
 223.915339031 607 201 565.478465452 201 507 c 2
 201 212 l 2
595 212 m 2
 595 114.582589792 530.150831885 52 367 52 c 0
 203.59367417 52 141 114.999776066 141 212 c 2
 141 507 l 2
 141 604.001240708 203.593786775 667 367 667 c 0
 530.150893579 667 595 604.416686185 595 507 c 2
 595 212 l 2
EndSplineSet
Substitution2: "'ss12' Style Set 12 in Latin lookup 25 subtable" Omacron.v
Substitution2: "'ss01' Style Set 1 in Latin lookup 21 subtable" Omacron.v
Substitution2: "'vert' Vertical Alternates (obs) in Latin lookup 20 subtable" Omacron.v
Position2: "'ss11' Style Set 11 in Latin lookup 1 per glyph data 40" dx=272 dy=0 dh=543 dv=0
EndChar

StartChar: Obreve
Encoding: 334 334 70
Width: 737
Flags: HMW
HStem: 77 10<292.5 441.5 292.5 445.5> 632 10<292.5 441.5> 818 10<313 421 313 429>
VStem: 166 10<212 507> 227 10<898 907 880 907> 502 10<898 907 879 907> 560 10<212 507>
LayerCount: 2
Fore
SplineSet
502 932 m 2
 512 932 l 2
 527.132537856 932 537 917.729904333 537 907 c 2
 537 898 l 2
 537 843.091100103 496.602341268 793 367 793 c 0
 236.418217009 793 202 844.869876646 202 898 c 2
 202 907 l 2
 202 922.132537856 216.270095667 932 227 932 c 2
 237 932 l 2
 252.132537856 932 262 917.729904333 262 907 c 2
 262 898 l 2
 262 880.279956546 263.266659849 853 367 853 c 0
 471.768066385 853 477 882.136424644 477 898 c 2
 477 907 l 2
 477 922.132537856 491.270095667 932 502 932 c 2
201 212 m 2
 201 153.510594645 223.916143036 112 367 112 c 0
 510.354444904 112 535 153.962658991 535 212 c 2
 535 507 l 2
 535 565.051262992 510.353906974 607 367 607 c 0
 223.915339031 607 201 565.478465452 201 507 c 2
 201 212 l 2
595 212 m 2
 595 114.582589792 530.150831885 52 367 52 c 0
 203.59367417 52 141 114.999776066 141 212 c 2
 141 507 l 2
 141 604.001240708 203.593786775 667 367 667 c 0
 530.150893579 667 595 604.416686185 595 507 c 2
 595 212 l 2
EndSplineSet
Substitution2: "'ss12' Style Set 12 in Latin lookup 25 subtable" Obreve.v
Substitution2: "'ss01' Style Set 1 in Latin lookup 21 subtable" Obreve.v
Substitution2: "'vert' Vertical Alternates (obs) in Latin lookup 20 subtable" Obreve.v
Position2: "'ss11' Style Set 11 in Latin lookup 1 per glyph data 40" dx=272 dy=0 dh=543 dv=0
EndChar

StartChar: Ohungarumlaut
Encoding: 336 336 71
Width: 737
Flags: HMW
HStem: 77 10<292.5 441.5 292.5 445.5> 632 10<292.5 441.5> 850 97<244 280 244 280>
VStem: 166 10<212 507> 560 10<212 507>
LayerCount: 2
Fore
SplineSet
255 825 m 2
 244 825 l 2
 226.450159993 825 216.378351736 842.997860482 219.791120173 856.239402017 c 2
 244.791120173 953.239402017 l 2
 247.749365181 964.717392647 259.076123764 972 269 972 c 2
 280 972 l 2
 297.549840007 972 307.621648264 954.002139518 304.208879827 940.760597983 c 2
 279.208879827 843.760597983 l 2
 276.250634819 832.282607353 264.923876236 825 255 825 c 2
515 825 m 2
 504 825 l 2
 486.450159993 825 476.378351736 842.997860482 479.791120173 856.239402017 c 2
 504.791120173 953.239402017 l 2
 507.749365181 964.717392647 519.076123764 972 529 972 c 2
 540 972 l 2
 557.549840007 972 567.621648264 954.002139518 564.208879827 940.760597983 c 2
 539.208879827 843.760597983 l 2
 536.250634819 832.282607353 524.923876236 825 515 825 c 2
201 212 m 2
 201 153.510594645 223.916143036 112 367 112 c 0
 510.354444904 112 535 153.962658991 535 212 c 2
 535 507 l 2
 535 565.051262992 510.353906974 607 367 607 c 0
 223.915339031 607 201 565.478465452 201 507 c 2
 201 212 l 2
595 212 m 2
 595 114.582589792 530.150831885 52 367 52 c 0
 203.59367417 52 141 114.999776066 141 212 c 2
 141 507 l 2
 141 604.001240708 203.593786775 667 367 667 c 0
 530.150893579 667 595 604.416686185 595 507 c 2
 595 212 l 2
EndSplineSet
Substitution2: "'ss12' Style Set 12 in Latin lookup 25 subtable" Ohungarumlaut.v
Substitution2: "'ss01' Style Set 1 in Latin lookup 21 subtable" Ohungarumlaut.v
Substitution2: "'vert' Vertical Alternates (obs) in Latin lookup 20 subtable" Ohungarumlaut.v
Position2: "'ss11' Style Set 11 in Latin lookup 1 per glyph data 40" dx=272 dy=0 dh=543 dv=0
EndChar

StartChar: P
Encoding: 80 80 72
Width: 682
Flags: HMW
HStem: 287 10<191 397 191 397> 620 10<191 397 191 191>
VStem: 181 10<90 287 297 620> 537 10<420 494>
LayerCount: 2
Fore
SplineSet
216 322 m 1
 397 322 l 2
 502.828974938 322 512 357.141243125 512 420 c 2
 512 494 l 2
 512 557.375334003 502.100611499 595 397 595 c 2
 216 595 l 1
 216 322 l 1
397 262 m 2
 216 262 l 1
 216 90 l 2
 216 74.8674621445 201.729904333 65 191 65 c 2
 181 65 l 2
 165.867462144 65 156 79.2700956673 156 90 c 2
 156 630 l 2
 156 645.132537856 170.270095667 655 181 655 c 2
 397 655 l 2
 535.972381056 655 572 580.584417133 572 494 c 2
 572 420 l 2
 572 332.936376856 535.300331614 262 397 262 c 2
EndSplineSet
Substitution2: "'ss12' Style Set 12 in Latin lookup 25 subtable" P.v
Substitution2: "'ss01' Style Set 1 in Latin lookup 21 subtable" P.v
Substitution2: "'vert' Vertical Alternates (obs) in Latin lookup 20 subtable" P.v
Position2: "'ss11' Style Set 11 in Latin lookup 1 per glyph data 64" dx=299 dy=0 dh=598 dv=0
EndChar

StartChar: Q
Encoding: 81 81 73
Width: 737
Flags: HMW
HStem: 0 87<362 362 362 372> 77 10<362 362 372 372> 632 10<292.5 441.5>
VStem: 166 10<212 507> 362 10<0 77 0 77> 560 10<212 507>
LayerCount: 2
Fore
SplineSet
201 212 m 2
 201 153.510594645 223.916143036 112 367 112 c 0
 510.354444904 112 535 153.962658991 535 212 c 2
 535 507 l 2
 535 565.051262992 510.353906974 607 367 607 c 0
 223.915339031 607 201 565.478465452 201 507 c 2
 201 212 l 2
337 0 m 2
 337 52.647928148 l 1
 194.506304624 59.565849281 141 122.475978883 141 212 c 2
 141 507 l 2
 141 604.001240708 203.593786775 667 367 667 c 0
 530.150893579 667 595 604.416686185 595 507 c 2
 595 212 l 2
 595 121.442103239 537.81977766 59.4541274908 397 52.6472298511 c 1
 397 0 l 2
 397 -15.1325378555 382.729904333 -25 372 -25 c 2
 362 -25 l 2
 346.867462144 -25 337 -10.7299043327 337 0 c 2
EndSplineSet
Substitution2: "'ss12' Style Set 12 in Latin lookup 25 subtable" Q.v
Substitution2: "'ss01' Style Set 1 in Latin lookup 21 subtable" Q.v
Substitution2: "'vert' Vertical Alternates (obs) in Latin lookup 20 subtable" Q.v
Position2: "'ss11' Style Set 11 in Latin lookup 1 per glyph data 40" dx=272 dy=0 dh=543 dv=0
EndChar

StartChar: R
Encoding: 82 82 74
Width: 743
Flags: HMW
HStem: 322 9<187 405 405 446.5 459 470 187 405> 620 10<187 405 187 187>
VStem: 177 10<90 322 331 620> 509 10<446 447 447 516> 581 10<90 224 90 257>
LayerCount: 2
Fore
SplineSet
187 65 m 2
 177 65 l 2
 161.867462144 65 152 79.2700956673 152 90 c 2
 152 630 l 2
 152 645.132537856 166.270095667 655 177 655 c 2
 405 655 l 2
 496.847658046 655 544 592.860071602 544 516 c 2
 544 447 l 2
 544 410.119027426 539.716099815 376.144492082 523.667499264 350.003454373 c 1
 584.594049318 334.677346507 616 287.232413444 616 224 c 2
 616 109 l 1
 616 90 l 2
 616 74.8674621445 601.729904333 65 591 65 c 2
 581 65 l 2
 565.867462144 65 556 79.2700956673 556 90 c 2
 556 224 l 2
 556 276.240368292 536.684942496 297 470 297 c 2
 212 297 l 1
 212 90 l 2
 212 74.8674621445 197.729904333 65 187 65 c 2
405 595 m 2
 212 595 l 1
 212 356 l 1
 405 356 l 2
 473.120213913 356 484 378.545629407 484 446 c 2
 484 516 l 2
 484 567.011492553 462.456411929 595 405 595 c 2
EndSplineSet
Substitution2: "'ss12' Style Set 12 in Latin lookup 25 subtable" R.v
Substitution2: "'ss01' Style Set 1 in Latin lookup 21 subtable" R.v
Substitution2: "'vert' Vertical Alternates (obs) in Latin lookup 20 subtable" R.v
Position2: "'ss11' Style Set 11 in Latin lookup 1 per glyph data 38" dx=269 dy=0 dh=537 dv=0
EndChar

StartChar: Racute
Encoding: 340 340 75
Width: 743
Flags: HMW
HStem: 322 9<187 405 405 446.5 459 470 187 405> 620 10<187 405 187 187>
VStem: 177 10<90 322 331 620> 509 10<446 447 447 516> 581 10<90 224 90 257>
LayerCount: 2
Fore
SplineSet
237.886358131 871.80534689 m 2
 476.886358131 901.80534689 l 2
 492.282744872 903.737947736 505 890.615198751 505 877 c 2
 505 867 l 2
 505 853.806211551 493.920810922 843.551201527 483.113641869 842.19465311 c 2
 244.113641869 812.19465311 l 2
 228.717255128 810.262052264 216 823.384801249 216 837 c 2
 216 847 l 2
 216 860.193788449 227.079189078 870.448798473 237.886358131 871.80534689 c 2
187 65 m 2
 177 65 l 2
 161.867462144 65 152 79.2700956673 152 90 c 2
 152 630 l 2
 152 645.132537856 166.270095667 655 177 655 c 2
 405 655 l 2
 496.847658046 655 544 592.860071602 544 516 c 2
 544 447 l 2
 544 410.119027426 539.716099815 376.144492082 523.667499264 350.003454373 c 1
 584.594049318 334.677346507 616 287.232413444 616 224 c 2
 616 109 l 1
 616 90 l 2
 616 74.8674621445 601.729904333 65 591 65 c 2
 581 65 l 2
 565.867462144 65 556 79.2700956673 556 90 c 2
 556 224 l 2
 556 276.240368292 536.684942496 297 470 297 c 2
 212 297 l 1
 212 90 l 2
 212 74.8674621445 197.729904333 65 187 65 c 2
405 595 m 2
 212 595 l 1
 212 356 l 1
 405 356 l 2
 473.120213913 356 484 378.545629407 484 446 c 2
 484 516 l 2
 484 567.011492553 462.456411929 595 405 595 c 2
EndSplineSet
Substitution2: "'ss12' Style Set 12 in Latin lookup 25 subtable" Racute.v
Substitution2: "'ss01' Style Set 1 in Latin lookup 21 subtable" Racute.v
Substitution2: "'vert' Vertical Alternates (obs) in Latin lookup 20 subtable" Racute.v
Position2: "'ss11' Style Set 11 in Latin lookup 1 per glyph data 38" dx=269 dy=0 dh=537 dv=0
EndChar

StartChar: Rcommaaccent
Encoding: 342 342 76
Width: 743
Flags: HMW
HStem: -315 10<322 357 322 357> -142 10<322 430 322 440> 322 9<187 405 405 446.5 459 470 187 405> 620 10<187 405 187 187>
VStem: 177 10<90 322 331 620> 430 10<-229 -142 -142 -142> 509 10<446 447 447 516> 581 10<90 224 90 257>
LayerCount: 2
Fore
SplineSet
465 -132 m 2
 465 -229 l 2
 465 -301.694361765 422.329866624 -340 357 -340 c 2
 322 -340 l 2
 306.867462144 -340 297 -325.729904333 297 -315 c 2
 297 -305 l 2
 297 -289.867462144 311.270095667 -280 322 -280 c 2
 357 -280 l 2
 393.571730604 -280 405 -271.539980137 405 -229 c 2
 405 -167 l 1
 322 -167 l 2
 306.867462144 -167 297 -152.729904333 297 -142 c 2
 297 -132 l 2
 297 -116.867462144 311.270095667 -107 322 -107 c 2
 440 -107 l 2
 455.132537856 -107 465 -121.270095667 465 -132 c 2
187 65 m 2
 177 65 l 2
 161.867462144 65 152 79.2700956673 152 90 c 2
 152 630 l 2
 152 645.132537856 166.270095667 655 177 655 c 2
 405 655 l 2
 496.847658046 655 544 592.860071602 544 516 c 2
 544 447 l 2
 544 410.119027426 539.716099815 376.144492082 523.667499264 350.003454373 c 1
 584.594049318 334.677346507 616 287.232413444 616 224 c 2
 616 109 l 1
 616 90 l 2
 616 74.8674621445 601.729904333 65 591 65 c 2
 581 65 l 2
 565.867462144 65 556 79.2700956673 556 90 c 2
 556 224 l 2
 556 276.240368292 536.684942496 297 470 297 c 2
 212 297 l 1
 212 90 l 2
 212 74.8674621445 197.729904333 65 187 65 c 2
405 595 m 2
 212 595 l 1
 212 356 l 1
 405 356 l 2
 473.120213913 356 484 378.545629407 484 446 c 2
 484 516 l 2
 484 567.011492553 462.456411929 595 405 595 c 2
EndSplineSet
Substitution2: "'ss12' Style Set 12 in Latin lookup 25 subtable" Rcommaaccent.v
Substitution2: "'ss01' Style Set 1 in Latin lookup 21 subtable" Rcommaaccent.v
Substitution2: "'vert' Vertical Alternates (obs) in Latin lookup 20 subtable" Rcommaaccent.v
Position2: "'ss11' Style Set 11 in Latin lookup 1 per glyph data 38" dx=269 dy=0 dh=537 dv=0
EndChar

StartChar: Rcaron
Encoding: 344 344 77
Width: 743
Flags: HMW
HStem: 322 9<187 405 405 446.5 459 470 187 405> 620 10<187 405 187 187> 841 10<334 338>
VStem: 177 10<90 322 331 620> 509 10<446 447 447 516> 581 10<90 224 90 257>
LayerCount: 2
Fore
SplineSet
258.659083413 902.797866318 m 2
 345.422126059 874.874128455 l 2
 355.526365878 871.842856509 361.14638981 870 370 870 c 0
 378.85361019 870 384.473634122 871.842856509 394.577873941 874.874128455 c 2
 481.340916587 902.797866318 l 2
 497.283287915 907.928744446 514 895.568452003 514 879 c 2
 514 868 l 2
 514 856.887560056 505.96566777 847.229447679 496.73362819 844.226254081 c 2
 413.73362819 817.226254081 l 2
 413.20817332 817.055322979 412.461537684 816.845974261 412.063390626 816.746437496 c 0
 401.395488391 814.079461938 388.541208147 810 370 810 c 0
 351.458791853 810 338.604511609 814.079461938 327.936609374 816.746437496 c 0
 327.400549446 816.880452479 326.656642187 817.099298657 326.26637181 817.226254081 c 2
 243.26637181 844.226254081 l 2
 232.698998859 847.663833234 226 858.291770162 226 868 c 2
 226 879 l 2
 226 895.747689809 242.887331178 907.873832554 258.659083413 902.797866318 c 2
187 65 m 2
 177 65 l 2
 161.867462144 65 152 79.2700956673 152 90 c 2
 152 630 l 2
 152 645.132537856 166.270095667 655 177 655 c 2
 405 655 l 2
 496.847658046 655 544 592.860071602 544 516 c 2
 544 447 l 2
 544 410.119027426 539.716099815 376.144492082 523.667499264 350.003454373 c 1
 584.594049318 334.677346507 616 287.232413444 616 224 c 2
 616 109 l 1
 616 90 l 2
 616 74.8674621445 601.729904333 65 591 65 c 2
 581 65 l 2
 565.867462144 65 556 79.2700956673 556 90 c 2
 556 224 l 2
 556 276.240368292 536.684942496 297 470 297 c 2
 212 297 l 1
 212 90 l 2
 212 74.8674621445 197.729904333 65 187 65 c 2
405 595 m 2
 212 595 l 1
 212 356 l 1
 405 356 l 2
 473.120213913 356 484 378.545629407 484 446 c 2
 484 516 l 2
 484 567.011492553 462.456411929 595 405 595 c 2
EndSplineSet
Substitution2: "'ss12' Style Set 12 in Latin lookup 25 subtable" Rcaron.v
Substitution2: "'ss01' Style Set 1 in Latin lookup 21 subtable" Rcaron.v
Substitution2: "'vert' Vertical Alternates (obs) in Latin lookup 20 subtable" Rcaron.v
Position2: "'ss11' Style Set 11 in Latin lookup 1 per glyph data 38" dx=269 dy=0 dh=537 dv=0
EndChar

StartChar: S
Encoding: 83 83 78
Width: 650
Flags: HMW
HStem: 90 10<141 390 141 390> 620 10<234 484 262 484>
VStem: 160 10<457 539> 491 10<191 249>
LayerCount: 2
Fore
SplineSet
509 630 m 2
 509 620 l 2
 509 604.867462144 494.729904333 595 484 595 c 2
 262 595 l 2
 216.806292865 595 195 570.60539104 195 539 c 2
 195 457 l 2
 195 420.644353342 202.77850907 418.990697283 225.871480252 414.521089957 c 2
 436.947556267 371.505586315 l 2
 485.824634129 361.730170742 526 328.928682794 526 249 c 2
 526 191 l 2
 526 117.470018626 469.448562914 65 390 65 c 2
 141 65 l 2
 125.867462144 65 116 79.2700956673 116 90 c 2
 116 100 l 2
 116 115.132537856 130.270095667 125 141 125 c 2
 390 125 l 2
 440.730563872 125 466 152.698537541 466 191 c 2
 466 249 l 2
 466 302.680635873 452.945641402 306.461086682 424.862070043 312.533210219 c 2
 214.052443733 355.494413685 l 2
 171.855333935 363.933835645 135 390.85870291 135 457 c 2
 135 539 l 2
 135 607.041388157 188.968566119 655 262 655 c 2
 484 655 l 2
 499.132537856 655 509 640.729904333 509 630 c 2
EndSplineSet
Substitution2: "'ss12' Style Set 12 in Latin lookup 25 subtable" S.v
Substitution2: "'ss01' Style Set 1 in Latin lookup 21 subtable" S.v
Substitution2: "'vert' Vertical Alternates (obs) in Latin lookup 20 subtable" S.v
Position2: "'ss11' Style Set 11 in Latin lookup 1 per glyph data 69" dx=315 dy=0 dh=630 dv=0
EndChar

StartChar: Sacute
Encoding: 346 346 79
Width: 650
Flags: HMW
HStem: 90 10<141 390 141 390> 620 10<234 484 262 484>
VStem: 160 10<457 539> 491 10<191 249>
LayerCount: 2
Fore
SplineSet
211.886358131 871.80534689 m 2
 450.886358131 901.80534689 l 2
 466.282744872 903.737947736 479 890.615198751 479 877 c 2
 479 867 l 2
 479 853.806211551 467.920810922 843.551201527 457.113641869 842.19465311 c 2
 218.113641869 812.19465311 l 2
 202.717255128 810.262052264 190 823.384801249 190 837 c 2
 190 847 l 2
 190 860.193788449 201.079189078 870.448798473 211.886358131 871.80534689 c 2
509 630 m 2
 509 620 l 2
 509 604.867462144 494.729904333 595 484 595 c 2
 262 595 l 2
 216.806292865 595 195 570.60539104 195 539 c 2
 195 457 l 2
 195 420.644353342 202.77850907 418.990697283 225.871480252 414.521089957 c 2
 436.947556267 371.505586315 l 2
 485.824634129 361.730170742 526 328.928682794 526 249 c 2
 526 191 l 2
 526 117.470018626 469.448562914 65 390 65 c 2
 141 65 l 2
 125.867462144 65 116 79.2700956673 116 90 c 2
 116 100 l 2
 116 115.132537856 130.270095667 125 141 125 c 2
 390 125 l 2
 440.730563872 125 466 152.698537541 466 191 c 2
 466 249 l 2
 466 302.680635873 452.945641402 306.461086682 424.862070043 312.533210219 c 2
 214.052443733 355.494413685 l 2
 171.855333935 363.933835645 135 390.85870291 135 457 c 2
 135 539 l 2
 135 607.041388157 188.968566119 655 262 655 c 2
 484 655 l 2
 499.132537856 655 509 640.729904333 509 630 c 2
EndSplineSet
Substitution2: "'ss12' Style Set 12 in Latin lookup 25 subtable" Sacute.v
Substitution2: "'ss01' Style Set 1 in Latin lookup 21 subtable" Sacute.v
Substitution2: "'vert' Vertical Alternates (obs) in Latin lookup 20 subtable" Sacute.v
Position2: "'ss11' Style Set 11 in Latin lookup 1 per glyph data 69" dx=315 dy=0 dh=630 dv=0
EndChar

StartChar: Scircumflex
Encoding: 348 348 80
Width: 650
Flags: HMW
HStem: 90 10<141 390 141 390> 620 10<234 484 262 484> 878 10<288 292>
VStem: 160 10<457 539> 491 10<191 249>
LayerCount: 2
Fore
SplineSet
435.340916587 826.202133682 m 2
 348.577873941 854.125871545 l 2
 338.473634122 857.157143491 332.85361019 859 324 859 c 0
 315.14638981 859 309.526365878 857.157143491 299.422126059 854.125871545 c 2
 212.659083413 826.202133682 l 2
 196.716712085 821.071255554 180 833.431547997 180 850 c 2
 180 861 l 2
 180 872.112439944 188.03433223 881.770552321 197.26637181 884.773745919 c 2
 280.26637181 911.773745919 l 2
 280.79182668 911.944677021 281.538462316 912.154025739 281.936609374 912.253562504 c 0
 292.604511609 914.920538062 305.458791853 919 324 919 c 0
 342.541208147 919 355.395488391 914.920538062 366.063390626 912.253562504 c 0
 366.599450554 912.119547521 367.343357813 911.900701343 367.73362819 911.773745919 c 2
 450.73362819 884.773745919 l 2
 461.301001141 881.336166766 468 870.708229838 468 861 c 2
 468 850 l 2
 468 833.252310191 451.112668822 821.126167446 435.340916587 826.202133682 c 2
509 630 m 2
 509 620 l 2
 509 604.867462144 494.729904333 595 484 595 c 2
 262 595 l 2
 216.806292865 595 195 570.60539104 195 539 c 2
 195 457 l 2
 195 420.644353342 202.77850907 418.990697283 225.871480252 414.521089957 c 2
 436.947556267 371.505586315 l 2
 485.824634129 361.730170742 526 328.928682794 526 249 c 2
 526 191 l 2
 526 117.470018626 469.448562914 65 390 65 c 2
 141 65 l 2
 125.867462144 65 116 79.2700956673 116 90 c 2
 116 100 l 2
 116 115.132537856 130.270095667 125 141 125 c 2
 390 125 l 2
 440.730563872 125 466 152.698537541 466 191 c 2
 466 249 l 2
 466 302.680635873 452.945641402 306.461086682 424.862070043 312.533210219 c 2
 214.052443733 355.494413685 l 2
 171.855333935 363.933835645 135 390.85870291 135 457 c 2
 135 539 l 2
 135 607.041388157 188.968566119 655 262 655 c 2
 484 655 l 2
 499.132537856 655 509 640.729904333 509 630 c 2
EndSplineSet
Substitution2: "'ss12' Style Set 12 in Latin lookup 25 subtable" Scircumflex.v
Substitution2: "'ss01' Style Set 1 in Latin lookup 21 subtable" Scircumflex.v
Substitution2: "'vert' Vertical Alternates (obs) in Latin lookup 20 subtable" Scircumflex.v
Position2: "'ss11' Style Set 11 in Latin lookup 1 per glyph data 69" dx=315 dy=0 dh=630 dv=0
EndChar

StartChar: Scedilla
Encoding: 350 350 81
Width: 650
Flags: HMW
HStem: 90 10<141 344 141 390 355 390 355 355> 620 10<234 484 262 484>
VStem: 160 10<457 539> 491 10<191 249>
LayerCount: 2
Fore
SplineSet
390 65 m 2
 372.486956567 65 l 1
 332.483932996 -44.5734993476 l 2
 328.91796589 -54.3411483763 319.355406354 -61 309 -61 c 2
 299 -61 l 2
 284.629596131 -61 272.949602697 -48.3646798474 274.077062701 -34.0385728639 c 0
 274.24796958 -31.8669390899 275.383964734 -27.7945550088 275.45645221 -27.591590075 c 2
 308.524877237 65 l 1
 141 65 l 2
 125.867462144 65 116 79.2700956673 116 90 c 2
 116 100 l 2
 116 115.132537856 130.270095667 125 141 125 c 2
 390 125 l 2
 440.730563872 125 466 152.698537541 466 191 c 2
 466 249 l 2
 466 302.680635873 452.945641402 306.461086682 424.862070043 312.533210219 c 2
 214.052443733 355.494413685 l 2
 171.855333935 363.933835645 135 390.85870291 135 457 c 2
 135 539 l 2
 135 607.041388157 188.968566119 655 262 655 c 2
 484 655 l 2
 499.132537856 655 509 640.729904333 509 630 c 2
 509 620 l 2
 509 604.867462144 494.729904333 595 484 595 c 2
 262 595 l 2
 216.806292865 595 195 570.60539104 195 539 c 2
 195 457 l 2
 195 420.644353342 202.77850907 418.990697283 225.871480252 414.521089957 c 2
 436.947556267 371.505586315 l 2
 485.824634129 361.730170742 526 328.928682794 526 249 c 2
 526 191 l 2
 526 117.470018626 469.448562914 65 390 65 c 2
EndSplineSet
Substitution2: "'ss12' Style Set 12 in Latin lookup 25 subtable" Scedilla.v
Substitution2: "'ss01' Style Set 1 in Latin lookup 21 subtable" Scedilla.v
Substitution2: "'vert' Vertical Alternates (obs) in Latin lookup 20 subtable" Scedilla.v
Substitution2: "'locl' Localized Forms in Latin lookup 0 subtable" Scommaaccent
Position2: "'ss11' Style Set 11 in Latin lookup 1 per glyph data 69" dx=315 dy=0 dh=630 dv=0
EndChar

StartChar: Scaron
Encoding: 352 352 82
Width: 650
Flags: HMW
HStem: 90 10<141 390 141 390> 620 10<234 484 262 484> 841 10<298 302>
VStem: 160 10<457 539> 491 10<191 249>
LayerCount: 2
Fore
SplineSet
222.659083413 902.797866318 m 2
 309.422126059 874.874128455 l 2
 319.526365878 871.842856509 325.14638981 870 334 870 c 0
 342.85361019 870 348.473634122 871.842856509 358.577873941 874.874128455 c 2
 445.340916587 902.797866318 l 2
 461.283287915 907.928744446 478 895.568452003 478 879 c 2
 478 868 l 2
 478 856.887560056 469.96566777 847.229447679 460.73362819 844.226254081 c 2
 377.73362819 817.226254081 l 2
 377.20817332 817.055322979 376.461537684 816.845974261 376.063390626 816.746437496 c 0
 365.395488391 814.079461938 352.541208147 810 334 810 c 0
 315.458791853 810 302.604511609 814.079461938 291.936609374 816.746437496 c 0
 291.400549446 816.880452479 290.656642187 817.099298657 290.26637181 817.226254081 c 2
 207.26637181 844.226254081 l 2
 196.698998859 847.663833234 190 858.291770162 190 868 c 2
 190 879 l 2
 190 895.747689809 206.887331178 907.873832554 222.659083413 902.797866318 c 2
509 630 m 2
 509 620 l 2
 509 604.867462144 494.729904333 595 484 595 c 2
 262 595 l 2
 216.806292865 595 195 570.60539104 195 539 c 2
 195 457 l 2
 195 420.644353342 202.77850907 418.990697283 225.871480252 414.521089957 c 2
 436.947556267 371.505586315 l 2
 485.824634129 361.730170742 526 328.928682794 526 249 c 2
 526 191 l 2
 526 117.470018626 469.448562914 65 390 65 c 2
 141 65 l 2
 125.867462144 65 116 79.2700956673 116 90 c 2
 116 100 l 2
 116 115.132537856 130.270095667 125 141 125 c 2
 390 125 l 2
 440.730563872 125 466 152.698537541 466 191 c 2
 466 249 l 2
 466 302.680635873 452.945641402 306.461086682 424.862070043 312.533210219 c 2
 214.052443733 355.494413685 l 2
 171.855333935 363.933835645 135 390.85870291 135 457 c 2
 135 539 l 2
 135 607.041388157 188.968566119 655 262 655 c 2
 484 655 l 2
 499.132537856 655 509 640.729904333 509 630 c 2
EndSplineSet
Substitution2: "'ss12' Style Set 12 in Latin lookup 25 subtable" Scaron.v
Substitution2: "'ss01' Style Set 1 in Latin lookup 21 subtable" Scaron.v
Substitution2: "'vert' Vertical Alternates (obs) in Latin lookup 20 subtable" Scaron.v
Position2: "'ss11' Style Set 11 in Latin lookup 1 per glyph data 69" dx=315 dy=0 dh=630 dv=0
EndChar

StartChar: Scommaaccent
Encoding: 536 536 83
Width: 650
Flags: HMW
HStem: -315 10<276 311 276 311> -142 10<276 384 276 394> 90 10<141 390 141 390> 620 10<234 484 262 484>
VStem: 160 10<457 539> 384 10<-229 -142 -142 -142> 491 10<191 249>
LayerCount: 2
Fore
SplineSet
419 -132 m 2
 419 -229 l 2
 419 -301.694361765 376.329866624 -340 311 -340 c 2
 276 -340 l 2
 260.867462144 -340 251 -325.729904333 251 -315 c 2
 251 -305 l 2
 251 -289.867462144 265.270095667 -280 276 -280 c 2
 311 -280 l 2
 347.571730604 -280 359 -271.539980137 359 -229 c 2
 359 -167 l 1
 276 -167 l 2
 260.867462144 -167 251 -152.729904333 251 -142 c 2
 251 -132 l 2
 251 -116.867462144 265.270095667 -107 276 -107 c 2
 394 -107 l 2
 409.132537856 -107 419 -121.270095667 419 -132 c 2
509 630 m 2
 509 620 l 2
 509 604.867462144 494.729904333 595 484 595 c 2
 262 595 l 2
 216.806292865 595 195 570.60539104 195 539 c 2
 195 457 l 2
 195 420.644353342 202.77850907 418.990697283 225.871480252 414.521089957 c 2
 436.947556267 371.505586315 l 2
 485.824634129 361.730170742 526 328.928682794 526 249 c 2
 526 191 l 2
 526 117.470018626 469.448562914 65 390 65 c 2
 141 65 l 2
 125.867462144 65 116 79.2700956673 116 90 c 2
 116 100 l 2
 116 115.132537856 130.270095667 125 141 125 c 2
 390 125 l 2
 440.730563872 125 466 152.698537541 466 191 c 2
 466 249 l 2
 466 302.680635873 452.945641402 306.461086682 424.862070043 312.533210219 c 2
 214.052443733 355.494413685 l 2
 171.855333935 363.933835645 135 390.85870291 135 457 c 2
 135 539 l 2
 135 607.041388157 188.968566119 655 262 655 c 2
 484 655 l 2
 499.132537856 655 509 640.729904333 509 630 c 2
EndSplineSet
Substitution2: "'ss12' Style Set 12 in Latin lookup 25 subtable" Scommaaccent.v
Substitution2: "'ss01' Style Set 1 in Latin lookup 21 subtable" Scommaaccent.v
Substitution2: "'vert' Vertical Alternates (obs) in Latin lookup 20 subtable" Scommaaccent.v
Position2: "'ss11' Style Set 11 in Latin lookup 1 per glyph data 69" dx=315 dy=0 dh=630 dv=0
EndChar

StartChar: T
Encoding: 84 84 84
Width: 656
Flags: HMW
HStem: 620 10<118 323 118 538 333 333 333 538>
VStem: 323 10<90 620 90 620>
LayerCount: 2
Fore
SplineSet
298 90 m 2
 298 595 l 1
 118 595 l 2
 102.867462144 595 93 609.270095667 93 620 c 2
 93 630 l 2
 93 645.132537856 107.270095667 655 118 655 c 2
 538 655 l 2
 553.132537856 655 563 640.729904333 563 630 c 2
 563 620 l 2
 563 604.867462144 548.729904333 595 538 595 c 2
 358 595 l 1
 358 90 l 2
 358 74.8674621445 343.729904333 65 333 65 c 2
 323 65 l 2
 307.867462144 65 298 79.2700956673 298 90 c 2
EndSplineSet
Substitution2: "'ss12' Style Set 12 in Latin lookup 25 subtable" T.v
Substitution2: "'ss01' Style Set 1 in Latin lookup 21 subtable" T.v
Substitution2: "'vert' Vertical Alternates (obs) in Latin lookup 20 subtable" T.v
Position2: "'ss11' Style Set 11 in Latin lookup 1 per glyph data 67" dx=312 dy=0 dh=624 dv=0
EndChar

StartChar: Tcommaaccent
Encoding: 354 354 85
Width: 656
Flags: HMW
HStem: -315 10<269 304 269 304> -142 10<269 377 269 387> 620 10<118 323 118 538 333 333 333 538>
VStem: 323 10<90 620 90 620> 377 10<-229 -142 -142 -142>
LayerCount: 2
Fore
SplineSet
412 -132 m 2
 412 -229 l 2
 412 -301.694361765 369.329866624 -340 304 -340 c 2
 269 -340 l 2
 253.867462144 -340 244 -325.729904333 244 -315 c 2
 244 -305 l 2
 244 -289.867462144 258.270095667 -280 269 -280 c 2
 304 -280 l 2
 340.571730604 -280 352 -271.539980137 352 -229 c 2
 352 -167 l 1
 269 -167 l 2
 253.867462144 -167 244 -152.729904333 244 -142 c 2
 244 -132 l 2
 244 -116.867462144 258.270095667 -107 269 -107 c 2
 387 -107 l 2
 402.132537856 -107 412 -121.270095667 412 -132 c 2
298 90 m 2
 298 595 l 1
 118 595 l 2
 102.867462144 595 93 609.270095667 93 620 c 2
 93 630 l 2
 93 645.132537856 107.270095667 655 118 655 c 2
 538 655 l 2
 553.132537856 655 563 640.729904333 563 630 c 2
 563 620 l 2
 563 604.867462144 548.729904333 595 538 595 c 2
 358 595 l 1
 358 90 l 2
 358 74.8674621445 343.729904333 65 333 65 c 2
 323 65 l 2
 307.867462144 65 298 79.2700956673 298 90 c 2
EndSplineSet
Substitution2: "'ss12' Style Set 12 in Latin lookup 25 subtable" Tcommaaccent.v
Substitution2: "'ss01' Style Set 1 in Latin lookup 21 subtable" Tcommaaccent.v
Substitution2: "'vert' Vertical Alternates (obs) in Latin lookup 20 subtable" Tcommaaccent.v
Position2: "'ss11' Style Set 11 in Latin lookup 1 per glyph data 67" dx=312 dy=0 dh=624 dv=0
EndChar

StartChar: Tcaron
Encoding: 356 356 86
Width: 656
Flags: HMW
HStem: 620 10<118 323 118 538 333 333 333 538> 841 10<291 295>
VStem: 323 10<90 620 90 620>
LayerCount: 2
Fore
SplineSet
215.659083413 902.797866318 m 2
 302.422126059 874.874128455 l 2
 312.526365878 871.842856509 318.14638981 870 327 870 c 0
 335.85361019 870 341.473634122 871.842856509 351.577873941 874.874128455 c 2
 438.340916587 902.797866318 l 2
 454.283287915 907.928744446 471 895.568452003 471 879 c 2
 471 868 l 2
 471 856.887560056 462.96566777 847.229447679 453.73362819 844.226254081 c 2
 370.73362819 817.226254081 l 2
 370.20817332 817.055322979 369.461537684 816.845974261 369.063390626 816.746437496 c 0
 358.395488391 814.079461938 345.541208147 810 327 810 c 0
 308.458791853 810 295.604511609 814.079461938 284.936609374 816.746437496 c 0
 284.400549446 816.880452479 283.656642187 817.099298657 283.26637181 817.226254081 c 2
 200.26637181 844.226254081 l 2
 189.698998859 847.663833234 183 858.291770162 183 868 c 2
 183 879 l 2
 183 895.747689809 199.887331178 907.873832554 215.659083413 902.797866318 c 2
298 90 m 2
 298 595 l 1
 118 595 l 2
 102.867462144 595 93 609.270095667 93 620 c 2
 93 630 l 2
 93 645.132537856 107.270095667 655 118 655 c 2
 538 655 l 2
 553.132537856 655 563 640.729904333 563 630 c 2
 563 620 l 2
 563 604.867462144 548.729904333 595 538 595 c 2
 358 595 l 1
 358 90 l 2
 358 74.8674621445 343.729904333 65 333 65 c 2
 323 65 l 2
 307.867462144 65 298 79.2700956673 298 90 c 2
EndSplineSet
Substitution2: "'ss12' Style Set 12 in Latin lookup 25 subtable" Tcaron.v
Substitution2: "'ss01' Style Set 1 in Latin lookup 21 subtable" Tcaron.v
Substitution2: "'vert' Vertical Alternates (obs) in Latin lookup 20 subtable" Tcaron.v
Position2: "'ss11' Style Set 11 in Latin lookup 1 per glyph data 67" dx=312 dy=0 dh=624 dv=0
EndChar

StartChar: U
Encoding: 85 85 87
Width: 746
Flags: HMW
HStem: 78 10<299.5 448.5 299.5 452.5>
VStem: 174 10<213 630> 565 10<213 630>
LayerCount: 2
Fore
SplineSet
174 655 m 2
 184 655 l 2
 199.132537856 655 209 640.729904333 209 630 c 2
 209 213 l 2
 209 154.28831689 231.052011103 113 374 113 c 0
 517.084660969 113 540 154.521534548 540 213 c 2
 540 630 l 2
 540 645.132537856 554.270095667 655 565 655 c 2
 575 655 l 2
 590.132537856 655 600 640.729904333 600 630 c 2
 600 213 l 2
 600 115.998759292 537.406213225 53 374 53 c 0
 210.465018596 53 149 116.208975098 149 213 c 2
 149 630 l 2
 149 645.132537856 163.270095667 655 174 655 c 2
EndSplineSet
Substitution2: "'ss12' Style Set 12 in Latin lookup 25 subtable" U.v
Substitution2: "'ss01' Style Set 1 in Latin lookup 21 subtable" U.v
Substitution2: "'vert' Vertical Alternates (obs) in Latin lookup 20 subtable" U.v
Position2: "'ss11' Style Set 11 in Latin lookup 1 per glyph data 36" dx=267 dy=0 dh=534 dv=0
EndChar

StartChar: Ugrave
Encoding: 217 217 88
Width: 746
Flags: HMW
HStem: 78 10<299.5 448.5 299.5 452.5>
VStem: 174 10<213 630> 565 10<213 630>
LayerCount: 2
Fore
SplineSet
218 867 m 2
 218 877 l 2
 218 892.517205635 232.60445275 903.501061005 246.113641869 901.80534689 c 2
 485.113641869 871.80534689 l 2
 498.20470184 870.162117605 507 857.891975328 507 847 c 2
 507 837 l 2
 507 821.482794365 492.39554725 810.498938995 478.886358131 812.19465311 c 2
 239.886358131 842.19465311 l 2
 226.79529816 843.837882395 218 856.108024672 218 867 c 2
174 655 m 2
 184 655 l 2
 199.132537856 655 209 640.729904333 209 630 c 2
 209 213 l 2
 209 154.28831689 231.052011103 113 374 113 c 0
 517.084660969 113 540 154.521534548 540 213 c 2
 540 630 l 2
 540 645.132537856 554.270095667 655 565 655 c 2
 575 655 l 2
 590.132537856 655 600 640.729904333 600 630 c 2
 600 213 l 2
 600 115.998759292 537.406213225 53 374 53 c 0
 210.465018596 53 149 116.208975098 149 213 c 2
 149 630 l 2
 149 645.132537856 163.270095667 655 174 655 c 2
EndSplineSet
Substitution2: "'ss12' Style Set 12 in Latin lookup 25 subtable" Ugrave.v
Substitution2: "'ss01' Style Set 1 in Latin lookup 21 subtable" Ugrave.v
Substitution2: "'vert' Vertical Alternates (obs) in Latin lookup 20 subtable" Ugrave.v
Position2: "'ss11' Style Set 11 in Latin lookup 1 per glyph data 36" dx=267 dy=0 dh=534 dv=0
EndChar

StartChar: Uacute
Encoding: 218 218 89
Width: 746
Flags: HMW
HStem: 78 10<299.5 448.5 299.5 452.5>
VStem: 174 10<213 630> 565 10<213 630>
LayerCount: 2
Fore
SplineSet
259.886358131 871.80534689 m 2
 498.886358131 901.80534689 l 2
 514.282744872 903.737947736 527 890.615198751 527 877 c 2
 527 867 l 2
 527 853.806211551 515.920810922 843.551201527 505.113641869 842.19465311 c 2
 266.113641869 812.19465311 l 2
 250.717255128 810.262052264 238 823.384801249 238 837 c 2
 238 847 l 2
 238 860.193788449 249.079189078 870.448798473 259.886358131 871.80534689 c 2
174 655 m 2
 184 655 l 2
 199.132537856 655 209 640.729904333 209 630 c 2
 209 213 l 2
 209 154.28831689 231.052011103 113 374 113 c 0
 517.084660969 113 540 154.521534548 540 213 c 2
 540 630 l 2
 540 645.132537856 554.270095667 655 565 655 c 2
 575 655 l 2
 590.132537856 655 600 640.729904333 600 630 c 2
 600 213 l 2
 600 115.998759292 537.406213225 53 374 53 c 0
 210.465018596 53 149 116.208975098 149 213 c 2
 149 630 l 2
 149 645.132537856 163.270095667 655 174 655 c 2
EndSplineSet
Substitution2: "'ss12' Style Set 12 in Latin lookup 25 subtable" Uacute.v
Substitution2: "'ss01' Style Set 1 in Latin lookup 21 subtable" Uacute.v
Substitution2: "'vert' Vertical Alternates (obs) in Latin lookup 20 subtable" Uacute.v
Position2: "'ss11' Style Set 11 in Latin lookup 1 per glyph data 36" dx=267 dy=0 dh=534 dv=0
EndChar

StartChar: Ucircumflex
Encoding: 219 219 90
Width: 746
Flags: HMW
HStem: 78 10<299.5 448.5 299.5 452.5> 878 10<336 340>
VStem: 174 10<213 630> 565 10<213 630>
LayerCount: 2
Fore
SplineSet
483.340916587 826.202133682 m 2
 396.577873941 854.125871545 l 2
 386.473634122 857.157143491 380.85361019 859 372 859 c 0
 363.14638981 859 357.526365878 857.157143491 347.422126059 854.125871545 c 2
 260.659083413 826.202133682 l 2
 244.716712085 821.071255554 228 833.431547997 228 850 c 2
 228 861 l 2
 228 872.112439944 236.03433223 881.770552321 245.26637181 884.773745919 c 2
 328.26637181 911.773745919 l 2
 328.79182668 911.944677021 329.538462316 912.154025739 329.936609374 912.253562504 c 0
 340.604511609 914.920538062 353.458791853 919 372 919 c 0
 390.541208147 919 403.395488391 914.920538062 414.063390626 912.253562504 c 0
 414.599450554 912.119547521 415.343357813 911.900701343 415.73362819 911.773745919 c 2
 498.73362819 884.773745919 l 2
 509.301001141 881.336166766 516 870.708229838 516 861 c 2
 516 850 l 2
 516 833.252310191 499.112668822 821.126167446 483.340916587 826.202133682 c 2
174 655 m 2
 184 655 l 2
 199.132537856 655 209 640.729904333 209 630 c 2
 209 213 l 2
 209 154.28831689 231.052011103 113 374 113 c 0
 517.084660969 113 540 154.521534548 540 213 c 2
 540 630 l 2
 540 645.132537856 554.270095667 655 565 655 c 2
 575 655 l 2
 590.132537856 655 600 640.729904333 600 630 c 2
 600 213 l 2
 600 115.998759292 537.406213225 53 374 53 c 0
 210.465018596 53 149 116.208975098 149 213 c 2
 149 630 l 2
 149 645.132537856 163.270095667 655 174 655 c 2
EndSplineSet
Substitution2: "'ss12' Style Set 12 in Latin lookup 25 subtable" Ucircumflex.v
Substitution2: "'ss01' Style Set 1 in Latin lookup 21 subtable" Ucircumflex.v
Substitution2: "'vert' Vertical Alternates (obs) in Latin lookup 20 subtable" Ucircumflex.v
Position2: "'ss11' Style Set 11 in Latin lookup 1 per glyph data 36" dx=267 dy=0 dh=534 dv=0
EndChar

StartChar: Udieresis
Encoding: 220 220 91
Width: 746
Flags: HMW
HStem: 78 10<299.5 448.5 299.5 452.5> 830 47<237 247 237 247 495 505>
VStem: 174 10<213 630> 237 10<830 877> 495 10<830 877> 565 10<213 630>
LayerCount: 2
Fore
SplineSet
505 805 m 2
 495 805 l 2
 479.867462144 805 470 819.270095667 470 830 c 2
 470 877 l 2
 470 892.132537856 484.270095667 902 495 902 c 2
 505 902 l 2
 520.132537856 902 530 887.729904333 530 877 c 2
 530 830 l 2
 530 814.867462144 515.729904333 805 505 805 c 2
247 805 m 2
 237 805 l 2
 221.867462144 805 212 819.270095667 212 830 c 2
 212 877 l 2
 212 892.132537856 226.270095667 902 237 902 c 2
 247 902 l 2
 262.132537856 902 272 887.729904333 272 877 c 2
 272 830 l 2
 272 814.867462144 257.729904333 805 247 805 c 2
174 655 m 2
 184 655 l 2
 199.132537856 655 209 640.729904333 209 630 c 2
 209 213 l 2
 209 154.28831689 231.052011103 113 374 113 c 0
 517.084660969 113 540 154.521534548 540 213 c 2
 540 630 l 2
 540 645.132537856 554.270095667 655 565 655 c 2
 575 655 l 2
 590.132537856 655 600 640.729904333 600 630 c 2
 600 213 l 2
 600 115.998759292 537.406213225 53 374 53 c 0
 210.465018596 53 149 116.208975098 149 213 c 2
 149 630 l 2
 149 645.132537856 163.270095667 655 174 655 c 2
EndSplineSet
Substitution2: "'ss12' Style Set 12 in Latin lookup 25 subtable" Udieresis.v
Substitution2: "'ss01' Style Set 1 in Latin lookup 21 subtable" Udieresis.v
Substitution2: "'vert' Vertical Alternates (obs) in Latin lookup 20 subtable" Udieresis.v
Position2: "'ss11' Style Set 11 in Latin lookup 1 per glyph data 36" dx=267 dy=0 dh=534 dv=0
EndChar

StartChar: Utilde
Encoding: 360 360 92
Width: 746
Flags: HMW
HStem: 78 10<299.5 448.5 299.5 452.5> 831 10<491 491> 843 10
VStem: 174 10<213 630> 565 10<213 630>
LayerCount: 2
Fore
SplineSet
516 841 m 2
 516 831 l 2
 516 817.869109695 505.137675011 807.417005173 493.760788152 806.152906633 c 0
 462.956702721 802.730230474 433.685838165 806.391735507 383.506951231 814.242075633 c 2
 367.681543579 816.220251589 l 1
 339.268059914 820.279320684 l 2
 295.575939647 827.230339818 275.312106816 827.646883313 257.472135955 824.403252248 c 0
 241.127234888 821.431452054 228 835.762699252 228 849 c 2
 228 860 l 2
 228 873.212496489 239.150725173 883.405341337 249.766520398 884.79001028 c 0
 276.811710784 888.317643808 302.994574255 885.821966683 348.419888126 879.765258167 c 2
 376.318456421 875.779748411 l 1
 392.488382326 873.758507673 l 2
 444.531346491 865.594905451 464.976422735 863.262339021 488.239211848 865.847093367 c 0
 503.814846865 867.57771948 516 853.946593607 516 841 c 2
174 655 m 2
 184 655 l 2
 199.132537856 655 209 640.729904333 209 630 c 2
 209 213 l 2
 209 154.28831689 231.052011103 113 374 113 c 0
 517.084660969 113 540 154.521534548 540 213 c 2
 540 630 l 2
 540 645.132537856 554.270095667 655 565 655 c 2
 575 655 l 2
 590.132537856 655 600 640.729904333 600 630 c 2
 600 213 l 2
 600 115.998759292 537.406213225 53 374 53 c 0
 210.465018596 53 149 116.208975098 149 213 c 2
 149 630 l 2
 149 645.132537856 163.270095667 655 174 655 c 2
EndSplineSet
Substitution2: "'ss12' Style Set 12 in Latin lookup 25 subtable" Utilde.v
Substitution2: "'ss01' Style Set 1 in Latin lookup 21 subtable" Utilde.v
Substitution2: "'vert' Vertical Alternates (obs) in Latin lookup 20 subtable" Utilde.v
Position2: "'ss11' Style Set 11 in Latin lookup 1 per glyph data 36" dx=267 dy=0 dh=534 dv=0
EndChar

StartChar: Umacron
Encoding: 362 362 93
Width: 746
Flags: HMW
HStem: 78 10<299.5 448.5 299.5 452.5> 837 10<253 492 253 492>
VStem: 174 10<213 630> 565 10<213 630>
LayerCount: 2
Fore
SplineSet
253 872 m 2
 492 872 l 2
 507.132537856 872 517 857.729904333 517 847 c 2
 517 837 l 2
 517 821.867462144 502.729904333 812 492 812 c 2
 253 812 l 2
 237.867462144 812 228 826.270095667 228 837 c 2
 228 847 l 2
 228 862.132537856 242.270095667 872 253 872 c 2
174 655 m 2
 184 655 l 2
 199.132537856 655 209 640.729904333 209 630 c 2
 209 213 l 2
 209 154.28831689 231.052011103 113 374 113 c 0
 517.084660969 113 540 154.521534548 540 213 c 2
 540 630 l 2
 540 645.132537856 554.270095667 655 565 655 c 2
 575 655 l 2
 590.132537856 655 600 640.729904333 600 630 c 2
 600 213 l 2
 600 115.998759292 537.406213225 53 374 53 c 0
 210.465018596 53 149 116.208975098 149 213 c 2
 149 630 l 2
 149 645.132537856 163.270095667 655 174 655 c 2
EndSplineSet
Substitution2: "'ss12' Style Set 12 in Latin lookup 25 subtable" Umacron.v
Substitution2: "'ss01' Style Set 1 in Latin lookup 21 subtable" Umacron.v
Substitution2: "'vert' Vertical Alternates (obs) in Latin lookup 20 subtable" Umacron.v
Position2: "'ss11' Style Set 11 in Latin lookup 1 per glyph data 36" dx=267 dy=0 dh=534 dv=0
EndChar

StartChar: Ubreve
Encoding: 364 364 94
Width: 746
Flags: HMW
HStem: 78 10<299.5 448.5 299.5 452.5> 818 10<318 426 318 434>
VStem: 174 10<213 630> 232 10<898 907 880 907> 507 10<898 907 879 907> 565 10<213 630>
LayerCount: 2
Fore
SplineSet
507 932 m 2
 517 932 l 2
 532.132537856 932 542 917.729904333 542 907 c 2
 542 898 l 2
 542 843.091100103 501.602341268 793 372 793 c 0
 241.418217009 793 207 844.869876646 207 898 c 2
 207 907 l 2
 207 922.132537856 221.270095667 932 232 932 c 2
 242 932 l 2
 257.132537856 932 267 917.729904333 267 907 c 2
 267 898 l 2
 267 880.279956546 268.266659849 853 372 853 c 0
 476.768066385 853 482 882.136424644 482 898 c 2
 482 907 l 2
 482 922.132537856 496.270095667 932 507 932 c 2
174 655 m 2
 184 655 l 2
 199.132537856 655 209 640.729904333 209 630 c 2
 209 213 l 2
 209 154.28831689 231.052011103 113 374 113 c 0
 517.084660969 113 540 154.521534548 540 213 c 2
 540 630 l 2
 540 645.132537856 554.270095667 655 565 655 c 2
 575 655 l 2
 590.132537856 655 600 640.729904333 600 630 c 2
 600 213 l 2
 600 115.998759292 537.406213225 53 374 53 c 0
 210.465018596 53 149 116.208975098 149 213 c 2
 149 630 l 2
 149 645.132537856 163.270095667 655 174 655 c 2
EndSplineSet
Substitution2: "'ss12' Style Set 12 in Latin lookup 25 subtable" Ubreve.v
Substitution2: "'ss01' Style Set 1 in Latin lookup 21 subtable" Ubreve.v
Substitution2: "'vert' Vertical Alternates (obs) in Latin lookup 20 subtable" Ubreve.v
Position2: "'ss11' Style Set 11 in Latin lookup 1 per glyph data 36" dx=267 dy=0 dh=534 dv=0
EndChar

StartChar: Uring
Encoding: 366 366 95
Width: 746
Flags: HMW
HStem: 78 10<299.5 448.5 299.5 452.5> 820 10<319.5 426.5 319.5 432.5> 1066 10<319.5 426.5>
VStem: 174 10<213 630> 232 10<920 975> 506 10<920 975> 565 10<213 630>
LayerCount: 2
Fore
SplineSet
373 1041 m 0
 273.066565691 1041 267 1016.66536863 267 975 c 2
 267 920 l 2
 267 878.55823825 272.740396915 855 373 855 c 0
 473.651070306 855 481 879.212079276 481 920 c 2
 481 975 l 2
 481 1015.04444692 473.117409318 1041 373 1041 c 0
207 920 m 2
 207 975 l 2
 207 1047.8176124 245.744321588 1101 373 1101 c 0
 500.075651678 1101 541 1047.41503225 541 975 c 2
 541 920 l 2
 541 846.351038529 499.604202819 795 373 795 c 0
 246.024175766 795 207 846.950947659 207 920 c 2
174 655 m 2
 184 655 l 2
 199.132537856 655 209 640.729904333 209 630 c 2
 209 213 l 2
 209 154.28831689 231.052011103 113 374 113 c 0
 517.084660969 113 540 154.521534548 540 213 c 2
 540 630 l 2
 540 645.132537856 554.270095667 655 565 655 c 2
 575 655 l 2
 590.132537856 655 600 640.729904333 600 630 c 2
 600 213 l 2
 600 115.998759292 537.406213225 53 374 53 c 0
 210.465018596 53 149 116.208975098 149 213 c 2
 149 630 l 2
 149 645.132537856 163.270095667 655 174 655 c 2
EndSplineSet
Substitution2: "'ss12' Style Set 12 in Latin lookup 25 subtable" Uring.v
Substitution2: "'ss01' Style Set 1 in Latin lookup 21 subtable" Uring.v
Substitution2: "'vert' Vertical Alternates (obs) in Latin lookup 20 subtable" Uring.v
Position2: "'ss11' Style Set 11 in Latin lookup 1 per glyph data 36" dx=267 dy=0 dh=534 dv=0
EndChar

StartChar: Uhungarumlaut
Encoding: 368 368 96
Width: 746
Flags: HMW
HStem: 78 10<299.5 448.5 299.5 452.5> 850 97<253 289 253 289>
VStem: 174 10<213 630> 565 10<213 630>
LayerCount: 2
Fore
SplineSet
264 825 m 2
 253 825 l 2
 235.450159993 825 225.378351736 842.997860482 228.791120173 856.239402017 c 2
 253.791120173 953.239402017 l 2
 256.749365181 964.717392647 268.076123764 972 278 972 c 2
 289 972 l 2
 306.549840007 972 316.621648264 954.002139518 313.208879827 940.760597983 c 2
 288.208879827 843.760597983 l 2
 285.250634819 832.282607353 273.923876236 825 264 825 c 2
524 825 m 2
 513 825 l 2
 495.450159993 825 485.378351736 842.997860482 488.791120173 856.239402017 c 2
 513.791120173 953.239402017 l 2
 516.749365181 964.717392647 528.076123764 972 538 972 c 2
 549 972 l 2
 566.549840007 972 576.621648264 954.002139518 573.208879827 940.760597983 c 2
 548.208879827 843.760597983 l 2
 545.250634819 832.282607353 533.923876236 825 524 825 c 2
174 655 m 2
 184 655 l 2
 199.132537856 655 209 640.729904333 209 630 c 2
 209 213 l 2
 209 154.28831689 231.052011103 113 374 113 c 0
 517.084660969 113 540 154.521534548 540 213 c 2
 540 630 l 2
 540 645.132537856 554.270095667 655 565 655 c 2
 575 655 l 2
 590.132537856 655 600 640.729904333 600 630 c 2
 600 213 l 2
 600 115.998759292 537.406213225 53 374 53 c 0
 210.465018596 53 149 116.208975098 149 213 c 2
 149 630 l 2
 149 645.132537856 163.270095667 655 174 655 c 2
EndSplineSet
Substitution2: "'ss12' Style Set 12 in Latin lookup 25 subtable" Uhungarumlaut.v
Substitution2: "'ss01' Style Set 1 in Latin lookup 21 subtable" Uhungarumlaut.v
Substitution2: "'vert' Vertical Alternates (obs) in Latin lookup 20 subtable" Uhungarumlaut.v
Position2: "'ss11' Style Set 11 in Latin lookup 1 per glyph data 36" dx=267 dy=0 dh=534 dv=0
EndChar

StartChar: Uogonek
Encoding: 370 370 97
Width: 746
Flags: HMW
HStem: -126 10<382.5 431 407 431> 78 10<299.5 374 374 390>
VStem: 174 10<213 630> 356 10<-53 -51> 565 10<213 630>
LayerCount: 2
Fore
SplineSet
431 -151 m 2
 407 -151 l 2
 399.968484421 -151 393.312841724 -150.568504577 386.934260673 -149.587834386 c 0
 332.556505605 -141.227566949 323.973560784 -92.9278838355 331.284218488 -47.2362731865 c 2
 343.284218488 35.7637268135 l 2
 344.345793332 42.3985695868 345.587489796 49.0988225295 346.598450383 53.5678073167 c 1
 201.917777851 60.1124576049 149 122.969934117 149 213 c 2
 149 630 l 2
 149 645.132537856 163.270095667 655 174 655 c 2
 184 655 l 2
 199.132537856 655 209 640.729904333 209 630 c 2
 209 213 l 2
 209 154.28831689 231.052011103 113 374 113 c 0
 517.084660969 113 540 154.521534548 540 213 c 2
 540 630 l 2
 540 645.132537856 554.270095667 655 565 655 c 2
 575 655 l 2
 590.132537856 655 600 640.729904333 600 630 c 2
 600 213 l 2
 600 125.547807252 548.840162585 64.4537277062 416.508768691 54.4500972796 c 1
 403.096282657 46.2796717898 406.123575435 52.0883327485 402.751649641 28.4848521901 c 2
 390.782302844 -56.2980209519 l 2
 389.951601656 -62.9436304598 389.434139427 -69.5031173712 389.409059131 -74.3449156415 c 0
 389.319289906 -91.6750332497 386.445862776 -91 407 -91 c 2
 431 -91 l 2
 446.132537856 -91 456 -105.270095667 456 -116 c 2
 456 -126 l 2
 456 -141.132537856 441.729904333 -151 431 -151 c 2
EndSplineSet
Substitution2: "'ss12' Style Set 12 in Latin lookup 25 subtable" Uogonek.v
Substitution2: "'ss01' Style Set 1 in Latin lookup 21 subtable" Uogonek.v
Substitution2: "'vert' Vertical Alternates (obs) in Latin lookup 20 subtable" Uogonek.v
Position2: "'ss11' Style Set 11 in Latin lookup 1 per glyph data 36" dx=267 dy=0 dh=534 dv=0
EndChar

StartChar: V
Encoding: 86 86 98
Width: 730
Flags: HMW
HStem: 90 10<301 410 322 410>
VStem: 167 10<414 630> 555 10<414 630>
LayerCount: 2
Fore
SplineSet
167 655 m 2
 177 655 l 2
 192.132537856 655 202 640.729904333 202 630 c 2
 202 414 l 2
 202 381.369743638 206.713438552 353.600558724 216.131746935 330.482892692 c 2
 282.162107724 170.409290778 l 2
 297.111965235 133.034647001 301.002692624 125 322 125 c 2
 410 125 l 2
 431.019906952 125 434.884447296 133.025678329 449.837892276 170.409290778 c 2
 515.868253065 330.482892692 l 2
 525.286145125 353.599536838 530 381.370501354 530 414 c 2
 530 630 l 2
 530 645.132537856 544.270095667 655 555 655 c 2
 565 655 l 2
 580.132537856 655 590 640.729904333 590 630 c 2
 590 414 l 2
 590 375.307115331 585.795333207 340.537283359 572.110965027 307.466726926 c 2
 506.120111526 147.488900255 l 2
 490.353563853 109.057940302 468.37168582 65 410 65 c 2
 322 65 l 2
 263.992465433 65 241.581670211 109.215807273 225.879888474 147.488900255 c 2
 159.899579189 307.441205182 l 2
 146.193836289 340.563417191 142 375.296512485 142 414 c 2
 142 630 l 2
 142 645.132537856 156.270095667 655 167 655 c 2
EndSplineSet
Substitution2: "'ss12' Style Set 12 in Latin lookup 25 subtable" V.v
Substitution2: "'ss01' Style Set 1 in Latin lookup 21 subtable" V.v
Substitution2: "'vert' Vertical Alternates (obs) in Latin lookup 20 subtable" V.v
Position2: "'ss11' Style Set 11 in Latin lookup 1 per glyph data 44" dx=275 dy=0 dh=550 dv=0
EndChar

StartChar: W
Encoding: 87 87 99
Width: 831
Flags: HMW
HStem: 90 10<223 236 231 236 236 238 597 602> 335 10<386 439 394 439>
VStem: 168 10<335 336 336 630> 655 10<336 630>
LayerCount: 2
Fore
SplineSet
439 370 m 2
 472.933629763 370 493.304221396 347.36308834 510.827760719 308.192823971 c 2
 592.439446492 125.064163213 l 2
 594.496961785 124.985460442 595.082747291 125 597 125 c 2
 600.110301165 125 l 2
 600.389666537 125.407157478 600.383876314 125.459515915 600.383876314 125.459515915 c 1
 625.530800191 240.129488797 l 2
 629.474363677 259.847306225 630 306.487584192 630 336 c 2
 630 630 l 2
 630 645.132537856 644.270095667 655 655 655 c 2
 665 655 l 2
 680.132537856 655 690 640.729904333 690 630 c 2
 690 335 l 2
 690 304.499252856 690.531154386 259.180284091 684.464662013 228.847822227 c 2
 659.394236222 115.52949765 l 2
 652.527965909 85.3179082739 630.294537513 65 602 65 c 2
 595 65 l 2
 580.825202157 65 551.342528585 68.4026574185 539.072266857 97.0332681191 c 2
 457.139496341 282.880771971 l 2
 448.524256587 302.265061418 442.40061826 309.322390755 441.769932652 309.837345701 c 0
 441.167012427 309.932156762 440.475713058 310 439 310 c 2
 394 310 l 2
 392.441794106 310 391.540377955 309.886142999 391.230067348 309.837345701 c 0
 390.181146457 308.980901548 384.245515972 301.747049677 375.860503659 282.880771971 c 2
 293.927733143 97.0332681191 l 2
 281.66208829 68.4134301268 252.163535327 65 238 65 c 2
 231 65 l 2
 202.715336274 65 180.472030116 85.317925763 173.605763778 115.52949765 c 2
 148.535337987 228.847822227 l 2
 142.468487957 259.182072373 143 304.497945216 143 335 c 2
 143 630 l 2
 143 645.132537856 157.270095667 655 168 655 c 2
 178 655 l 2
 193.132537856 655 203 640.729904333 203 630 c 2
 203 336 l 2
 203 306.486412831 203.525315178 259.848911949 207.469199809 240.129488797 c 2
 232.616123686 125.459515915 l 1
 232.616123686 125.459515915 232.748302301 125.206076565 232.889698835 125 c 2
 236 125 l 2
 237.91972775 125 239.541335684 125.025176738 240.560553508 125.064163213 c 2
 322.172239281 308.192823971 l 2
 339.781178585 347.553982414 358.773287644 370 394 370 c 2
 439 370 l 2
EndSplineSet
Substitution2: "'ss12' Style Set 12 in Latin lookup 25 subtable" W.v
Substitution2: "'ss01' Style Set 1 in Latin lookup 21 subtable" W.v
Substitution2: "'vert' Vertical Alternates (obs) in Latin lookup 20 subtable" W.v
Substitution2: "'ss02' Style Set 2 in Latin lookup 8 subtable" W.salt
Position2: "'ss11' Style Set 11 in Latin lookup 1 per glyph data 25" dx=225 dy=0 dh=449 dv=0
EndChar

StartChar: Wcircumflex
Encoding: 372 372 100
Width: 831
Flags: HMW
HStem: 90 10<223 236 231 236 236 238 597 602> 335 10<386 439 394 439> 878 10<378 382>
VStem: 168 10<335 336 336 630> 655 10<336 630>
LayerCount: 2
Fore
SplineSet
525.340916587 826.202133682 m 2
 438.577873941 854.125871545 l 2
 428.473634122 857.157143491 422.85361019 859 414 859 c 0
 405.14638981 859 399.526365878 857.157143491 389.422126059 854.125871545 c 2
 302.659083413 826.202133682 l 2
 286.716712085 821.071255554 270 833.431547997 270 850 c 2
 270 861 l 2
 270 872.112439944 278.03433223 881.770552321 287.26637181 884.773745919 c 2
 370.26637181 911.773745919 l 2
 370.79182668 911.944677021 371.538462316 912.154025739 371.936609374 912.253562504 c 0
 382.604511609 914.920538062 395.458791853 919 414 919 c 0
 432.541208147 919 445.395488391 914.920538062 456.063390626 912.253562504 c 0
 456.599450554 912.119547521 457.343357813 911.900701343 457.73362819 911.773745919 c 2
 540.73362819 884.773745919 l 2
 551.301001141 881.336166766 558 870.708229838 558 861 c 2
 558 850 l 2
 558 833.252310191 541.112668822 821.126167446 525.340916587 826.202133682 c 2
439 370 m 2
 472.933629763 370 493.304221396 347.36308834 510.827760719 308.192823971 c 2
 592.439446492 125.064163213 l 2
 594.496961785 124.985460442 595.082747291 125 597 125 c 2
 600.110301165 125 l 2
 600.389666537 125.407157478 600.383876314 125.459515915 600.383876314 125.459515915 c 1
 625.530800191 240.129488797 l 2
 629.474363677 259.847306225 630 306.487584192 630 336 c 2
 630 630 l 2
 630 645.132537856 644.270095667 655 655 655 c 2
 665 655 l 2
 680.132537856 655 690 640.729904333 690 630 c 2
 690 335 l 2
 690 304.499252856 690.531154386 259.180284091 684.464662013 228.847822227 c 2
 659.394236222 115.52949765 l 2
 652.527965909 85.3179082739 630.294537513 65 602 65 c 2
 595 65 l 2
 580.825202157 65 551.342528585 68.4026574185 539.072266857 97.0332681191 c 2
 457.139496341 282.880771971 l 2
 448.524256587 302.265061418 442.40061826 309.322390755 441.769932652 309.837345701 c 0
 441.167012427 309.932156762 440.475713058 310 439 310 c 2
 394 310 l 2
 392.441794106 310 391.540377955 309.886142999 391.230067348 309.837345701 c 0
 390.181146457 308.980901548 384.245515972 301.747049677 375.860503659 282.880771971 c 2
 293.927733143 97.0332681191 l 2
 281.66208829 68.4134301268 252.163535327 65 238 65 c 2
 231 65 l 2
 202.715336274 65 180.472030116 85.317925763 173.605763778 115.52949765 c 2
 148.535337987 228.847822227 l 2
 142.468487957 259.182072373 143 304.497945216 143 335 c 2
 143 630 l 2
 143 645.132537856 157.270095667 655 168 655 c 2
 178 655 l 2
 193.132537856 655 203 640.729904333 203 630 c 2
 203 336 l 2
 203 306.486412831 203.525315178 259.848911949 207.469199809 240.129488797 c 2
 232.616123686 125.459515915 l 1
 232.616123686 125.459515915 232.748302301 125.206076565 232.889698835 125 c 2
 236 125 l 2
 237.91972775 125 239.541335684 125.025176738 240.560553508 125.064163213 c 2
 322.172239281 308.192823971 l 2
 339.781178585 347.553982414 358.773287644 370 394 370 c 2
 439 370 l 2
EndSplineSet
Substitution2: "'ss12' Style Set 12 in Latin lookup 25 subtable" Wcircumflex.v
Substitution2: "'ss01' Style Set 1 in Latin lookup 21 subtable" Wcircumflex.v
Substitution2: "'vert' Vertical Alternates (obs) in Latin lookup 20 subtable" Wcircumflex.v
Substitution2: "'ss02' Style Set 2 in Latin lookup 8 subtable" Wcircumflex.salt
Position2: "'ss11' Style Set 11 in Latin lookup 1 per glyph data 25" dx=225 dy=0 dh=449 dv=0
EndChar

StartChar: Wgrave
Encoding: 7808 7808 101
Width: 831
Flags: HMW
HStem: 90 10<223 236 231 236 236 238 597 602> 335 10<386 439 394 439>
VStem: 168 10<335 336 336 630> 655 10<336 630>
LayerCount: 2
Fore
SplineSet
260 867 m 2
 260 877 l 2
 260 892.517205635 274.60445275 903.501061005 288.113641869 901.80534689 c 2
 527.113641869 871.80534689 l 2
 540.20470184 870.162117605 549 857.891975328 549 847 c 2
 549 837 l 2
 549 821.482794365 534.39554725 810.498938995 520.886358131 812.19465311 c 2
 281.886358131 842.19465311 l 2
 268.79529816 843.837882395 260 856.108024672 260 867 c 2
439 370 m 2
 472.933629763 370 493.304221396 347.36308834 510.827760719 308.192823971 c 2
 592.439446492 125.064163213 l 2
 594.496961785 124.985460442 595.082747291 125 597 125 c 2
 600.110301165 125 l 2
 600.389666537 125.407157478 600.383876314 125.459515915 600.383876314 125.459515915 c 1
 625.530800191 240.129488797 l 2
 629.474363677 259.847306225 630 306.487584192 630 336 c 2
 630 630 l 2
 630 645.132537856 644.270095667 655 655 655 c 2
 665 655 l 2
 680.132537856 655 690 640.729904333 690 630 c 2
 690 335 l 2
 690 304.499252856 690.531154386 259.180284091 684.464662013 228.847822227 c 2
 659.394236222 115.52949765 l 2
 652.527965909 85.3179082739 630.294537513 65 602 65 c 2
 595 65 l 2
 580.825202157 65 551.342528585 68.4026574185 539.072266857 97.0332681191 c 2
 457.139496341 282.880771971 l 2
 448.524256587 302.265061418 442.40061826 309.322390755 441.769932652 309.837345701 c 0
 441.167012427 309.932156762 440.475713058 310 439 310 c 2
 394 310 l 2
 392.441794106 310 391.540377955 309.886142999 391.230067348 309.837345701 c 0
 390.181146457 308.980901548 384.245515972 301.747049677 375.860503659 282.880771971 c 2
 293.927733143 97.0332681191 l 2
 281.66208829 68.4134301268 252.163535327 65 238 65 c 2
 231 65 l 2
 202.715336274 65 180.472030116 85.317925763 173.605763778 115.52949765 c 2
 148.535337987 228.847822227 l 2
 142.468487957 259.182072373 143 304.497945216 143 335 c 2
 143 630 l 2
 143 645.132537856 157.270095667 655 168 655 c 2
 178 655 l 2
 193.132537856 655 203 640.729904333 203 630 c 2
 203 336 l 2
 203 306.486412831 203.525315178 259.848911949 207.469199809 240.129488797 c 2
 232.616123686 125.459515915 l 1
 232.616123686 125.459515915 232.748302301 125.206076565 232.889698835 125 c 2
 236 125 l 2
 237.91972775 125 239.541335684 125.025176738 240.560553508 125.064163213 c 2
 322.172239281 308.192823971 l 2
 339.781178585 347.553982414 358.773287644 370 394 370 c 2
 439 370 l 2
EndSplineSet
Substitution2: "'ss12' Style Set 12 in Latin lookup 25 subtable" Wgrave.v
Substitution2: "'ss01' Style Set 1 in Latin lookup 21 subtable" Wgrave.v
Substitution2: "'vert' Vertical Alternates (obs) in Latin lookup 20 subtable" Wgrave.v
Substitution2: "'ss02' Style Set 2 in Latin lookup 8 subtable" Wgrave.salt
Position2: "'ss11' Style Set 11 in Latin lookup 1 per glyph data 25" dx=225 dy=0 dh=449 dv=0
EndChar

StartChar: Wacute
Encoding: 7810 7810 102
Width: 831
Flags: HMW
HStem: 90 10<223 236 231 236 236 238 597 602> 335 10<386 439 394 439>
VStem: 168 10<335 336 336 630> 655 10<336 630>
LayerCount: 2
Fore
SplineSet
301.886358131 871.80534689 m 2
 540.886358131 901.80534689 l 2
 556.282744872 903.737947736 569 890.615198751 569 877 c 2
 569 867 l 2
 569 853.806211551 557.920810922 843.551201527 547.113641869 842.19465311 c 2
 308.113641869 812.19465311 l 2
 292.717255128 810.262052264 280 823.384801249 280 837 c 2
 280 847 l 2
 280 860.193788449 291.079189078 870.448798473 301.886358131 871.80534689 c 2
439 370 m 2
 472.933629763 370 493.304221396 347.36308834 510.827760719 308.192823971 c 2
 592.439446492 125.064163213 l 2
 594.496961785 124.985460442 595.082747291 125 597 125 c 2
 600.110301165 125 l 2
 600.389666537 125.407157478 600.383876314 125.459515915 600.383876314 125.459515915 c 1
 625.530800191 240.129488797 l 2
 629.474363677 259.847306225 630 306.487584192 630 336 c 2
 630 630 l 2
 630 645.132537856 644.270095667 655 655 655 c 2
 665 655 l 2
 680.132537856 655 690 640.729904333 690 630 c 2
 690 335 l 2
 690 304.499252856 690.531154386 259.180284091 684.464662013 228.847822227 c 2
 659.394236222 115.52949765 l 2
 652.527965909 85.3179082739 630.294537513 65 602 65 c 2
 595 65 l 2
 580.825202157 65 551.342528585 68.4026574185 539.072266857 97.0332681191 c 2
 457.139496341 282.880771971 l 2
 448.524256587 302.265061418 442.40061826 309.322390755 441.769932652 309.837345701 c 0
 441.167012427 309.932156762 440.475713058 310 439 310 c 2
 394 310 l 2
 392.441794106 310 391.540377955 309.886142999 391.230067348 309.837345701 c 0
 390.181146457 308.980901548 384.245515972 301.747049677 375.860503659 282.880771971 c 2
 293.927733143 97.0332681191 l 2
 281.66208829 68.4134301268 252.163535327 65 238 65 c 2
 231 65 l 2
 202.715336274 65 180.472030116 85.317925763 173.605763778 115.52949765 c 2
 148.535337987 228.847822227 l 2
 142.468487957 259.182072373 143 304.497945216 143 335 c 2
 143 630 l 2
 143 645.132537856 157.270095667 655 168 655 c 2
 178 655 l 2
 193.132537856 655 203 640.729904333 203 630 c 2
 203 336 l 2
 203 306.486412831 203.525315178 259.848911949 207.469199809 240.129488797 c 2
 232.616123686 125.459515915 l 1
 232.616123686 125.459515915 232.748302301 125.206076565 232.889698835 125 c 2
 236 125 l 2
 237.91972775 125 239.541335684 125.025176738 240.560553508 125.064163213 c 2
 322.172239281 308.192823971 l 2
 339.781178585 347.553982414 358.773287644 370 394 370 c 2
 439 370 l 2
EndSplineSet
Substitution2: "'ss12' Style Set 12 in Latin lookup 25 subtable" Wacute.v
Substitution2: "'ss01' Style Set 1 in Latin lookup 21 subtable" Wacute.v
Substitution2: "'vert' Vertical Alternates (obs) in Latin lookup 20 subtable" Wacute.v
Substitution2: "'ss02' Style Set 2 in Latin lookup 8 subtable" Wacute.salt
Position2: "'ss11' Style Set 11 in Latin lookup 1 per glyph data 25" dx=225 dy=0 dh=449 dv=0
EndChar

StartChar: Wdieresis
Encoding: 7812 7812 103
Width: 831
Flags: HMW
HStem: 90 10<223 236 231 236 236 238 597 602> 335 10<386 439 394 439> 830 47<279 289 279 289 537 547>
VStem: 168 10<335 336 336 630> 279 10<830 877> 537 10<830 877> 655 10<336 630>
LayerCount: 2
Fore
SplineSet
547 805 m 2
 537 805 l 2
 521.867462144 805 512 819.270095667 512 830 c 2
 512 877 l 2
 512 892.132537856 526.270095667 902 537 902 c 2
 547 902 l 2
 562.132537856 902 572 887.729904333 572 877 c 2
 572 830 l 2
 572 814.867462144 557.729904333 805 547 805 c 2
289 805 m 2
 279 805 l 2
 263.867462144 805 254 819.270095667 254 830 c 2
 254 877 l 2
 254 892.132537856 268.270095667 902 279 902 c 2
 289 902 l 2
 304.132537856 902 314 887.729904333 314 877 c 2
 314 830 l 2
 314 814.867462144 299.729904333 805 289 805 c 2
439 370 m 2
 472.933629763 370 493.304221396 347.36308834 510.827760719 308.192823971 c 2
 592.439446492 125.064163213 l 2
 594.496961785 124.985460442 595.082747291 125 597 125 c 2
 600.110301165 125 l 2
 600.389666537 125.407157478 600.383876314 125.459515915 600.383876314 125.459515915 c 1
 625.530800191 240.129488797 l 2
 629.474363677 259.847306225 630 306.487584192 630 336 c 2
 630 630 l 2
 630 645.132537856 644.270095667 655 655 655 c 2
 665 655 l 2
 680.132537856 655 690 640.729904333 690 630 c 2
 690 335 l 2
 690 304.499252856 690.531154386 259.180284091 684.464662013 228.847822227 c 2
 659.394236222 115.52949765 l 2
 652.527965909 85.3179082739 630.294537513 65 602 65 c 2
 595 65 l 2
 580.825202157 65 551.342528585 68.4026574185 539.072266857 97.0332681191 c 2
 457.139496341 282.880771971 l 2
 448.524256587 302.265061418 442.40061826 309.322390755 441.769932652 309.837345701 c 0
 441.167012427 309.932156762 440.475713058 310 439 310 c 2
 394 310 l 2
 392.441794106 310 391.540377955 309.886142999 391.230067348 309.837345701 c 0
 390.181146457 308.980901548 384.245515972 301.747049677 375.860503659 282.880771971 c 2
 293.927733143 97.0332681191 l 2
 281.66208829 68.4134301268 252.163535327 65 238 65 c 2
 231 65 l 2
 202.715336274 65 180.472030116 85.317925763 173.605763778 115.52949765 c 2
 148.535337987 228.847822227 l 2
 142.468487957 259.182072373 143 304.497945216 143 335 c 2
 143 630 l 2
 143 645.132537856 157.270095667 655 168 655 c 2
 178 655 l 2
 193.132537856 655 203 640.729904333 203 630 c 2
 203 336 l 2
 203 306.486412831 203.525315178 259.848911949 207.469199809 240.129488797 c 2
 232.616123686 125.459515915 l 1
 232.616123686 125.459515915 232.748302301 125.206076565 232.889698835 125 c 2
 236 125 l 2
 237.91972775 125 239.541335684 125.025176738 240.560553508 125.064163213 c 2
 322.172239281 308.192823971 l 2
 339.781178585 347.553982414 358.773287644 370 394 370 c 2
 439 370 l 2
EndSplineSet
Substitution2: "'ss12' Style Set 12 in Latin lookup 25 subtable" Wdieresis.v
Substitution2: "'ss01' Style Set 1 in Latin lookup 21 subtable" Wdieresis.v
Substitution2: "'vert' Vertical Alternates (obs) in Latin lookup 20 subtable" Wdieresis.v
Substitution2: "'ss02' Style Set 2 in Latin lookup 8 subtable" Wdieresis.salt
Position2: "'ss11' Style Set 11 in Latin lookup 1 per glyph data 25" dx=225 dy=0 dh=449 dv=0
EndChar

StartChar: X
Encoding: 88 88 104
Width: 737
Flags: HMW
HStem: 370 10<311 429 309 430>
VStem: 167 10<90 135 90 149.5 615 630> 560 10<90 135 90 149 615 630>
LayerCount: 2
Fore
SplineSet
202 135 m 2
 202 90 l 2
 202 74.8674621445 187.729904333 65 177 65 c 2
 167 65 l 2
 151.867462144 65 142 79.2700956673 142 90 c 2
 142 135 l 2
 142 162.371911688 139.557918082 196.146732702 161.802877576 226.733552007 c 2
 270.955694468 375.909068427 l 1
 161.782354116 523.293077902 l 2
 140.434544629 553.180011184 142 586.860852799 142 615 c 2
 142 630 l 2
 142 645.132537856 156.270095667 655 167 655 c 2
 177 655 l 2
 192.132537856 655 202 640.729904333 202 630 c 2
 202 615 l 2
 202 585.918540212 203.685073919 566.928912972 211.107694859 556.855355981 c 2
 323.593143734 405 l 1
 417.152995609 405 l 1
 525.514706625 556.33273435 l 2
 532.94951015 567.570315371 535 586.93212556 535 615 c 2
 535 630 l 2
 535 645.132537856 549.270095667 655 560 655 c 2
 570 655 l 2
 585.132537856 655 595 640.729904333 595 630 c 2
 595 615 l 2
 595 586.926570809 596.458148495 553.029781557 575.318254654 523.433930181 c 2
 467.863432516 374.08994009 l 1
 575.275909207 226.625353445 l 2
 596.503371842 196.906905756 595 163.101149025 595 135 c 2
 595 90 l 2
 595 74.8674621445 580.729904333 65 570 65 c 2
 560 65 l 2
 544.867462144 65 535 79.2700956673 535 90 c 2
 535 135 l 2
 535 164.104030185 533.371979468 182.993657432 525.802851975 193.266044745 c 2
 416.217217623 345 l 1
 321.719067889 345 l 1
 211.237377376 193.321746922 l 2
 204.682181008 184.245321182 202 163.540167621 202 135 c 2
EndSplineSet
Substitution2: "'ss12' Style Set 12 in Latin lookup 25 subtable" X.v
Substitution2: "'ss01' Style Set 1 in Latin lookup 21 subtable" X.v
Substitution2: "'vert' Vertical Alternates (obs) in Latin lookup 20 subtable" X.v
Substitution2: "'ss02' Style Set 2 in Latin lookup 9 subtable" X.salt
Position2: "'ss11' Style Set 11 in Latin lookup 1 per glyph data 40" dx=272 dy=0 dh=543 dv=0
EndChar

StartChar: Y
Encoding: 89 89 105
Width: 705
Flags: HMW
HStem: 261 10<323.5 365 338 348 358 365 358 358>
VStem: 153 10<515 630> 348 10<90 261 90 261> 544 10<515 630>
LayerCount: 2
Fore
SplineSet
383 237.302734502 m 1
 383 90 l 2
 383 74.8674621445 368.729904333 65 358 65 c 2
 348 65 l 2
 332.867462144 65 323 79.2700956673 323 90 c 2
 323 236.923755594 l 1
 289.901889057 241.510651708 266.171303642 259.127596766 244.768155778 288.31370749 c 2
 147.846586446 423.204551405 l 2
 126.371909776 451.837453632 128 487.167669037 128 515 c 2
 128 630 l 2
 128 645.132537856 142.270095667 655 153 655 c 2
 163 655 l 2
 178.132537856 655 188 640.729904333 188 630 c 2
 188 515 l 2
 188 486.874368784 190.277529888 467.805050707 197.682337529 456.059317289 c 2
 294.558245527 321.232022653 l 2
 308.518784591 300.291214057 322.031790535 296 338 296 c 2
 365 296 l 2
 381.960666376 296 393.573141218 300.64813225 410.046092522 322.062968946 c 2
 510.085884417 457.116688004 l 2
 517.163320686 466.216248922 519 485.348487628 519 515 c 2
 519 630 l 2
 519 645.132537856 533.270095667 655 544 655 c 2
 554 655 l 2
 569.132537856 655 579 640.729904333 579 630 c 2
 579 515 l 2
 579 487.82394319 581.656343722 452.735267439 558.98827589 422.983428411 c 2
 459.003761061 288.004333391 l 2
 438.196264808 260.576270149 414.83278525 242.448595121 383 237.302734502 c 1
EndSplineSet
Substitution2: "'ss12' Style Set 12 in Latin lookup 25 subtable" Y.v
Substitution2: "'ss01' Style Set 1 in Latin lookup 21 subtable" Y.v
Substitution2: "'vert' Vertical Alternates (obs) in Latin lookup 20 subtable" Y.v
Substitution2: "'ss02' Style Set 2 in Latin lookup 10 subtable" Y.salt
Position2: "'ss11' Style Set 11 in Latin lookup 1 per glyph data 57" dx=288 dy=0 dh=575 dv=0
EndChar

StartChar: Yacute
Encoding: 221 221 106
Width: 705
Flags: HMW
HStem: 261 10<323.5 365 338 348 358 365 358 358>
VStem: 153 10<515 630> 348 10<90 261 90 261> 544 10<515 630>
LayerCount: 2
Fore
SplineSet
238.886358131 871.80534689 m 2
 477.886358131 901.80534689 l 2
 493.282744872 903.737947736 506 890.615198751 506 877 c 2
 506 867 l 2
 506 853.806211551 494.920810922 843.551201527 484.113641869 842.19465311 c 2
 245.113641869 812.19465311 l 2
 229.717255128 810.262052264 217 823.384801249 217 837 c 2
 217 847 l 2
 217 860.193788449 228.079189078 870.448798473 238.886358131 871.80534689 c 2
383 237.302734502 m 1
 383 90 l 2
 383 74.8674621445 368.729904333 65 358 65 c 2
 348 65 l 2
 332.867462144 65 323 79.2700956673 323 90 c 2
 323 236.923755594 l 1
 289.901889057 241.510651708 266.171303642 259.127596766 244.768155778 288.31370749 c 2
 147.846586446 423.204551405 l 2
 126.371909776 451.837453632 128 487.167669037 128 515 c 2
 128 630 l 2
 128 645.132537856 142.270095667 655 153 655 c 2
 163 655 l 2
 178.132537856 655 188 640.729904333 188 630 c 2
 188 515 l 2
 188 486.874368784 190.277529888 467.805050707 197.682337529 456.059317289 c 2
 294.558245527 321.232022653 l 2
 308.518784591 300.291214057 322.031790535 296 338 296 c 2
 365 296 l 2
 381.960666376 296 393.573141218 300.64813225 410.046092522 322.062968946 c 2
 510.085884417 457.116688004 l 2
 517.163320686 466.216248922 519 485.348487628 519 515 c 2
 519 630 l 2
 519 645.132537856 533.270095667 655 544 655 c 2
 554 655 l 2
 569.132537856 655 579 640.729904333 579 630 c 2
 579 515 l 2
 579 487.82394319 581.656343722 452.735267439 558.98827589 422.983428411 c 2
 459.003761061 288.004333391 l 2
 438.196264808 260.576270149 414.83278525 242.448595121 383 237.302734502 c 1
EndSplineSet
Substitution2: "'ss12' Style Set 12 in Latin lookup 25 subtable" Yacute.v
Substitution2: "'ss01' Style Set 1 in Latin lookup 21 subtable" Yacute.v
Substitution2: "'vert' Vertical Alternates (obs) in Latin lookup 20 subtable" Yacute.v
Substitution2: "'ss02' Style Set 2 in Latin lookup 10 subtable" Yacute.salt
Position2: "'ss11' Style Set 11 in Latin lookup 1 per glyph data 57" dx=288 dy=0 dh=575 dv=0
EndChar

StartChar: Ycircumflex
Encoding: 374 374 107
Width: 705
Flags: HMW
HStem: 261 10<323.5 365 338 348 358 365 358 358> 878 10<315 319>
VStem: 153 10<515 630> 348 10<90 261 90 261> 544 10<515 630>
LayerCount: 2
Fore
SplineSet
462.340916587 826.202133682 m 2
 375.577873941 854.125871545 l 2
 365.473634122 857.157143491 359.85361019 859 351 859 c 0
 342.14638981 859 336.526365878 857.157143491 326.422126059 854.125871545 c 2
 239.659083413 826.202133682 l 2
 223.716712085 821.071255554 207 833.431547997 207 850 c 2
 207 861 l 2
 207 872.112439944 215.03433223 881.770552321 224.26637181 884.773745919 c 2
 307.26637181 911.773745919 l 2
 307.79182668 911.944677021 308.538462316 912.154025739 308.936609374 912.253562504 c 0
 319.604511609 914.920538062 332.458791853 919 351 919 c 0
 369.541208147 919 382.395488391 914.920538062 393.063390626 912.253562504 c 0
 393.599450554 912.119547521 394.343357813 911.900701343 394.73362819 911.773745919 c 2
 477.73362819 884.773745919 l 2
 488.301001141 881.336166766 495 870.708229838 495 861 c 2
 495 850 l 2
 495 833.252310191 478.112668822 821.126167446 462.340916587 826.202133682 c 2
383 237.302734502 m 1
 383 90 l 2
 383 74.8674621445 368.729904333 65 358 65 c 2
 348 65 l 2
 332.867462144 65 323 79.2700956673 323 90 c 2
 323 236.923755594 l 1
 289.901889057 241.510651708 266.171303642 259.127596766 244.768155778 288.31370749 c 2
 147.846586446 423.204551405 l 2
 126.371909776 451.837453632 128 487.167669037 128 515 c 2
 128 630 l 2
 128 645.132537856 142.270095667 655 153 655 c 2
 163 655 l 2
 178.132537856 655 188 640.729904333 188 630 c 2
 188 515 l 2
 188 486.874368784 190.277529888 467.805050707 197.682337529 456.059317289 c 2
 294.558245527 321.232022653 l 2
 308.518784591 300.291214057 322.031790535 296 338 296 c 2
 365 296 l 2
 381.960666376 296 393.573141218 300.64813225 410.046092522 322.062968946 c 2
 510.085884417 457.116688004 l 2
 517.163320686 466.216248922 519 485.348487628 519 515 c 2
 519 630 l 2
 519 645.132537856 533.270095667 655 544 655 c 2
 554 655 l 2
 569.132537856 655 579 640.729904333 579 630 c 2
 579 515 l 2
 579 487.82394319 581.656343722 452.735267439 558.98827589 422.983428411 c 2
 459.003761061 288.004333391 l 2
 438.196264808 260.576270149 414.83278525 242.448595121 383 237.302734502 c 1
EndSplineSet
Substitution2: "'ss12' Style Set 12 in Latin lookup 25 subtable" Ycircumflex.v
Substitution2: "'ss01' Style Set 1 in Latin lookup 21 subtable" Ycircumflex.v
Substitution2: "'vert' Vertical Alternates (obs) in Latin lookup 20 subtable" Ycircumflex.v
Substitution2: "'ss02' Style Set 2 in Latin lookup 10 subtable" Ycircumflex.salt
Position2: "'ss11' Style Set 11 in Latin lookup 1 per glyph data 57" dx=288 dy=0 dh=575 dv=0
EndChar

StartChar: Ydieresis
Encoding: 376 376 108
Width: 705
Flags: HMW
HStem: 261 10<323.5 365 338 348 358 365 358 358> 830 47<216 226 216 226 474 484>
VStem: 153 10<515 630> 216 10<830 877> 348 10<90 261 90 261> 474 10<830 877> 544 10<515 630>
LayerCount: 2
Fore
SplineSet
484 805 m 2
 474 805 l 2
 458.867462144 805 449 819.270095667 449 830 c 2
 449 877 l 2
 449 892.132537856 463.270095667 902 474 902 c 2
 484 902 l 2
 499.132537856 902 509 887.729904333 509 877 c 2
 509 830 l 2
 509 814.867462144 494.729904333 805 484 805 c 2
226 805 m 2
 216 805 l 2
 200.867462144 805 191 819.270095667 191 830 c 2
 191 877 l 2
 191 892.132537856 205.270095667 902 216 902 c 2
 226 902 l 2
 241.132537856 902 251 887.729904333 251 877 c 2
 251 830 l 2
 251 814.867462144 236.729904333 805 226 805 c 2
383 237.302734502 m 1
 383 90 l 2
 383 74.8674621445 368.729904333 65 358 65 c 2
 348 65 l 2
 332.867462144 65 323 79.2700956673 323 90 c 2
 323 236.923755594 l 1
 289.901889057 241.510651708 266.171303642 259.127596766 244.768155778 288.31370749 c 2
 147.846586446 423.204551405 l 2
 126.371909776 451.837453632 128 487.167669037 128 515 c 2
 128 630 l 2
 128 645.132537856 142.270095667 655 153 655 c 2
 163 655 l 2
 178.132537856 655 188 640.729904333 188 630 c 2
 188 515 l 2
 188 486.874368784 190.277529888 467.805050707 197.682337529 456.059317289 c 2
 294.558245527 321.232022653 l 2
 308.518784591 300.291214057 322.031790535 296 338 296 c 2
 365 296 l 2
 381.960666376 296 393.573141218 300.64813225 410.046092522 322.062968946 c 2
 510.085884417 457.116688004 l 2
 517.163320686 466.216248922 519 485.348487628 519 515 c 2
 519 630 l 2
 519 645.132537856 533.270095667 655 544 655 c 2
 554 655 l 2
 569.132537856 655 579 640.729904333 579 630 c 2
 579 515 l 2
 579 487.82394319 581.656343722 452.735267439 558.98827589 422.983428411 c 2
 459.003761061 288.004333391 l 2
 438.196264808 260.576270149 414.83278525 242.448595121 383 237.302734502 c 1
EndSplineSet
Substitution2: "'ss12' Style Set 12 in Latin lookup 25 subtable" Ydieresis.v
Substitution2: "'ss01' Style Set 1 in Latin lookup 21 subtable" Ydieresis.v
Substitution2: "'vert' Vertical Alternates (obs) in Latin lookup 20 subtable" Ydieresis.v
Substitution2: "'ss02' Style Set 2 in Latin lookup 10 subtable" Ydieresis.salt
Position2: "'ss11' Style Set 11 in Latin lookup 1 per glyph data 57" dx=288 dy=0 dh=575 dv=0
EndChar

StartChar: Ygrave
Encoding: 7922 7922 109
Width: 705
Flags: HMW
HStem: 261 10<323.5 365 338 348 358 365 358 358>
VStem: 153 10<515 630> 348 10<90 261 90 261> 544 10<515 630>
LayerCount: 2
Fore
SplineSet
197 867 m 2
 197 877 l 2
 197 892.517205635 211.60445275 903.501061005 225.113641869 901.80534689 c 2
 464.113641869 871.80534689 l 2
 477.20470184 870.162117605 486 857.891975328 486 847 c 2
 486 837 l 2
 486 821.482794365 471.39554725 810.498938995 457.886358131 812.19465311 c 2
 218.886358131 842.19465311 l 2
 205.79529816 843.837882395 197 856.108024672 197 867 c 2
383 237.302734502 m 1
 383 90 l 2
 383 74.8674621445 368.729904333 65 358 65 c 2
 348 65 l 2
 332.867462144 65 323 79.2700956673 323 90 c 2
 323 236.923755594 l 1
 289.901889057 241.510651708 266.171303642 259.127596766 244.768155778 288.31370749 c 2
 147.846586446 423.204551405 l 2
 126.371909776 451.837453632 128 487.167669037 128 515 c 2
 128 630 l 2
 128 645.132537856 142.270095667 655 153 655 c 2
 163 655 l 2
 178.132537856 655 188 640.729904333 188 630 c 2
 188 515 l 2
 188 486.874368784 190.277529888 467.805050707 197.682337529 456.059317289 c 2
 294.558245527 321.232022653 l 2
 308.518784591 300.291214057 322.031790535 296 338 296 c 2
 365 296 l 2
 381.960666376 296 393.573141218 300.64813225 410.046092522 322.062968946 c 2
 510.085884417 457.116688004 l 2
 517.163320686 466.216248922 519 485.348487628 519 515 c 2
 519 630 l 2
 519 645.132537856 533.270095667 655 544 655 c 2
 554 655 l 2
 569.132537856 655 579 640.729904333 579 630 c 2
 579 515 l 2
 579 487.82394319 581.656343722 452.735267439 558.98827589 422.983428411 c 2
 459.003761061 288.004333391 l 2
 438.196264808 260.576270149 414.83278525 242.448595121 383 237.302734502 c 1
EndSplineSet
Substitution2: "'ss12' Style Set 12 in Latin lookup 25 subtable" Ygrave.v
Substitution2: "'ss01' Style Set 1 in Latin lookup 21 subtable" Ygrave.v
Substitution2: "'vert' Vertical Alternates (obs) in Latin lookup 20 subtable" Ygrave.v
Substitution2: "'ss02' Style Set 2 in Latin lookup 10 subtable" Ygrave.salt
Position2: "'ss11' Style Set 11 in Latin lookup 1 per glyph data 57" dx=288 dy=0 dh=575 dv=0
EndChar

StartChar: Z
Encoding: 90 90 110
Width: 660
Flags: HMW
HStem: 90 10<176 524 187 524> 620 10<154 459 154 459>
VStem: 156 10<123 137> 480 10<583 597>
LayerCount: 2
Fore
SplineSet
492.454471555 528.293004862 m 2
 199.467832173 152.310150228 l 2
 189.027272282 139.781478359 191 143.16698006 191 137 c 2
 191 125 l 1
 524 125 l 2
 539.132537856 125 549 110.729904333 549 100 c 2
 549 90 l 2
 549 74.8674621445 534.729904333 65 524 65 c 2
 187 65 l 2
 152.535501478 65 131 90.2499160208 131 123 c 2
 131 139 l 2
 131 162.81709615 143.784596043 179.91387388 153.545528445 191.706995138 c 2
 446.532167827 567.689849772 l 2
 456.972727718 580.218521641 455 576.83301994 455 583 c 2
 455 595 l 1
 154 595 l 2
 138.867462144 595 129 609.270095667 129 620 c 2
 129 630 l 2
 129 645.132537856 143.270095667 655 154 655 c 2
 459 655 l 2
 493.464498522 655 515 629.750083979 515 597 c 2
 515 581 l 2
 515 557.18290385 502.215403957 540.08612612 492.454471555 528.293004862 c 2
EndSplineSet
Substitution2: "'ss12' Style Set 12 in Latin lookup 25 subtable" Z.v
Substitution2: "'ss01' Style Set 1 in Latin lookup 21 subtable" Z.v
Substitution2: "'vert' Vertical Alternates (obs) in Latin lookup 20 subtable" Z.v
Position2: "'ss11' Style Set 11 in Latin lookup 1 per glyph data 66" dx=310 dy=0 dh=620 dv=0
EndChar

StartChar: Zacute
Encoding: 377 377 111
Width: 660
Flags: HMW
HStem: 90 10<176 524 187 524> 620 10<154 459 154 459>
VStem: 156 10<123 137> 480 10<583 597>
LayerCount: 2
Fore
SplineSet
216.886358131 871.80534689 m 2
 455.886358131 901.80534689 l 2
 471.282744872 903.737947736 484 890.615198751 484 877 c 2
 484 867 l 2
 484 853.806211551 472.920810922 843.551201527 462.113641869 842.19465311 c 2
 223.113641869 812.19465311 l 2
 207.717255128 810.262052264 195 823.384801249 195 837 c 2
 195 847 l 2
 195 860.193788449 206.079189078 870.448798473 216.886358131 871.80534689 c 2
492.454471555 528.293004862 m 2
 199.467832173 152.310150228 l 2
 189.027272282 139.781478359 191 143.16698006 191 137 c 2
 191 125 l 1
 524 125 l 2
 539.132537856 125 549 110.729904333 549 100 c 2
 549 90 l 2
 549 74.8674621445 534.729904333 65 524 65 c 2
 187 65 l 2
 152.535501478 65 131 90.2499160208 131 123 c 2
 131 139 l 2
 131 162.81709615 143.784596043 179.91387388 153.545528445 191.706995138 c 2
 446.532167827 567.689849772 l 2
 456.972727718 580.218521641 455 576.83301994 455 583 c 2
 455 595 l 1
 154 595 l 2
 138.867462144 595 129 609.270095667 129 620 c 2
 129 630 l 2
 129 645.132537856 143.270095667 655 154 655 c 2
 459 655 l 2
 493.464498522 655 515 629.750083979 515 597 c 2
 515 581 l 2
 515 557.18290385 502.215403957 540.08612612 492.454471555 528.293004862 c 2
EndSplineSet
Substitution2: "'ss12' Style Set 12 in Latin lookup 25 subtable" Zacute.v
Substitution2: "'ss01' Style Set 1 in Latin lookup 21 subtable" Zacute.v
Substitution2: "'vert' Vertical Alternates (obs) in Latin lookup 20 subtable" Zacute.v
Position2: "'ss11' Style Set 11 in Latin lookup 1 per glyph data 66" dx=310 dy=0 dh=620 dv=0
EndChar

StartChar: Zdotaccent
Encoding: 379 379 112
Width: 660
Flags: HMW
HStem: 90 10<176 524 187 524> 620 10<154 459 154 459> 830 59<326 336 326 336>
VStem: 156 10<123 137> 326 10<830 889> 480 10<583 597>
LayerCount: 2
Fore
SplineSet
336 805 m 2
 326 805 l 2
 310.867462144 805 301 819.270095667 301 830 c 2
 301 889 l 2
 301 904.132537856 315.270095667 914 326 914 c 2
 336 914 l 2
 351.132537856 914 361 899.729904333 361 889 c 2
 361 830 l 2
 361 814.867462144 346.729904333 805 336 805 c 2
492.454471555 528.293004862 m 2
 199.467832173 152.310150228 l 2
 189.027272282 139.781478359 191 143.16698006 191 137 c 2
 191 125 l 1
 524 125 l 2
 539.132537856 125 549 110.729904333 549 100 c 2
 549 90 l 2
 549 74.8674621445 534.729904333 65 524 65 c 2
 187 65 l 2
 152.535501478 65 131 90.2499160208 131 123 c 2
 131 139 l 2
 131 162.81709615 143.784596043 179.91387388 153.545528445 191.706995138 c 2
 446.532167827 567.689849772 l 2
 456.972727718 580.218521641 455 576.83301994 455 583 c 2
 455 595 l 1
 154 595 l 2
 138.867462144 595 129 609.270095667 129 620 c 2
 129 630 l 2
 129 645.132537856 143.270095667 655 154 655 c 2
 459 655 l 2
 493.464498522 655 515 629.750083979 515 597 c 2
 515 581 l 2
 515 557.18290385 502.215403957 540.08612612 492.454471555 528.293004862 c 2
EndSplineSet
Substitution2: "'ss12' Style Set 12 in Latin lookup 25 subtable" Zdotaccent.v
Substitution2: "'ss01' Style Set 1 in Latin lookup 21 subtable" Zdotaccent.v
Substitution2: "'vert' Vertical Alternates (obs) in Latin lookup 20 subtable" Zdotaccent.v
Position2: "'ss11' Style Set 11 in Latin lookup 1 per glyph data 66" dx=310 dy=0 dh=620 dv=0
EndChar

StartChar: Zcaron
Encoding: 381 381 113
Width: 660
Flags: HMW
HStem: 90 10<176 524 187 524> 620 10<154 459 154 459> 841 10<293 297>
VStem: 156 10<123 137> 480 10<583 597>
LayerCount: 2
Fore
SplineSet
217.659083413 902.797866318 m 2
 304.422126059 874.874128455 l 2
 314.526365878 871.842856509 320.14638981 870 329 870 c 0
 337.85361019 870 343.473634122 871.842856509 353.577873941 874.874128455 c 2
 440.340916587 902.797866318 l 2
 456.283287915 907.928744446 473 895.568452003 473 879 c 2
 473 868 l 2
 473 856.887560056 464.96566777 847.229447679 455.73362819 844.226254081 c 2
 372.73362819 817.226254081 l 2
 372.20817332 817.055322979 371.461537684 816.845974261 371.063390626 816.746437496 c 0
 360.395488391 814.079461938 347.541208147 810 329 810 c 0
 310.458791853 810 297.604511609 814.079461938 286.936609374 816.746437496 c 0
 286.400549446 816.880452479 285.656642187 817.099298657 285.26637181 817.226254081 c 2
 202.26637181 844.226254081 l 2
 191.698998859 847.663833234 185 858.291770162 185 868 c 2
 185 879 l 2
 185 895.747689809 201.887331178 907.873832554 217.659083413 902.797866318 c 2
492.454471555 528.293004862 m 2
 199.467832173 152.310150228 l 2
 189.027272282 139.781478359 191 143.16698006 191 137 c 2
 191 125 l 1
 524 125 l 2
 539.132537856 125 549 110.729904333 549 100 c 2
 549 90 l 2
 549 74.8674621445 534.729904333 65 524 65 c 2
 187 65 l 2
 152.535501478 65 131 90.2499160208 131 123 c 2
 131 139 l 2
 131 162.81709615 143.784596043 179.91387388 153.545528445 191.706995138 c 2
 446.532167827 567.689849772 l 2
 456.972727718 580.218521641 455 576.83301994 455 583 c 2
 455 595 l 1
 154 595 l 2
 138.867462144 595 129 609.270095667 129 620 c 2
 129 630 l 2
 129 645.132537856 143.270095667 655 154 655 c 2
 459 655 l 2
 493.464498522 655 515 629.750083979 515 597 c 2
 515 581 l 2
 515 557.18290385 502.215403957 540.08612612 492.454471555 528.293004862 c 2
EndSplineSet
Substitution2: "'ss12' Style Set 12 in Latin lookup 25 subtable" Zcaron.v
Substitution2: "'ss01' Style Set 1 in Latin lookup 21 subtable" Zcaron.v
Substitution2: "'vert' Vertical Alternates (obs) in Latin lookup 20 subtable" Zcaron.v
Position2: "'ss11' Style Set 11 in Latin lookup 1 per glyph data 66" dx=310 dy=0 dh=620 dv=0
EndChar

